<svg width="30" height="30" viewBox="0 0 30 30" fill="none" xmlns="http://www.w3.org/2000/svg">
    <rect width="30" height="30" rx="9" fill="#4E4E4E"/>
    <path d="M21.1335 14.3965H15.1968V8.45978C15.1968 8.38673 15.137 8.32697 15.064 8.32697H14.6323C13.7612 8.32608 12.8985 8.49721 12.0937 8.83053C11.2889 9.16385 10.5578 9.65281 9.94238 10.2694C9.33648 10.8734 8.85382 11.5895 8.52129 12.3778C8.17598 13.1962 8 14.0645 8 14.961C8 15.8574 8.17598 16.724 8.52129 17.5425C8.85498 18.3311 9.33311 19.0416 9.94238 19.6509C10.5517 20.2602 11.2605 20.7383 12.0508 21.072C12.8678 21.4186 13.7465 21.5965 14.634 21.5949C15.5051 21.5958 16.3678 21.4247 17.1726 21.0914C17.9774 20.7581 18.7085 20.2691 19.3239 19.6526C19.9332 19.0433 20.4113 18.3344 20.745 17.5442C21.0916 16.7271 21.2695 15.8485 21.268 14.961V14.5293C21.2663 14.4563 21.2065 14.3965 21.1335 14.3965ZM22.5928 13.4751L22.5496 13.007C22.4085 11.4796 21.7312 10.0386 20.6388 8.95119C19.5474 7.86074 18.1092 7.186 16.573 7.04367L16.1032 7.0005C16.0252 6.99386 15.9588 7.05363 15.9588 7.13166V13.5017C15.9588 13.5747 16.0186 13.6345 16.0916 13.6345L22.46 13.6179C22.538 13.6162 22.5994 13.5515 22.5928 13.4751Z"
          fill="white"/>
</svg>
