<svg width="6" height="10" viewBox="0 0 6 10" fill="none" xmlns="http://www.w3.org/2000/svg">
    <path d="M0.76919 8.91901C0.700255 8.85045 0.645565 8.76901 0.60825 8.67936C0.570935 8.58971 0.551727 8.4936 0.551727 8.39654C0.551727 8.29948 0.570935 8.20337 0.60825 8.11372C0.645565 8.02407 0.700255 7.94263 0.76919 7.87407L3.65437 4.99862L0.76919 2.12316C0.630153 1.9846 0.552042 1.79666 0.552042 1.60069C0.552042 1.40473 0.630153 1.21679 0.76919 1.07822C0.908227 0.939651 1.0968 0.861804 1.29343 0.861804C1.49006 0.861804 1.67863 0.939651 1.81767 1.07822L5.23081 4.47985C5.29974 4.54841 5.35443 4.62985 5.39175 4.7195C5.42906 4.80915 5.44827 4.90526 5.44827 5.00232C5.44827 5.09938 5.42906 5.19549 5.39175 5.28514C5.35443 5.37479 5.29974 5.45623 5.23081 5.52479L1.81767 8.92642C1.5351 9.20804 1.05919 9.20804 0.76919 8.91901Z"
          fill="white"/>
</svg>
