<svg width="16" height="17" viewBox="0 0 16 17" fill="none" xmlns="http://www.w3.org/2000/svg">
    <path d="M10 0.046875C10.56 0.046875 11.08 0.246875 11.44 0.606875C11.8 0.966875 12 1.48687 12 2.04688C12 2.60688 11.64 3.00688 11.44 3.48688C11.38 3.60688 11.38 3.80687 11.38 4.04688H16V16.0469H11.38C11.38 15.8069 11.4 15.6069 11.44 15.4869C11.64 15.0069 12 14.6069 12 14.0469C12 13.4869 11.8 12.9669 11.44 12.6069C11.08 12.2469 10.56 12.0469 10 12.0469C9.44 12.0469 8.92 12.2469 8.56 12.6069C8.2 12.9669 8 13.4869 8 14.0469C8 14.6069 8.36 15.0069 8.56 15.4869C8.62 15.6069 8.62 15.8069 8.62 16.0469H4V11.4269C3.76 11.4269 3.56 11.4469 3.44 11.4869C2.96 11.6869 2.56 12.0469 2 12.0469C1.44 12.0469 0.92 11.8469 0.56 11.4869C0.200001 11.1269 0 10.6069 0 10.0469C0 9.48688 0.200001 8.96688 0.56 8.60688C0.92 8.24688 1.44 8.04688 2 8.04688C2.56 8.04688 2.96 8.40688 3.44 8.60688C3.56 8.66688 3.76 8.66688 4 8.66688V4.04688H8.62C8.62 3.80687 8.6 3.60688 8.56 3.48688C8.36 3.00688 8 2.60688 8 2.04688C8 1.48687 8.2 0.966875 8.56 0.606875C8.92 0.246875 9.44 0.046875 10 0.046875Z"
          fill="#1879B9"/>
</svg>
