<svg width="10" height="7" viewBox="0 0 10 7" fill="none" xmlns="http://www.w3.org/2000/svg">
    <path d="M4.08724 5.94562L0.201999 1.66857C-0.256518 1.16534 0.116129 0.375 0.812005 0.375H8.58249C8.73823 0.374872 8.89071 0.41798 9.02166 0.499162C9.15261 0.580344 9.25649 0.696159 9.32086 0.832738C9.38523 0.969316 9.40735 1.12087 9.38459 1.26925C9.36182 1.41762 9.29513 1.55654 9.1925 1.66935L5.30726 5.94484C5.23122 6.02865 5.13745 6.09581 5.03223 6.14183C4.92702 6.18785 4.8128 6.21166 4.69725 6.21166C4.5817 6.21166 4.46748 6.18785 4.36227 6.14183C4.25705 6.09581 4.16328 6.02943 4.08724 5.94562Z"
          fill="#272727"/>
</svg>
