<svg width="833" height="595" viewBox="0 0 833 595" fill="none" xmlns="http://www.w3.org/2000/svg">
    <path fill-rule="evenodd" clip-rule="evenodd"
          d="M249.841 203.176C272.35 177.93 316.807 177.322 355.286 168.086C393.209 158.982 428.159 134.093 469.46 150.458C510.909 166.882 519.529 209.453 542.111 242.114C567.187 278.381 615.746 313.729 606.67 348.903C597.355 385.004 542.318 390.979 500.421 403.684C454.779 417.525 410.516 439.599 357.568 424.441C298.769 407.608 240.293 369.584 217.456 322.676C195.716 278.026 220.62 235.95 249.841 203.176Z"
          fill="#4E4E4E"/>
    <path d="M494.988 160.094L432.525 195.818V185.093L344.029 134.486L255.532 185.093L266.415 192.968L262.863 213.72V282.701L285.072 295.401L296.047 301.675L302.278 305.241L311.475 356.745V379.244L382.978 420.135L454.481 379.244V356.836L494.988 379.999L571.079 336.492V203.612L494.988 160.094Z"
          fill="#1A1A1A"/>
    <path d="M341.777 250.367L381.993 244.435L382.022 244.45V244.444L384.08 244.747L411.464 228.938V248.787L419.082 249.912V203.908L341.777 248.117V250.367Z"
          fill="#A6A6A6"/>
    <path d="M292.234 291.005L298.669 294.687L305.296 289.078L292.234 291.005Z" fill="#919191"/>
    <path d="M341.777 250.367V248.117L257.974 200.191V271.412L280.905 284.525L340.243 250.595L341.777 250.367ZM281.871 266.031L283.846 270.952L283.023 270.476L283.004 277.309L280.677 275.969L280.695 269.136L279.875 268.668L281.871 266.031ZM275.62 262.422L277.597 267.345L276.773 266.873L276.755 273.703L274.426 272.358L274.45 265.527L273.626 265.055L275.62 262.422ZM269.887 264.39C269.883 266.237 268.669 267.061 267.114 266.381L267.257 270.446L268.728 271.292L269.193 272.205L264.246 269.349L264.712 268.981L266.183 269.827L266.349 265.94C264.791 264.825 263.591 262.603 263.593 260.758L263.607 255.866L266.842 257.729L268.17 260.553L267.961 260.626L269.147 262.39L268.628 261.037L269.151 261L268.463 259.593L269.014 258.98L269.895 259.491L269.897 259.526L269.887 264.39ZM284.39 280.611L273.03 274.048L273.036 272.205L284.394 278.764L284.39 280.611Z"
          fill="#919191"/>
    <path d="M411.464 228.939L384.081 244.748L411.464 248.788V228.939Z" fill="#B8B8B8"/>
    <path d="M341.777 223.693V248.117L419.082 203.908V189.753L433.149 181.705V170.633L341.777 222.892V223.693Z"
          fill="#7C7C7C"/>
    <path d="M433.15 170.634L341.777 118.383L250.405 170.634L341.779 222.89L433.15 170.634ZM308.596 201.085L255.367 170.636L341.779 121.215L371.686 138.317L371.698 138.311L398.485 153.637L398.475 153.643L419.758 165.82L428.186 170.636L370.951 203.378L341.777 220.057L312.6 203.378L308.596 201.085Z"
          fill="#3D3D3D"/>
    <path d="M370.951 203.378L428.184 170.638L419.756 165.823L398.473 153.645H398.469L384.98 145.919H384.974L371.684 138.319L341.777 121.217L255.367 170.636L308.596 201.085L312.6 203.376L341.777 220.055L370.951 203.378ZM310.057 199.749L259.171 170.638L341.78 123.389L383.076 147.014L383.084 147.008L416.326 166.03L424.384 170.634L369.67 201.937L341.78 217.88L313.885 201.937L310.057 199.749Z"
          fill="#6B6B6B"/>
    <path d="M369.669 201.937L424.382 170.635L416.324 166.031L383.081 147.007L383.073 147.013L341.777 123.389L259.171 170.635L310.057 199.748L313.885 201.937L341.777 217.879L369.669 201.937Z"
          fill="#4B4B4B"/>
    <path d="M341.777 223.693V222.892L250.405 170.633V195.858L257.975 200.191L341.777 248.117V223.693Z" fill="#6B6B6B"/>
    <path d="M384.976 145.917H384.982L398.471 153.645H398.475L398.485 153.637L371.698 138.312L371.685 138.319L384.976 145.917Z"
          fill="#F5E4C9"/>
    <path d="M273.03 274.046L284.39 280.611L284.396 278.764L273.036 272.205L273.03 274.046Z" fill="#161616"/>
    <path d="M274.428 272.361L276.755 273.706L276.773 266.875L277.597 267.349L275.62 262.424L273.626 265.058L274.452 265.53L274.428 272.361Z"
          fill="#161616"/>
    <path d="M280.677 275.969L283.004 277.309L283.023 270.476L283.847 270.954L281.871 266.031L279.876 268.668L280.696 269.136L280.677 275.969Z"
          fill="#161616"/>
    <path d="M269.015 258.984L268.463 259.596L269.151 261.004L268.628 261.04L269.147 262.393L267.961 260.629L268.171 260.556L266.842 257.733L263.608 255.869L263.593 260.762C263.589 262.607 264.792 264.828 266.35 265.943L266.183 269.83L264.712 268.984L264.246 269.352L269.194 272.209L268.728 271.295L267.257 270.449L267.115 266.384C268.671 267.064 269.885 266.238 269.887 264.393L269.9 259.531L269.898 259.496L269.015 258.984Z"
          fill="#161616"/>
    <path d="M419.082 189.754V203.909V249.912L423.775 250.606L497.6 292.831V294.829L458.708 289.086L497.567 321.977V323.985L474.531 337.157L474.818 337.321L476.061 339.97L475.863 340.027L476.978 341.689L476.492 340.42L476.982 340.387L476.341 339.063L476.856 338.491L477.682 338.971L477.684 339.008L477.674 343.559C477.668 345.294 476.537 346.065 475.074 345.428L475.208 349.24L476.59 350.034L477.023 350.882L472.385 348.207L472.82 347.859L474.203 348.654L474.358 345.013C472.899 343.969 471.772 341.884 471.779 340.153L471.781 338.727L455.822 347.853V347.959L497.647 371.874V234.681L419.082 189.754ZM488.907 345.105L490.756 349.714L489.985 349.273L489.971 355.679L487.79 354.416L487.811 348.018L487.036 347.57L488.907 345.105ZM483.051 341.72L484.9 346.333L484.133 345.894L484.112 352.292L481.93 351.041L481.952 344.633L481.179 344.187L483.051 341.72ZM491.267 358.761L480.62 352.615L480.626 350.884L491.273 357.036L491.267 358.761Z"
          fill="#636363"/>
    <path d="M497.645 234.683L576.207 189.752L497.645 144.824L433.15 181.706L419.081 189.752L497.645 234.683ZM448.895 175.141L448.885 175.133L471.921 161.959L471.927 161.967L471.933 161.971L497.645 147.263L571.937 189.76L522.73 217.902L497.645 232.246L472.558 217.902L423.35 189.76L448.895 175.141Z"
          fill="#B6B6B6"/>
    <path d="M534.652 210.919L534.79 210.998L522.729 217.904L571.936 189.76L497.644 147.264L471.933 161.972L546.302 204.256L534.652 210.919Z"
          fill="#939393"/>
    <path d="M423.351 189.761L472.558 217.905L497.645 232.249L522.73 217.905L534.791 210.999L534.653 210.92L534.649 210.922L523.271 217.429L448.897 175.143L423.351 189.761Z"
          fill="#A6A6A6"/>
    <path d="M497.645 234.683V371.876L576.207 326.953V189.754L497.645 234.683Z" fill="#919191"/>
    <path d="M480.621 352.618L491.267 358.761L491.273 357.038L480.627 350.887L480.621 352.618Z" fill="#161616"/>
    <path d="M481.928 351.042L484.113 352.291L484.133 345.893L484.9 346.333L483.051 341.719L481.177 344.188L481.952 344.632L481.928 351.042Z"
          fill="#161616"/>
    <path d="M487.789 354.416L489.972 355.68L489.986 349.274L490.757 349.717L488.908 345.105L487.034 347.571L487.809 348.019L487.789 354.416Z"
          fill="#161616"/>
    <path d="M471.774 340.157C471.768 341.89 472.895 343.973 474.354 345.017L474.199 348.658L472.816 347.863L472.381 348.21L477.019 350.886L476.585 350.037L475.204 349.244L475.07 345.432C476.533 346.068 477.664 345.297 477.67 343.562L477.68 339.011L477.678 338.975L476.852 338.495L476.337 339.066L476.978 340.391L476.488 340.423L476.974 341.693L475.859 340.031L476.056 339.974L474.814 337.325L474.527 337.16L471.774 338.735V340.157Z"
          fill="#161616"/>
    <path d="M460.502 168.505L471.927 161.967L471.921 161.959L448.885 175.133L448.895 175.141L460.494 168.505H460.502Z"
          fill="#F5E4C9"/>
    <path d="M534.649 210.92L534.653 210.918L546.303 204.256L471.933 161.971L471.927 161.967L460.503 168.505L534.649 210.92Z"
          fill="#C6C6C6"/>
    <path d="M523.27 217.429L534.648 210.921L460.502 168.506H460.494L448.894 175.142H448.896L523.27 217.429Z"
          fill="#D1D1D1"/>
    <path d="M308.165 286.657L381.994 244.436L341.778 250.368L340.244 250.595L280.905 284.525L266.415 292.811L308.165 286.657Z"
          fill="#7C7C7C"/>
    <path d="M308.165 286.656L266.415 292.81V294.818L292.234 291.004L305.297 289.077L308.165 286.656Z" fill="#B8B8B8"/>
    <path d="M384.08 244.748L382.021 244.445L455.813 286.641H455.819L455.825 286.649L455.848 286.663L497.6 292.831L423.775 250.605L419.082 249.913L411.464 248.789L384.08 244.748Z"
          fill="#7C7C7C"/>
    <path d="M455.848 286.67L458.708 289.083L497.6 294.828V292.83L455.848 286.662V286.67Z" fill="#B8B8B8"/>
    <path d="M455.803 286.649L455.813 286.641L382.021 244.445V244.451L455.803 286.649Z" fill="#E8B98A"/>
    <path d="M455.849 286.663L455.825 286.648L455.849 286.672V286.663Z" fill="#E8B98A"/>
    <path d="M340.244 366.213L308.165 347.863V371.097L381.993 413.317V330.879L340.244 366.213ZM330.003 378.195L316.223 370.281V358.629L330.003 366.556V378.195ZM373.779 388.152L375.52 392.487L374.796 392.074L374.782 398.096L372.733 396.912L372.749 390.895L372.025 390.471L373.779 388.152ZM368.274 384.977L370.015 389.316L369.291 388.893L369.271 394.91L367.226 393.73L367.241 387.711L366.514 387.288L368.274 384.977ZM363.233 382.424L363.225 386.7C363.219 388.333 362.153 389.062 360.784 388.46L360.904 392.04L362.202 392.793L362.611 393.594L358.253 391.076L358.662 390.752L359.96 391.499L360.102 388.075C358.735 387.088 357.677 385.131 357.679 383.51L357.696 379.193L360.546 380.839L361.711 383.323L361.524 383.388L362.572 384.942L362.114 383.746L362.576 383.714L361.972 382.481L362.456 381.944L363.233 382.391V382.424ZM375.998 400.993L366 395.215L366.002 393.596L376.004 399.363L375.998 400.993Z"
          fill="#A6A6A6"/>
    <path d="M455.804 286.647L382.022 244.45L381.993 244.436L308.165 286.657L381.993 328.871V328.861L455.804 286.647ZM381.725 326.58L358.151 313.107L311.908 286.657L381.725 246.724L451.542 286.657L405.3 313.107L381.725 326.58Z"
          fill="#A6A6A6"/>
    <path d="M381.724 246.725L311.907 286.658L358.151 313.108L381.724 299.624V246.725Z" fill="#7C7C7C"/>
    <path d="M381.725 299.623L358.151 313.106L381.725 326.579L405.3 313.106L381.725 299.623Z" fill="#A6A6A6"/>
    <path d="M423.742 366.199L381.992 330.865V330.877V413.315L455.819 371.095V347.957V347.852L423.742 366.199Z"
          fill="#919191"/>
    <path d="M381.725 299.624L405.3 313.108L451.542 286.658L381.725 246.725V299.624Z" fill="#6E6E6E"/>
    <path d="M381.994 328.87L308.165 286.656L305.297 289.077L298.669 294.686L266.415 321.986L340.244 364.205L381.994 328.87Z"
          fill="#7C7C7C"/>
    <path d="M340.243 364.207V366.213L381.993 330.879V330.867V328.871L340.243 364.207Z" fill="#6E6E6E"/>
    <path d="M340.244 364.206L266.415 321.986V323.988L308.165 347.863L340.244 366.212V364.206Z" fill="#B8B8B8"/>
    <path d="M455.825 286.647L455.819 286.639H455.813L455.803 286.647L381.992 328.86L423.742 364.196L497.567 321.972L458.708 289.082L455.847 286.669L455.825 286.647Z"
          fill="#7C7C7C"/>
    <path d="M381.992 328.861V328.871V330.867L423.742 366.201V364.197L381.992 328.861Z" fill="#6E6E6E"/>
    <path d="M423.743 364.196V366.2L455.82 347.853L471.779 338.727L474.531 337.153L497.567 323.981V321.973L423.743 364.196Z"
          fill="#B8B8B8"/>
    <path d="M365.997 395.213L375.998 400.992L376.004 399.363L365.999 393.596L365.997 395.213Z" fill="#161616"/>
    <path d="M367.231 393.73L369.273 394.91L369.294 388.893L370.016 389.316L368.274 384.977L366.519 387.29L367.243 387.711L367.231 393.73Z"
          fill="#161616"/>
    <path d="M372.733 396.912L374.782 398.096L374.796 392.074L375.52 392.487L373.779 388.152L372.025 390.473L372.749 390.895L372.733 396.912Z"
          fill="#161616"/>
    <path d="M361.972 382.483L362.576 383.716L362.114 383.748L362.572 384.944L361.525 383.39L361.712 383.325L360.546 380.841L357.696 379.195L357.68 383.512C357.678 385.133 358.735 387.09 360.103 388.077L359.96 391.501L358.662 390.754L358.253 391.078L362.611 393.598L362.202 392.797L360.904 392.044L360.784 388.464C362.153 389.066 363.219 388.337 363.225 386.704L363.233 382.428V382.395L362.456 381.948L361.972 382.483Z"
          fill="#161616"/>
    <path d="M316.222 370.281L330.003 378.195V366.557L316.222 358.629V370.281ZM317.077 362.152L329.146 369.106V370.273L317.077 363.328V362.152ZM317.077 364.962L329.146 371.907V373.076L317.077 366.135V364.962ZM317.077 367.46L329.146 374.401V375.577L317.077 368.627V367.46Z"
          fill="#B8B8B8"/>
    <path d="M329.146 374.402L317.077 367.459V368.629L329.146 375.578V374.402Z" fill="#ABABAB"/>
    <path d="M329.146 371.906L317.077 364.961V366.135L329.146 373.076V371.906Z" fill="#ABABAB"/>
    <path d="M329.146 369.104L317.077 362.152V363.326L329.146 370.271V369.104Z" fill="#ABABAB"/>
    <path d="M262.914 105.236L264.572 112.371L271.707 114.029L264.572 115.686L262.914 122.821L261.256 115.686L254.124 114.029L261.256 112.371L262.914 105.236Z"
          fill="#7C7C7C"/>
    <path d="M591.155 290.945L591.886 294.088L595.029 294.819L591.886 295.549L591.155 298.69L590.425 295.549L587.28 294.819L590.425 294.088L591.155 290.945Z"
          fill="white"/>
    <path d="M525.34 144.074L526.243 147.966L530.138 148.871L526.243 149.776L525.34 153.668L524.436 149.776L520.543 148.871L524.436 147.966L525.34 144.074Z"
          fill="#7C7C7C"/>
    <path d="M208.701 239.639L209.606 243.53L213.5 244.436L209.606 245.341L208.701 249.234L207.797 245.341L203.904 244.436L207.797 243.53L208.701 239.639Z"
          fill="#7C7C7C"/>
    <path d="M432.757 126.162L433.428 129.061L436.327 129.734L433.428 130.41L432.757 133.309L432.082 130.41L429.183 129.734L432.082 129.061L432.757 126.162Z"
          fill="#7C7C7C"/>
    <path d="M468.202 92.4492L468.875 95.3461L471.774 96.0194L468.875 96.6948L468.202 99.5937L467.529 96.6948L464.63 96.0194L467.529 95.3461L468.202 92.4492Z"
          fill="#7C7C7C"/>
    <path d="M249.328 333.631L250.231 337.52L254.124 338.426L250.231 339.333L249.328 343.225L248.424 339.333L244.531 338.426L248.424 337.52L249.328 333.631Z"
          fill="#7C7C7C"/>
    <path d="M329.329 507.314V514.114L323.761 507.314H321.617V518.514H324.177V511.714L329.761 518.514H331.889V507.314H329.329ZM339.963 518.706C343.483 518.706 346.091 516.258 346.091 512.914C346.091 509.57 343.483 507.122 339.963 507.122C336.427 507.122 333.835 509.586 333.835 512.914C333.835 516.242 336.427 518.706 339.963 518.706ZM339.963 516.498C337.963 516.498 336.459 515.042 336.459 512.914C336.459 510.786 337.963 509.33 339.963 509.33C341.963 509.33 343.467 510.786 343.467 512.914C343.467 515.042 341.963 516.498 339.963 516.498ZM357.418 507.314H352.57V518.514H355.162V515.426H357.418C360.41 515.426 362.282 513.874 362.282 511.378C362.282 508.866 360.41 507.314 357.418 507.314ZM357.274 513.314H355.162V509.426H357.274C358.858 509.426 359.658 510.146 359.658 511.378C359.658 512.594 358.858 513.314 357.274 513.314ZM374.053 518.514L371.541 514.914C372.997 514.29 373.845 513.058 373.845 511.378C373.845 508.866 371.973 507.314 368.981 507.314H364.133V518.514H366.725V515.394H368.981H369.109L371.269 518.514H374.053ZM371.221 511.378C371.221 512.594 370.421 513.33 368.837 513.33H366.725V509.426H368.837C370.421 509.426 371.221 510.146 371.221 511.378ZM381.322 518.706C384.842 518.706 387.45 516.258 387.45 512.914C387.45 509.57 384.842 507.122 381.322 507.122C377.786 507.122 375.194 509.586 375.194 512.914C375.194 516.242 377.786 518.706 381.322 518.706ZM381.322 516.498C379.322 516.498 377.818 515.042 377.818 512.914C377.818 510.786 379.322 509.33 381.322 509.33C383.322 509.33 384.826 510.786 384.826 512.914C384.826 515.042 383.322 516.498 381.322 516.498ZM389.398 518.514H394.486C398.15 518.514 400.662 516.306 400.662 512.914C400.662 509.522 398.15 507.314 394.486 507.314H389.398V518.514ZM391.99 516.386V509.442H394.358C396.582 509.442 398.038 510.77 398.038 512.914C398.038 515.058 396.582 516.386 394.358 516.386H391.99ZM407.593 518.706C410.777 518.706 412.665 516.882 412.665 513.586V507.314H410.105V513.49C410.105 515.618 409.193 516.498 407.609 516.498C406.041 516.498 405.113 515.618 405.113 513.49V507.314H402.521V513.586C402.521 516.882 404.409 518.706 407.593 518.706ZM420.586 518.706C422.538 518.706 424.154 518.002 425.21 516.706L423.546 515.17C422.794 516.05 421.85 516.498 420.73 516.498C418.634 516.498 417.146 515.026 417.146 512.914C417.146 510.802 418.634 509.33 420.73 509.33C421.85 509.33 422.794 509.778 423.546 510.642L425.21 509.106C424.154 507.826 422.538 507.122 420.602 507.122C417.114 507.122 414.522 509.538 414.522 512.914C414.522 516.29 417.114 518.706 420.586 518.706ZM429.171 518.514H431.763V509.426H435.347V507.314H425.587V509.426H429.171V518.514ZM440.344 518.706C443.544 518.706 445.096 517.106 445.096 515.234C445.096 511.122 438.584 512.546 438.584 510.482C438.584 509.778 439.176 509.202 440.712 509.202C441.704 509.202 442.776 509.49 443.816 510.082L444.616 508.114C443.576 507.458 442.136 507.122 440.728 507.122C437.544 507.122 436.008 508.706 436.008 510.61C436.008 514.77 442.52 513.33 442.52 515.426C442.52 516.114 441.896 516.626 440.36 516.626C439.016 516.626 437.608 516.146 436.664 515.458L435.784 517.41C436.776 518.178 438.568 518.706 440.344 518.706ZM459.766 518.514H462.486L457.478 507.314H454.918L449.926 518.514H452.582L453.574 516.114H458.774L459.766 518.514ZM454.406 514.146L456.182 509.858L457.958 514.146H454.406ZM463.648 518.514H468.736C472.4 518.514 474.912 516.306 474.912 512.914C474.912 509.522 472.4 507.314 468.736 507.314H463.648V518.514ZM466.24 516.386V509.442H468.608C470.832 509.442 472.288 510.77 472.288 512.914C472.288 515.058 470.832 516.386 468.608 516.386H466.24ZM476.867 518.514H481.955C485.619 518.514 488.131 516.306 488.131 512.914C488.131 509.522 485.619 507.314 481.955 507.314H476.867V518.514ZM479.459 516.386V509.442H481.827C484.051 509.442 485.507 510.77 485.507 512.914C485.507 515.058 484.051 516.386 481.827 516.386H479.459ZM492.662 516.434V513.842H497.862V511.826H492.662V509.394H498.55V507.314H490.086V518.514H498.758V516.434H492.662ZM500.82 518.514H505.908C509.572 518.514 512.084 516.306 512.084 512.914C512.084 509.522 509.572 507.314 505.908 507.314H500.82V518.514ZM503.412 516.386V509.442H505.78C508.004 509.442 509.46 510.77 509.46 512.914C509.46 515.058 508.004 516.386 505.78 516.386H503.412Z"
          fill="#5D5D5D" fill-opacity="0.8"/>
    <path d="M295.65 538.906C294.95 539.354 294.18 539.536 293.354 539.536C291.1 539.536 289.462 537.926 289.462 535.77C289.462 533.586 291.1 532.004 293.368 532.004C294.474 532.004 295.398 532.354 296.21 533.138L297.078 532.27C296.182 531.276 294.866 530.758 293.312 530.758C290.274 530.758 288.062 532.872 288.062 535.77C288.062 538.668 290.274 540.782 293.284 540.782C294.656 540.782 296.014 540.362 296.994 539.536V535.714H295.65V538.906ZM306.184 537.002C306.184 534.72 304.658 533.18 302.516 533.18C300.374 533.18 298.792 534.762 298.792 536.96C298.792 539.172 300.388 540.754 302.782 540.754C304.014 540.754 305.036 540.334 305.708 539.55L304.966 538.682C304.42 539.284 303.692 539.578 302.824 539.578C301.354 539.578 300.304 538.71 300.136 537.408H306.156C306.17 537.282 306.184 537.114 306.184 537.002ZM302.516 534.314C303.818 534.314 304.756 535.196 304.896 536.442H300.136C300.276 535.182 301.228 534.314 302.516 534.314ZM311.802 539.27C311.522 539.494 311.144 539.62 310.752 539.62C310.01 539.62 309.59 539.172 309.59 538.374V534.356H311.718V533.25H309.59V531.626H308.246V533.25H306.986V534.356H308.246V538.43C308.246 539.928 309.1 540.754 310.598 540.754C311.2 540.754 311.816 540.586 312.222 540.236L311.802 539.27ZM319.735 540.754C321.709 540.754 322.941 539.9 322.941 538.556C322.941 535.672 318.237 537.1 318.237 535.35C318.237 534.762 318.811 534.328 319.987 534.328C320.715 534.328 321.457 534.482 322.129 534.916L322.703 533.852C322.059 533.432 320.967 533.18 320.001 533.18C318.097 533.18 316.907 534.076 316.907 535.406C316.907 538.36 321.597 536.918 321.597 538.584C321.597 539.214 321.079 539.592 319.833 539.592C318.867 539.592 317.859 539.27 317.229 538.822L316.669 539.886C317.285 540.376 318.503 540.754 319.735 540.754ZM328.373 539.27C328.093 539.494 327.715 539.62 327.323 539.62C326.581 539.62 326.161 539.172 326.161 538.374V534.356H328.289V533.25H326.161V531.626H324.817V533.25H323.557V534.356H324.817V538.43C324.817 539.928 325.671 540.754 327.169 540.754C327.771 540.754 328.387 540.586 328.793 540.236L328.373 539.27ZM333.12 533.18C331.93 533.18 330.824 533.516 330.054 534.132L330.614 535.14C331.188 534.65 332.084 534.342 332.966 534.342C334.296 534.342 334.954 535 334.954 536.134V536.4H332.826C330.614 536.4 329.844 537.38 329.844 538.57C329.844 539.858 330.908 540.754 332.588 540.754C333.75 540.754 334.576 540.362 335.024 539.69V540.67H336.298V536.19C336.298 534.16 335.15 533.18 333.12 533.18ZM332.812 539.718C331.79 539.718 331.174 539.256 331.174 538.514C331.174 537.884 331.552 537.366 332.882 537.366H334.954V538.402C334.618 539.256 333.82 539.718 332.812 539.718ZM340.073 534.496V533.25H338.785V540.67H340.129V536.974C340.129 535.35 341.025 534.468 342.467 534.468C342.565 534.468 342.663 534.468 342.775 534.482V533.18C341.473 533.18 340.549 533.628 340.073 534.496ZM348.484 539.27C348.204 539.494 347.826 539.62 347.434 539.62C346.692 539.62 346.272 539.172 346.272 538.374V534.356H348.4V533.25H346.272V531.626H344.928V533.25H343.668V534.356H344.928V538.43C344.928 539.928 345.782 540.754 347.28 540.754C347.882 540.754 348.498 540.586 348.904 540.236L348.484 539.27ZM356.989 537.002C356.989 534.72 355.463 533.18 353.321 533.18C351.179 533.18 349.597 534.762 349.597 536.96C349.597 539.172 351.193 540.754 353.587 540.754C354.819 540.754 355.841 540.334 356.513 539.55L355.771 538.682C355.225 539.284 354.497 539.578 353.629 539.578C352.159 539.578 351.109 538.71 350.941 537.408H356.961C356.975 537.282 356.989 537.114 356.989 537.002ZM353.321 534.314C354.623 534.314 355.561 535.196 355.701 536.442H350.941C351.081 535.182 352.033 534.314 353.321 534.314ZM364.511 530.282V534.37C363.895 533.572 362.971 533.18 361.921 533.18C359.751 533.18 358.169 534.692 358.169 536.96C358.169 539.228 359.751 540.754 361.921 540.754C363.013 540.754 363.965 540.334 364.567 539.494V540.67H365.855V530.282H364.511ZM362.033 539.578C360.605 539.578 359.527 538.542 359.527 536.96C359.527 535.378 360.605 534.356 362.033 534.356C363.447 534.356 364.525 535.378 364.525 536.96C364.525 538.542 363.447 539.578 362.033 539.578ZM376.092 533.18C375.042 533.18 374.118 533.572 373.502 534.37V530.282H372.158V540.67H373.446V539.494C374.048 540.334 375 540.754 376.092 540.754C378.262 540.754 379.844 539.228 379.844 536.96C379.844 534.692 378.262 533.18 376.092 533.18ZM375.98 539.578C374.566 539.578 373.488 538.542 373.488 536.96C373.488 535.378 374.566 534.356 375.98 534.356C377.408 534.356 378.486 535.378 378.486 536.96C378.486 538.542 377.408 539.578 375.98 539.578ZM386.746 533.25L384.184 539.186L381.594 533.25H380.194L383.47 540.656L383.232 541.174C382.868 542.028 382.462 542.322 381.818 542.322C381.314 542.322 380.852 542.126 380.488 541.776L379.914 542.784C380.376 543.232 381.104 543.47 381.818 543.47C382.952 543.47 383.806 542.98 384.464 541.412L388.062 533.25H386.746ZM395.778 533.18C394.588 533.18 393.482 533.516 392.712 534.132L393.272 535.14C393.846 534.65 394.742 534.342 395.624 534.342C396.954 534.342 397.612 535 397.612 536.134V536.4H395.484C393.272 536.4 392.502 537.38 392.502 538.57C392.502 539.858 393.566 540.754 395.246 540.754C396.408 540.754 397.234 540.362 397.682 539.69V540.67H398.956V536.19C398.956 534.16 397.808 533.18 395.778 533.18ZM395.47 539.718C394.448 539.718 393.832 539.256 393.832 538.514C393.832 537.884 394.21 537.366 395.54 537.366H397.612V538.402C397.276 539.256 396.478 539.718 395.47 539.718ZM407.14 530.282V534.37C406.524 533.572 405.6 533.18 404.55 533.18C402.38 533.18 400.798 534.692 400.798 536.96C400.798 539.228 402.38 540.754 404.55 540.754C405.642 540.754 406.594 540.334 407.196 539.494V540.67H408.484V530.282H407.14ZM404.662 539.578C403.234 539.578 402.156 538.542 402.156 536.96C402.156 535.378 403.234 534.356 404.662 534.356C406.076 534.356 407.154 535.378 407.154 536.96C407.154 538.542 406.076 539.578 404.662 539.578ZM416.683 530.282V534.37C416.067 533.572 415.143 533.18 414.093 533.18C411.923 533.18 410.341 534.692 410.341 536.96C410.341 539.228 411.923 540.754 414.093 540.754C415.185 540.754 416.137 540.334 416.739 539.494V540.67H418.027V530.282H416.683ZM414.205 539.578C412.777 539.578 411.699 538.542 411.699 536.96C411.699 535.378 412.777 534.356 414.205 534.356C415.619 534.356 416.697 535.378 416.697 536.96C416.697 538.542 415.619 539.578 414.205 539.578ZM421.242 531.822C421.774 531.822 422.152 531.43 422.152 530.926C422.152 530.45 421.76 530.072 421.242 530.072C420.724 530.072 420.332 530.464 420.332 530.954C420.332 531.444 420.724 531.822 421.242 531.822ZM420.57 540.67H421.914V533.25H420.57V540.67ZM428.442 533.18C427.266 533.18 426.314 533.614 425.768 534.37V533.25H424.48V540.67H425.824V536.848C425.824 535.238 426.748 534.384 428.176 534.384C429.45 534.384 430.178 535.098 430.178 536.554V540.67H431.522V536.4C431.522 534.216 430.248 533.18 428.442 533.18ZM439.874 533.25V534.398C439.244 533.586 438.236 533.18 437.13 533.18C434.988 533.18 433.364 534.622 433.364 536.764C433.364 538.906 434.988 540.362 437.13 540.362C438.194 540.362 439.16 539.984 439.804 539.214V539.802C439.804 541.482 439.006 542.294 437.256 542.294C436.164 542.294 435.086 541.916 434.4 541.328L433.756 542.364C434.568 543.092 435.94 543.47 437.298 543.47C439.818 543.47 441.148 542.28 441.148 539.662V533.25H439.874ZM437.284 539.186C435.786 539.186 434.722 538.192 434.722 536.764C434.722 535.322 435.786 534.356 437.284 534.356C438.768 534.356 439.832 535.322 439.832 536.764C439.832 538.192 438.768 539.186 437.284 539.186ZM452.726 533.25L450.164 539.186L447.574 533.25H446.174L449.45 540.656L449.212 541.174C448.848 542.028 448.442 542.322 447.798 542.322C447.294 542.322 446.832 542.126 446.468 541.776L445.894 542.784C446.356 543.232 447.084 543.47 447.798 543.47C448.932 543.47 449.786 542.98 450.444 541.412L454.042 533.25H452.726ZM458.269 540.754C460.495 540.754 462.119 539.172 462.119 536.96C462.119 534.748 460.495 533.18 458.269 533.18C456.043 533.18 454.405 534.748 454.405 536.96C454.405 539.172 456.043 540.754 458.269 540.754ZM458.269 539.578C456.841 539.578 455.763 538.542 455.763 536.96C455.763 535.378 456.841 534.356 458.269 534.356C459.697 534.356 460.761 535.378 460.761 536.96C460.761 538.542 459.697 539.578 458.269 539.578ZM469.55 533.25V537.086C469.55 538.682 468.654 539.55 467.254 539.55C465.98 539.55 465.252 538.822 465.252 537.366V533.25H463.908V537.52C463.908 539.704 465.182 540.754 467.1 540.754C468.15 540.754 469.074 540.32 469.62 539.55V540.67H470.894V533.25H469.55ZM474.741 534.496V533.25H473.453V540.67H474.797V536.974C474.797 535.35 475.693 534.468 477.135 534.468C477.233 534.468 477.331 534.468 477.443 534.482V533.18C476.141 533.18 475.217 533.628 474.741 534.496ZM486.889 533.18C485.797 533.18 484.845 533.6 484.243 534.426V533.25H482.955V543.386H484.299V539.55C484.915 540.348 485.839 540.754 486.889 540.754C489.059 540.754 490.641 539.242 490.641 536.96C490.641 534.692 489.059 533.18 486.889 533.18ZM486.777 539.578C485.363 539.578 484.285 538.542 484.285 536.96C484.285 535.392 485.363 534.356 486.777 534.356C488.205 534.356 489.283 535.392 489.283 536.96C489.283 538.542 488.205 539.578 486.777 539.578ZM493.786 534.496V533.25H492.498V540.67H493.842V536.974C493.842 535.35 494.738 534.468 496.18 534.468C496.278 534.468 496.376 534.468 496.488 534.482V533.18C495.186 533.18 494.262 533.628 493.786 534.496ZM501.254 540.754C503.48 540.754 505.104 539.172 505.104 536.96C505.104 534.748 503.48 533.18 501.254 533.18C499.028 533.18 497.39 534.748 497.39 536.96C497.39 539.172 499.028 540.754 501.254 540.754ZM501.254 539.578C499.826 539.578 498.748 538.542 498.748 536.96C498.748 535.378 499.826 534.356 501.254 534.356C502.682 534.356 503.746 535.378 503.746 536.96C503.746 538.542 502.682 539.578 501.254 539.578ZM512.618 530.282V534.37C512.002 533.572 511.078 533.18 510.028 533.18C507.858 533.18 506.276 534.692 506.276 536.96C506.276 539.228 507.858 540.754 510.028 540.754C511.12 540.754 512.072 540.334 512.674 539.494V540.67H513.962V530.282H512.618ZM510.14 539.578C508.712 539.578 507.634 538.542 507.634 536.96C507.634 535.378 508.712 534.356 510.14 534.356C511.554 534.356 512.632 535.378 512.632 536.96C512.632 538.542 511.554 539.578 510.14 539.578ZM522.077 533.25V537.086C522.077 538.682 521.181 539.55 519.781 539.55C518.507 539.55 517.779 538.822 517.779 537.366V533.25H516.435V537.52C516.435 539.704 517.709 540.754 519.627 540.754C520.677 540.754 521.601 540.32 522.147 539.55V540.67H523.421V533.25H522.077ZM529.214 540.754C530.544 540.754 531.65 540.194 532.238 539.158L531.216 538.514C530.74 539.242 530.012 539.578 529.2 539.578C527.744 539.578 526.652 538.57 526.652 536.96C526.652 535.378 527.744 534.356 529.2 534.356C530.012 534.356 530.74 534.692 531.216 535.42L532.238 534.762C531.65 533.726 530.544 533.18 529.214 533.18C526.932 533.18 525.294 534.748 525.294 536.96C525.294 539.172 526.932 540.754 529.214 540.754ZM537.826 539.27C537.546 539.494 537.168 539.62 536.776 539.62C536.034 539.62 535.614 539.172 535.614 538.374V534.356H537.742V533.25H535.614V531.626H534.27V533.25H533.01V534.356H534.27V538.43C534.27 539.928 535.124 540.754 536.622 540.754C537.224 540.754 537.84 540.586 538.246 540.236L537.826 539.27ZM541.999 540.754C543.973 540.754 545.205 539.9 545.205 538.556C545.205 535.672 540.501 537.1 540.501 535.35C540.501 534.762 541.075 534.328 542.251 534.328C542.979 534.328 543.721 534.482 544.393 534.916L544.967 533.852C544.323 533.432 543.231 533.18 542.265 533.18C540.361 533.18 539.171 534.076 539.171 535.406C539.171 538.36 543.861 536.918 543.861 538.584C543.861 539.214 543.343 539.592 542.097 539.592C541.131 539.592 540.123 539.27 539.493 538.822L538.933 539.886C539.549 540.376 540.767 540.754 541.999 540.754Z"
          fill="#6B6B6B" fill-opacity="0.8"/>
</svg>
