<svg width="21" height="22" viewBox="0 0 21 22" fill="none" xmlns="http://www.w3.org/2000/svg">
    <path d="M10.2881 13.6618C11.7086 13.6618 12.8602 12.5102 12.8602 11.0897C12.8602 9.66914 11.7086 8.51758 10.2881 8.51758C8.86757 8.51758 7.716 9.66914 7.716 11.0897C7.716 12.5102 8.86757 13.6618 10.2881 13.6618Z"
          fill="#4E4E4E"/>
    <path d="M19.8946 10.8702C19.1383 8.91395 17.8253 7.22213 16.118 6.00391C14.4106 4.78568 12.3837 4.09444 10.2878 4.01562C8.19188 4.09444 6.16499 4.78568 4.45764 6.00391C2.7503 7.22213 1.43734 8.91395 0.681039 10.8702C0.629961 11.0115 0.629961 11.1662 0.681039 11.3075C1.43734 13.2638 2.7503 14.9556 4.45764 16.1738C6.16499 17.3921 8.19188 18.0833 10.2878 18.1621C12.3837 18.0833 14.4106 17.3921 16.118 16.1738C17.8253 14.9556 19.1383 13.2638 19.8946 11.3075C19.9456 11.1662 19.9456 11.0115 19.8946 10.8702ZM10.2878 15.2685C9.46114 15.2685 8.65305 15.0234 7.96571 14.5641C7.27837 14.1049 6.74266 13.4521 6.42631 12.6884C6.10996 11.9246 6.02719 11.0842 6.18846 10.2735C6.34974 9.4627 6.74781 8.71795 7.33234 8.13342C7.91688 7.54888 8.66162 7.15081 9.47239 6.98954C10.2832 6.82827 11.1236 6.91104 11.8873 7.22739C12.651 7.54373 13.3038 8.07945 13.7631 8.76679C14.2223 9.45413 14.4674 10.2622 14.4674 11.0889C14.4657 12.1969 14.0248 13.259 13.2414 14.0425C12.4579 14.8259 11.3958 15.2668 10.2878 15.2685Z"
          fill="#4E4E4E"/>
</svg>
