<svg width="8" height="11" viewBox="0 0 8 11" fill="none" xmlns="http://www.w3.org/2000/svg">
    <path d="M0.335571 2.14648V10.584C0.335532 10.6383 0.349624 10.6916 0.376462 10.7388C0.403299 10.7859 0.441957 10.8253 0.488629 10.853C0.535301 10.8807 0.588378 10.8957 0.642637 10.8967C0.696896 10.8976 0.750465 10.8844 0.798071 10.8584L4.08557 9.06461L7.37307 10.8584C7.42068 10.8844 7.47425 10.8976 7.52851 10.8967C7.58276 10.8957 7.63584 10.8807 7.68251 10.853C7.72919 10.8253 7.76784 10.7859 7.79468 10.7388C7.82152 10.6916 7.83561 10.6383 7.83557 10.584V2.14648C7.83557 1.81496 7.70388 1.49702 7.46945 1.2626C7.23503 1.02818 6.91709 0.896484 6.58557 0.896484H1.58557C1.25405 0.896484 0.936108 1.02818 0.701688 1.2626C0.467267 1.49702 0.335571 1.81496 0.335571 2.14648Z"
          fill="#272727"/>
</svg>
