<svg width="11" height="11" viewBox="0 0 11 11" fill="none" xmlns="http://www.w3.org/2000/svg">
    <path d="M3.05753 1.26207C3.05753 1.18014 3.02498 1.10155 2.96704 1.04361C2.9091 0.985675 2.83052 0.953125 2.74858 0.953125C2.66664 0.953125 2.58806 0.985675 2.53012 1.04361C2.47218 1.10155 2.43963 1.18014 2.43963 1.26207V1.57102H1.82173C1.49398 1.57102 1.17965 1.70122 0.947894 1.93298C0.716137 2.16474 0.585938 2.47906 0.585938 2.80682L0.585938 3.42472H10.4723V2.80682C10.4723 2.47906 10.3421 2.16474 10.1103 1.93298C9.87859 1.70122 9.56426 1.57102 9.23651 1.57102H8.61861V1.26207C8.61861 1.18014 8.58606 1.10155 8.52812 1.04361C8.47018 0.985675 8.3916 0.953125 8.30966 0.953125C8.22772 0.953125 8.14914 0.985675 8.0912 1.04361C8.03326 1.10155 8.00071 1.18014 8.00071 1.26207V1.57102H3.05753V1.26207ZM10.4723 9.60369V4.04261H0.585938V9.60369C0.585938 9.93145 0.716137 10.2458 0.947894 10.4775C1.17965 10.7093 1.49398 10.8395 1.82173 10.8395H9.23651C9.56426 10.8395 9.87859 10.7093 10.1103 10.4775C10.3421 10.2458 10.4723 9.93145 10.4723 9.60369ZM5.83807 6.20526V7.1321H6.76491C6.84685 7.1321 6.92544 7.16465 6.98338 7.22259C7.04131 7.28053 7.07386 7.35911 7.07386 7.44105C7.07386 7.52299 7.04131 7.60157 6.98338 7.65951C6.92544 7.71745 6.84685 7.75 6.76491 7.75H5.83807V8.67685C5.83807 8.75879 5.80552 8.83737 5.74758 8.89531C5.68964 8.95325 5.61106 8.9858 5.52912 8.9858C5.44718 8.9858 5.3686 8.95325 5.31066 8.89531C5.25272 8.83737 5.22017 8.75879 5.22017 8.67685V7.75H4.29332C4.21139 7.75 4.1328 7.71745 4.07486 7.65951C4.01693 7.60157 3.98438 7.52299 3.98438 7.44105C3.98438 7.35911 4.01693 7.28053 4.07486 7.22259C4.1328 7.16465 4.21139 7.1321 4.29332 7.1321H5.22017V6.20526C5.22017 6.12332 5.25272 6.04473 5.31066 5.9868C5.3686 5.92886 5.44718 5.89631 5.52912 5.89631C5.61106 5.89631 5.68964 5.92886 5.74758 5.9868C5.80552 6.04473 5.83807 6.12332 5.83807 6.20526Z"
          fill="#272727"/>
</svg>
