<svg width="11" height="11" viewBox="0 0 11 11" fill="none" xmlns="http://www.w3.org/2000/svg">
    <path d="M10.5 10.125C10.5 10.2156 10.4562 10.3032 10.3768 10.3715C10.2974 10.4398 10.1877 10.4842 10.068 10.4965L9.99999 10.5L0.999855 10.5C0.87317 10.5 0.751224 10.4639 0.658656 10.399C0.566087 10.3341 0.509799 10.2454 0.501163 10.1506C0.492528 10.0558 0.532191 9.96205 0.612137 9.88835C0.692083 9.81465 0.806352 9.76645 0.931855 9.7535L0.999855 9.75L9.99999 9.75C10.1326 9.75 10.2598 9.78951 10.3536 9.85983C10.4473 9.93016 10.5 10.0255 10.5 10.125ZM9.24198 5.605L9.30465 5.6465C9.41943 5.7326 9.48839 5.84715 9.49858 5.96866C9.50876 6.09017 9.45948 6.2103 9.35998 6.3065L9.30465 6.3535L5.9726 8.852C5.8578 8.93809 5.70506 8.9898 5.54304 8.99744C5.38102 9.00508 5.22085 8.96813 5.09258 8.8935L5.03058 8.852L1.69453 6.354C1.57228 6.26447 1.50052 6.14315 1.49409 6.01509C1.48766 5.88702 1.54703 5.762 1.65996 5.66582C1.77288 5.56964 1.93074 5.50966 2.10093 5.49825C2.27112 5.48683 2.44066 5.52487 2.57455 5.6045L2.63721 5.646L4.83325 7.2905L4.83325 1C4.83327 0.877533 4.89322 0.759331 5.00173 0.667814C5.11023 0.576296 5.25975 0.517828 5.42192 0.5035L5.49992 0.5C5.66322 0.500016 5.82082 0.544978 5.94285 0.626357C6.06487 0.707737 6.14283 0.819874 6.16193 0.9415L6.1666 1L6.1666 7.292L8.36197 5.6465C8.47676 5.56041 8.6295 5.5087 8.79152 5.50106C8.95354 5.49342 9.11371 5.53037 9.24198 5.605L9.30465 5.6465L9.24198 5.605Z"
          fill="white"/>
</svg>
