<svg width="13" height="13" viewBox="0 0 13 13" fill="none" xmlns="http://www.w3.org/2000/svg">
    <path d="M12.0879 6.54395C12.0879 8.1469 11.4511 9.6842 10.3177 10.8177C9.1842 11.9511 7.6469 12.5879 6.04395 12.5879C4.44099 12.5879 2.90369 11.9511 1.77023 10.8177C0.636771 9.6842 0 8.1469 0 6.54395C0 4.94099 0.636771 3.40369 1.77023 2.27023C2.90369 1.13677 4.44099 0.5 6.04395 0.5C7.6469 0.5 9.1842 1.13677 10.3177 2.27023C11.4511 3.40369 12.0879 4.94099 12.0879 6.54395ZM4.15219 5.05789H4.77547C4.87973 5.05789 4.96283 4.97252 4.97643 4.86902C5.04443 4.37341 5.3844 4.01229 5.99031 4.01229C6.50857 4.01229 6.98302 4.27142 6.98302 4.8947C6.98302 5.37444 6.70047 5.59505 6.25397 5.93049C5.74553 6.29992 5.34285 6.73131 5.37156 7.43165L5.37382 7.59559C5.37462 7.64516 5.39486 7.69243 5.4302 7.7272C5.46553 7.76197 5.51312 7.78145 5.5627 7.78144H6.1754C6.22549 7.78144 6.27353 7.76154 6.30895 7.72612C6.34438 7.6907 6.36427 7.64266 6.36427 7.59257V7.51324C6.36427 6.9708 6.57052 6.8129 7.12732 6.39058C7.58742 6.04079 8.06716 5.65246 8.06716 4.83729C8.06716 3.69574 7.10315 3.14423 6.04772 3.14423C5.09051 3.14423 4.04189 3.58997 3.97012 4.87128C3.96908 4.89568 3.97305 4.92003 3.98178 4.94284C3.9905 4.96565 4.0038 4.98643 4.02085 5.00391C4.03791 5.02139 4.05835 5.03519 4.08094 5.04448C4.10353 5.05376 4.12777 5.05832 4.15219 5.05789ZM5.90871 9.92553C6.36956 9.92553 6.68611 9.62787 6.68611 9.22519C6.68611 8.80816 6.36881 8.51503 5.90871 8.51503C5.4675 8.51503 5.14642 8.80816 5.14642 9.22519C5.14642 9.62787 5.4675 9.92553 5.90947 9.92553H5.90871Z"
          fill="#4E4E4E" fill-opacity="0.7"/>
</svg>
