<svg width="30" height="30" viewBox="0 0 30 30" fill="none" xmlns="http://www.w3.org/2000/svg">
    <rect width="30" height="30" rx="9" fill="#C4C4C4"/>
    <path d="M16.7024 8C17.6404 8 18.1094 8.6384 18.1094 9.3699C18.1094 10.2834 17.2946 11.1283 16.2341 11.1283C15.3458 11.1283 14.8278 10.6033 14.8523 9.7353C14.8523 9.0052 15.469 8 16.7024 8ZM13.8163 22C13.0757 22 12.5332 21.5436 13.0512 19.5332L13.901 15.9688C14.0487 15.399 14.0732 15.1701 13.901 15.1701C13.6791 15.1701 12.7187 15.5635 12.1496 15.952L11.78 15.336C13.5804 13.8058 15.6517 12.9091 16.5407 12.9091C17.2806 12.9091 17.4038 13.8002 17.0342 15.1701L16.0605 18.9165C15.8883 19.578 15.9618 19.8062 16.1347 19.8062C16.3566 19.8062 17.0846 19.5318 17.8 18.9613L18.22 19.5311C16.4686 21.314 14.5555 22 13.8163 22Z"
          fill="#4E4E4E"/>
</svg>
