<svg width="347" height="202" viewBox="0 0 347 202" fill="none" xmlns="http://www.w3.org/2000/svg">
<path opacity="0.8" d="M73.5271 176.021H75.3434V168.173H73.5271V176.021ZM87.3191 168.173V172.938L83.4174 168.173H81.915V176.021H83.7089V171.256L87.6218 176.021H89.113V168.173H87.3191ZM95.6788 176.021H99.2442C101.812 176.021 103.572 174.474 103.572 172.097C103.572 169.72 101.812 168.173 99.2442 168.173H95.6788V176.021ZM97.4952 174.53V169.664H99.1545C100.713 169.664 101.733 170.595 101.733 172.097C101.733 173.6 100.713 174.53 99.1545 174.53H97.4952ZM113.138 176.156C115.369 176.156 116.692 174.878 116.692 172.568V168.173H114.898V172.501C114.898 173.992 114.259 174.609 113.149 174.609C112.05 174.609 111.4 173.992 111.4 172.501V168.173H109.583V172.568C109.583 174.878 110.906 176.156 113.138 176.156ZM125.774 176.156C128.017 176.156 129.104 175.035 129.104 173.723C129.104 170.842 124.541 171.839 124.541 170.393C124.541 169.9 124.956 169.496 126.032 169.496C126.727 169.496 127.478 169.698 128.207 170.113L128.768 168.734C128.039 168.274 127.03 168.039 126.043 168.039C123.812 168.039 122.736 169.149 122.736 170.483C122.736 173.398 127.299 172.389 127.299 173.858C127.299 174.34 126.862 174.698 125.785 174.698C124.844 174.698 123.857 174.362 123.196 173.88L122.579 175.248C123.274 175.786 124.53 176.156 125.774 176.156ZM136.57 176.021H138.387V169.653H140.898V168.173H134.059V169.653H136.57V176.021ZM153.536 176.021L151.776 173.499C152.796 173.061 153.39 172.198 153.39 171.021C153.39 169.261 152.078 168.173 149.982 168.173H146.584V176.021H148.401V173.835H149.982H150.071L151.585 176.021H153.536ZM151.551 171.021C151.551 171.873 150.991 172.389 149.881 172.389H148.401V169.653H149.881C150.991 169.653 151.551 170.158 151.551 171.021ZM166.245 168.173H164.463L162.366 171.66L160.27 168.173H158.341L161.38 173.218V176.021H163.196V173.241L166.245 168.173ZM186.292 172.893H185.014V171.425H183.298V172.893H181.19L184.621 168.173H182.715L179.015 173.151V174.373H183.242V176.021H185.014V174.373H186.292V172.893ZM192.795 176.111C193.4 176.111 193.882 175.651 193.882 175.012C193.882 174.362 193.4 173.936 192.795 173.936C192.189 173.936 191.707 174.362 191.707 175.012C191.707 175.651 192.189 176.111 192.795 176.111ZM202.628 176.156C204.567 176.156 205.991 174.687 205.991 172.097C205.991 169.507 204.567 168.039 202.628 168.039C200.699 168.039 199.264 169.507 199.264 172.097C199.264 174.687 200.699 176.156 202.628 176.156ZM202.628 174.62C201.731 174.62 201.103 173.88 201.103 172.097C201.103 170.315 201.731 169.575 202.628 169.575C203.536 169.575 204.164 170.315 204.164 172.097C204.164 173.88 203.536 174.62 202.628 174.62ZM223.357 168.173H219.96V176.021H221.776V173.858H223.357C225.454 173.858 226.766 172.77 226.766 171.021C226.766 169.261 225.454 168.173 223.357 168.173ZM223.256 172.378H221.776V169.653H223.256C224.366 169.653 224.927 170.158 224.927 171.021C224.927 171.873 224.366 172.378 223.256 172.378ZM232.772 176.021H238.524V174.541H234.588V168.173H232.772V176.021ZM250.177 176.021H252.083L248.574 168.173H246.78L243.282 176.021H245.143L245.838 174.34H249.482L250.177 176.021ZM246.421 172.961L247.665 169.956L248.91 172.961H246.421ZM258.838 176.021H260.654V169.653H263.165V168.173H256.326V169.653H258.838V176.021ZM274.783 169.631V168.173H268.852V176.021H270.668V173.162H274.301V171.705H270.668V169.631H274.783ZM284.445 176.156C286.912 176.156 288.74 174.441 288.74 172.097C288.74 169.754 286.912 168.039 284.445 168.039C281.968 168.039 280.151 169.765 280.151 172.097C280.151 174.429 281.968 176.156 284.445 176.156ZM284.445 174.609C283.044 174.609 281.99 173.588 281.99 172.097C281.99 170.606 283.044 169.586 284.445 169.586C285.847 169.586 286.901 170.606 286.901 172.097C286.901 173.588 285.847 174.609 284.445 174.609ZM301.765 176.021L300.004 173.499C301.025 173.061 301.619 172.198 301.619 171.021C301.619 169.261 300.307 168.173 298.211 168.173H294.813V176.021H296.63V173.835H298.211H298.3L299.814 176.021H301.765ZM299.78 171.021C299.78 171.873 299.22 172.389 298.11 172.389H296.63V169.653H298.11C299.22 169.653 299.78 170.158 299.78 171.021ZM316.613 176.021L316.591 168.173H315.1L312.207 173.05L309.27 168.173H307.767V176.021H309.471V171.413L311.77 175.192H312.588L314.898 171.312L314.909 176.021H316.613Z" fill="#72ADAA"/>
<g filter="url(#filter0_i_740_15990)">
<path fill-rule="evenodd" clip-rule="evenodd" d="M84.386 161.058C82.9113 160.897 81.4579 160.666 80.0291 160.369C81.4618 160.656 82.9149 160.887 84.386 161.058ZM116.368 161.331H308.996C329.963 161.331 346.961 144.454 346.962 123.635V71.0664C346.962 54.4072 333.361 40.9023 316.582 40.9023H118.125C140.278 40.9023 158.236 58.8603 158.236 81.0126V116.598C158.236 140.362 139.746 159.806 116.368 161.331Z" fill="#5FA8A3"/>
</g>
<g clip-path="url(#clip0_740_15990)">
<path d="M228.954 81.3251L222.398 98.9188L215.884 81.3251H212.523L205.883 98.8358L199.493 81.3251H195.717L203.892 103.317H207.709L214.141 86.6364L220.49 103.317H224.307L232.523 81.3251H228.954ZM238.557 77.0926C240.134 77.0926 241.254 75.9308 241.254 74.4369C241.254 73.0261 240.092 71.9058 238.557 71.9058C237.022 71.9058 235.86 73.0676 235.86 74.5199C235.86 75.9723 237.022 77.0926 238.557 77.0926ZM236.565 103.317H240.549V81.3251H236.565V103.317ZM254.462 103.566C260.312 103.566 263.964 101.035 263.964 97.0516C263.964 88.5037 250.022 92.7361 250.022 87.5493C250.022 85.8065 251.723 84.5201 255.209 84.5201C257.366 84.5201 259.566 84.9766 261.557 86.263L263.259 83.1094C261.35 81.8646 258.113 81.1176 255.25 81.1176C249.607 81.1176 246.08 83.7733 246.08 87.7153C246.08 96.4707 259.981 92.1967 259.981 97.1346C259.981 99.0019 258.445 100.122 254.752 100.122C251.889 100.122 248.902 99.1678 247.034 97.84L245.374 100.994C247.2 102.446 250.81 103.566 254.462 103.566ZM288.819 92.4457C288.819 85.682 284.296 81.1176 277.947 81.1176C271.598 81.1176 266.909 85.8065 266.909 92.3211C266.909 98.8773 271.64 103.566 278.735 103.566C282.387 103.566 285.416 102.321 287.408 99.9977L285.208 97.4251C283.59 99.2093 281.432 100.081 278.86 100.081C274.503 100.081 271.391 97.5081 270.893 93.649H288.736C288.777 93.2756 288.819 92.7776 288.819 92.4457ZM277.947 84.4787C281.806 84.4787 284.586 87.0929 285.001 90.7859H270.893C271.308 87.0514 274.129 84.4787 277.947 84.4787ZM298.167 85.0181V81.3251H294.35V103.317H298.333V92.3627C298.333 87.5493 300.989 84.9351 305.263 84.9351C305.554 84.9351 305.844 84.9351 306.176 84.9766V81.1176C302.317 81.1176 299.578 82.4455 298.167 85.0181Z" fill="#3F3F3F"/>
<path d="M214.055 109.903C211.897 109.903 210.273 110.971 209.546 112.595C208.948 110.821 207.474 109.903 205.465 109.903C203.436 109.903 201.919 110.821 201.192 112.381V109.988H200.167V121.141H201.235V115.201C201.235 112.552 202.795 110.864 205.316 110.864C207.495 110.864 208.799 112.189 208.799 114.71V121.141H209.867V115.201C209.867 112.552 211.427 110.864 213.948 110.864C216.127 110.864 217.431 112.189 217.431 114.71V121.141H218.499V114.625C218.499 111.505 216.747 109.903 214.055 109.903ZM226.67 109.903C224.94 109.903 223.316 110.501 222.205 111.484L222.739 112.253C223.658 111.42 225.047 110.843 226.585 110.843C228.764 110.843 229.897 111.954 229.897 114.026V114.924H226.072C222.974 114.924 221.906 116.355 221.906 118.043C221.906 119.945 223.423 121.227 225.923 121.227C227.867 121.227 229.234 120.436 229.94 119.154V121.141H230.965V114.069C230.965 111.313 229.427 109.903 226.67 109.903ZM226.072 120.351C224.107 120.351 222.974 119.453 222.974 118.001C222.974 116.719 223.786 115.757 226.094 115.757H229.897V117.851C229.256 119.453 227.952 120.351 226.072 120.351ZM239.81 121.227C241.584 121.227 243.122 120.522 244.041 119.176L243.25 118.599C242.439 119.731 241.199 120.265 239.81 120.265C237.182 120.265 235.259 118.385 235.259 115.565C235.259 112.744 237.182 110.864 239.81 110.864C241.199 110.864 242.439 111.398 243.25 112.531L244.041 111.954C243.122 110.586 241.584 109.903 239.81 109.903C236.541 109.903 234.17 112.232 234.17 115.565C234.17 118.877 236.541 121.227 239.81 121.227ZM252.5 109.903C250.427 109.903 248.889 110.8 248.12 112.317V105.288H247.052V121.141H248.12V115.201C248.12 112.552 249.722 110.864 252.35 110.864C254.615 110.864 255.961 112.189 255.961 114.71V121.141H257.03V114.625C257.03 111.505 255.213 109.903 252.5 109.903ZM261.962 107.275C262.453 107.275 262.838 106.89 262.838 106.399C262.838 105.929 262.453 105.544 261.962 105.544C261.471 105.544 261.086 105.95 261.086 106.42C261.086 106.89 261.471 107.275 261.962 107.275ZM261.428 121.141H262.496V109.988H261.428V121.141ZM272.447 109.903C270.332 109.903 268.772 110.843 268.024 112.403V109.988H266.999V121.141H268.067V115.201C268.067 112.552 269.67 110.864 272.298 110.864C274.563 110.864 275.909 112.189 275.909 114.71V121.141H276.977V114.625C276.977 111.505 275.161 109.903 272.447 109.903ZM290.84 115.522C290.84 112.21 288.575 109.903 285.52 109.903C282.464 109.903 280.178 112.253 280.178 115.565C280.178 118.877 282.55 121.227 285.926 121.227C287.614 121.227 289.152 120.607 290.135 119.411L289.515 118.706C288.661 119.753 287.357 120.265 285.947 120.265C283.276 120.265 281.332 118.471 281.225 115.821H290.819C290.819 115.714 290.84 115.607 290.84 115.522ZM285.52 110.843C287.891 110.843 289.644 112.574 289.793 114.988H281.247C281.418 112.552 283.148 110.843 285.52 110.843ZM296.965 121.227C299.807 121.227 301.367 119.988 301.367 118.171C301.367 113.92 293.974 116.291 293.974 112.937C293.974 111.74 294.936 110.843 297.115 110.843C298.311 110.843 299.529 111.163 300.47 111.847L300.96 110.992C300.085 110.33 298.547 109.903 297.136 109.903C294.316 109.903 292.905 111.27 292.905 112.958C292.905 117.338 300.298 114.945 300.298 118.193C300.298 119.453 299.358 120.287 297.008 120.287C295.363 120.287 293.846 119.667 292.992 118.941L292.5 119.795C293.376 120.607 295.128 121.227 296.965 121.227ZM304.938 121.256C305.595 121.256 306.137 120.713 306.137 120.028C306.137 119.343 305.595 118.829 304.938 118.829C304.281 118.829 303.739 119.343 303.739 120.028C303.739 120.713 304.281 121.256 304.938 121.256Z" fill="#3F3F3F"/>
</g>
<g filter="url(#filter1_d_740_15990)">
<g filter="url(#filter2_d_740_15990)">
<path d="M122.471 40.8882H63.9094C49.0691 40.8882 37.0378 52.7899 37.0378 67.4701V111.468C37.0378 139.006 59.6061 161.331 87.444 161.331H117.373C140.248 161.331 158.792 142.987 158.792 120.358V76.8188C158.792 56.9759 142.531 40.8882 122.471 40.8882ZM51.5432 51.3376C55.0906 48.6428 59.4642 47.231 63.9371 47.231H103.01C104.176 47.231 105.041 48.3029 104.782 49.4282L95.9134 88.0117L78.8491 72.4533C77.7802 71.4784 76.3106 71.1456 74.9184 71.5653C73.5264 71.9846 72.4942 73.0696 72.1549 74.4697L66.5852 97.4789L56.101 88.8405C55.0366 87.9249 53.5495 87.6198 52.2026 88.045L45.5919 90.135C44.5318 90.4707 43.4468 89.6882 43.4468 88.586V67.4701C43.4497 61.1535 46.3567 55.2778 51.5432 51.3376ZM56.3365 142.242C52.2934 138.242 49.1203 133.588 46.905 128.406C44.6122 123.044 43.4497 117.347 43.4497 111.468V98.2556C43.4497 97.1896 44.1458 96.2465 45.1723 95.921L53.1341 93.4042L64.7502 102.976C65.5017 103.625 66.4391 103.966 67.4012 103.966C67.8061 103.966 68.2171 103.906 68.6192 103.781C69.9981 103.357 71.0232 102.274 71.3594 100.884L76.8985 77.9977L93.9876 93.5792C95.0476 94.5454 96.5626 94.8839 97.94 94.4602C99.3174 94.0362 100.372 92.9096 100.69 91.518L110.293 49.7378C110.629 48.271 111.948 47.231 113.468 47.231H122.469C126.509 47.231 130.426 48.0121 134.11 49.5541C137.67 51.0438 140.87 53.1789 143.619 55.8983C146.368 58.6176 148.526 61.7825 150.032 65.3049C151.59 68.9487 152.38 72.8223 152.38 76.8202V104.091C152.38 105.109 151.715 106.01 150.734 106.32L141.817 109.139L130.201 99.5677C129.132 98.6447 127.691 98.344 126.332 98.762C124.953 99.1859 123.928 100.269 123.592 101.659L118.053 124.546L100.965 108.967C99.9052 108.001 98.3904 107.662 97.013 108.086C95.6356 108.51 94.5813 109.637 94.261 111.028L84.6803 152.712C84.3923 153.967 83.189 154.812 81.8978 154.651C77.9132 154.158 74.0367 153.13 70.3198 151.575C65.085 149.379 60.3781 146.24 56.3365 142.242ZM149.633 133.836C147.87 137.959 145.346 141.663 142.127 144.846C138.91 148.028 135.166 150.526 130.998 152.27C126.686 154.074 122.102 154.99 117.375 154.99H91.7619C90.7267 154.99 89.9591 154.039 90.1887 153.04L99.0396 114.532L116.105 130.089C117.174 131.063 118.644 131.396 120.036 130.977C121.428 130.557 122.46 129.472 122.8 128.072L128.369 105.061L138.853 113.7C139.918 114.616 141.404 114.921 142.752 114.495L151.012 111.884C151.69 111.67 152.383 112.171 152.383 112.875V120.357C152.382 125.036 151.456 129.571 149.633 133.836Z" fill="#84CBC6"/>
</g>
</g>
<defs>
<filter id="filter0_i_740_15990" x="80.0291" y="40.9023" width="266.933" height="122.429" filterUnits="userSpaceOnUse" color-interpolation-filters="sRGB">
<feFlood flood-opacity="0" result="BackgroundImageFix"/>
<feBlend mode="normal" in="SourceGraphic" in2="BackgroundImageFix" result="shape"/>
<feColorMatrix in="SourceAlpha" type="matrix" values="0 0 0 0 0 0 0 0 0 0 0 0 0 0 0 0 0 0 127 0" result="hardAlpha"/>
<feOffset dy="2"/>
<feGaussianBlur stdDeviation="8"/>
<feComposite in2="hardAlpha" operator="arithmetic" k2="-1" k3="1"/>
<feColorMatrix type="matrix" values="0 0 0 0 0 0 0 0 0 0 0 0 0 0 0 0 0 0 0.15 0"/>
<feBlend mode="normal" in2="shape" result="effect1_innerShadow_740_15990"/>
</filter>
<filter id="filter1_d_740_15990" x="0.6366" y="0.448238" width="202.635" height="201.323" filterUnits="userSpaceOnUse" color-interpolation-filters="sRGB">
<feFlood flood-opacity="0" result="BackgroundImageFix"/>
<feColorMatrix in="SourceAlpha" type="matrix" values="0 0 0 0 0 0 0 0 0 0 0 0 0 0 0 0 0 0 127 0" result="hardAlpha"/>
<feOffset dx="4.0387"/>
<feGaussianBlur stdDeviation="20.22"/>
<feColorMatrix type="matrix" values="0 0 0 0 0 0 0 0 0 0 0 0 0 0 0 0 0 0 0.25 0"/>
<feBlend mode="normal" in2="BackgroundImageFix" result="effect1_dropShadow_740_15990"/>
<feBlend mode="normal" in="SourceGraphic" in2="effect1_dropShadow_740_15990" result="shape"/>
</filter>
<filter id="filter2_d_740_15990" x="33.0378" y="29.8882" width="143.755" height="142.443" filterUnits="userSpaceOnUse" color-interpolation-filters="sRGB">
<feFlood flood-opacity="0" result="BackgroundImageFix"/>
<feColorMatrix in="SourceAlpha" type="matrix" values="0 0 0 0 0 0 0 0 0 0 0 0 0 0 0 0 0 0 127 0" result="hardAlpha"/>
<feOffset dx="7"/>
<feGaussianBlur stdDeviation="5.5"/>
<feComposite in2="hardAlpha" operator="out"/>
<feColorMatrix type="matrix" values="0 0 0 0 0 0 0 0 0 0 0 0 0 0 0 0 0 0 0.25 0"/>
<feBlend mode="normal" in2="BackgroundImageFix" result="effect1_dropShadow_740_15990"/>
<feBlend mode="normal" in="SourceGraphic" in2="effect1_dropShadow_740_15990" result="shape"/>
</filter>
<clipPath id="clip0_740_15990">
<rect width="113.061" height="49.8234" fill="white" transform="translate(195.038 71.7881)"/>
</clipPath>
</defs>
</svg>
