<svg width="182" height="78" viewBox="0 0 182 78" fill="none" xmlns="http://www.w3.org/2000/svg">
    <g filter="url(#filter0_dd_9_906)">
        <path d="M156.201 69.9424H30.1206C15.6943 69.9424 4 58.3554 4 44.0627V15.1029C3.99938 7.28178 10.3984 0.942383 18.2917 0.942383H160.557C170.19 0.942383 178 8.68004 178 18.225V48.3445C177.999 60.2726 168.24 69.9424 156.201 69.9424Z"
              fill="#4E4E4E"/>
        <path d="M105.196 20.9337L100.602 33.2606L96.0377 20.9337H93.6828L89.0311 33.2024L84.5539 20.9337H81.9083L87.6357 36.3423H90.3103L94.8166 24.655L99.2647 36.3423H101.939L107.696 20.9337H105.196ZM111.923 17.9683C113.028 17.9683 113.813 17.1543 113.813 16.1077C113.813 15.1192 112.999 14.3342 111.923 14.3342C110.848 14.3342 110.034 15.1483 110.034 16.1658C110.034 17.1834 110.848 17.9683 111.923 17.9683ZM110.528 36.3423H113.319V20.9337H110.528V36.3423ZM123.067 36.5167C127.166 36.5167 129.725 34.7433 129.725 31.9523C129.725 25.9633 119.956 28.9287 119.956 25.2946C119.956 24.0736 121.148 23.1723 123.59 23.1723C125.102 23.1723 126.643 23.4921 128.038 24.3934L129.23 22.1839C127.893 21.3117 125.625 20.7884 123.619 20.7884C119.665 20.7884 117.194 22.649 117.194 25.4109C117.194 31.5453 126.934 28.5508 126.934 32.0104C126.934 33.3187 125.858 34.1037 123.27 34.1037C121.264 34.1037 119.171 33.435 117.863 32.5047L116.7 34.7142C117.979 35.7318 120.509 36.5167 123.067 36.5167ZM147.138 28.7252C147.138 23.9864 143.97 20.7884 139.521 20.7884C135.073 20.7884 131.788 24.0736 131.788 28.638C131.788 33.2315 135.102 36.5167 140.074 36.5167C142.632 36.5167 144.754 35.6445 146.15 34.0165L144.609 32.214C143.475 33.4641 141.963 34.0746 140.161 34.0746C137.108 34.0746 134.928 32.2721 134.579 29.5683H147.08C147.109 29.3067 147.138 28.9578 147.138 28.7252ZM139.521 23.1433C142.225 23.1433 144.173 24.9748 144.464 27.5623H134.579C134.87 24.9458 136.847 23.1433 139.521 23.1433ZM153.689 23.5212V20.9337H151.014V36.3423H153.805V28.6671C153.805 25.2946 155.666 23.4631 158.66 23.4631C158.864 23.4631 159.067 23.4631 159.3 23.4921V20.7884C156.596 20.7884 154.677 21.7187 153.689 23.5212Z"
              fill="white"/>
        <path d="M94.7573 40.6834C93.2453 40.6834 92.1076 41.4319 91.5986 42.5696C91.1794 41.3271 90.1465 40.6834 88.7393 40.6834C87.3172 40.6834 86.2543 41.3271 85.7453 42.4199V40.7433H85.0268V48.5576H85.7753V44.396C85.7753 42.5397 86.8681 41.357 88.6345 41.357C90.1615 41.357 91.0746 42.2852 91.0746 44.0516V48.5576H91.8231V44.396C91.8231 42.5397 92.9159 41.357 94.6824 41.357C96.2093 41.357 97.1225 42.2852 97.1225 44.0516V48.5576H97.871V43.9918C97.871 41.8061 96.6435 40.6834 94.7573 40.6834ZM103.596 40.6834C102.384 40.6834 101.246 41.1026 100.468 41.7912L100.842 42.3301C101.486 41.7463 102.459 41.3421 103.536 41.3421C105.063 41.3421 105.857 42.1205 105.857 43.5726V44.2013H103.177C101.007 44.2013 100.258 45.2043 100.258 46.387C100.258 47.7193 101.321 48.6175 103.072 48.6175C104.435 48.6175 105.393 48.0636 105.887 47.1654V48.5576H106.605V43.6025C106.605 41.6714 105.527 40.6834 103.596 40.6834ZM103.177 48.0037C101.8 48.0037 101.007 47.375 101.007 46.357C101.007 45.4588 101.575 44.7852 103.192 44.7852H105.857V46.2522C105.408 47.375 104.495 48.0037 103.177 48.0037ZM112.803 48.6175C114.045 48.6175 115.123 48.1235 115.767 47.1804L115.213 46.7762C114.644 47.5696 113.776 47.9438 112.803 47.9438C110.961 47.9438 109.614 46.6265 109.614 44.6504C109.614 42.6744 110.961 41.357 112.803 41.357C113.776 41.357 114.644 41.7313 115.213 42.5247L115.767 42.1205C115.123 41.1624 114.045 40.6834 112.803 40.6834C110.512 40.6834 108.851 42.3151 108.851 44.6504C108.851 46.9708 110.512 48.6175 112.803 48.6175ZM121.693 40.6834C120.241 40.6834 119.163 41.3121 118.624 42.375V37.4499H117.876V48.5576H118.624V44.396C118.624 42.5397 119.747 41.357 121.589 41.357C123.175 41.357 124.118 42.2852 124.118 44.0516V48.5576H124.867V43.9918C124.867 41.8061 123.594 40.6834 121.693 40.6834ZM128.323 38.8421C128.667 38.8421 128.937 38.5726 128.937 38.2283C128.937 37.899 128.667 37.6295 128.323 37.6295C127.978 37.6295 127.709 37.914 127.709 38.2433C127.709 38.5726 127.978 38.8421 128.323 38.8421ZM127.949 48.5576H128.697V40.7433H127.949V48.5576ZM135.669 40.6834C134.187 40.6834 133.094 41.3421 132.57 42.4349V40.7433H131.852V48.5576H132.6V44.396C132.6 42.5397 133.723 41.357 135.564 41.357C137.151 41.357 138.094 42.2852 138.094 44.0516V48.5576H138.843V43.9918C138.843 41.8061 137.57 40.6834 135.669 40.6834ZM148.556 44.6205C148.556 42.3002 146.969 40.6834 144.828 40.6834C142.688 40.6834 141.086 42.3301 141.086 44.6504C141.086 46.9708 142.747 48.6175 145.113 48.6175C146.295 48.6175 147.373 48.1834 148.062 47.345L147.628 46.851C147.029 47.5846 146.116 47.9438 145.128 47.9438C143.256 47.9438 141.894 46.6864 141.819 44.8301H148.541C148.541 44.7552 148.556 44.6804 148.556 44.6205ZM144.828 41.3421C146.49 41.3421 147.717 42.5546 147.822 44.2463H141.834C141.954 42.5397 143.167 41.3421 144.828 41.3421ZM152.847 48.6175C154.838 48.6175 155.931 47.7492 155.931 46.4768C155.931 43.4978 150.752 45.1594 150.752 42.8091C150.752 41.9708 151.425 41.3421 152.952 41.3421C153.79 41.3421 154.644 41.5666 155.302 42.0457L155.647 41.4469C155.033 40.9828 153.955 40.6834 152.967 40.6834C150.991 40.6834 150.003 41.6415 150.003 42.8241C150.003 45.893 155.183 44.2163 155.183 46.4918C155.183 47.375 154.524 47.9588 152.877 47.9588C151.725 47.9588 150.662 47.5247 150.063 47.0157L149.719 47.6145C150.332 48.1834 151.56 48.6175 152.847 48.6175ZM158.433 48.6376C158.893 48.6376 159.273 48.2576 159.273 47.7776C159.273 47.2976 158.893 46.9376 158.433 46.9376C157.973 46.9376 157.593 47.2976 157.593 47.7776C157.593 48.2576 157.973 48.6376 158.433 48.6376Z"
              fill="white"/>
        <path d="M31.151 25.8047L28.8384 35.3752C28.6845 36.0122 28.2149 36.5089 27.5852 36.7029C27.4017 36.7597 27.214 36.7876 27.0287 36.7876C26.5889 36.7876 26.1606 36.6314 25.8174 36.3348L20.9169 32.2905L17.5862 33.3451L31.151 25.8047ZM31.151 25.8047L38.2832 32.3179L38.2832 32.3179C38.7682 32.7606 39.4603 32.9154 40.09 32.7214C40.7196 32.5273 41.202 32.0115 41.348 31.3731L31.151 25.8047ZM58.8985 54.1243L58.8106 54.0355C60.1718 52.6875 61.2389 51.1186 61.9847 49.3726C61.9847 49.3726 61.9847 49.3726 61.9847 49.3726L62.0996 49.4217L58.8985 54.1243ZM58.8985 54.1243L58.8106 54.0355C57.45 55.3836 55.8663 56.4417 54.1038 57.1806C52.2802 57.9446 50.3416 58.3325 48.3418 58.3325H37.4183C37.0556 58.3325 36.7895 57.9997 36.8692 57.6525L40.5961 41.4123L47.7162 47.9131C48.2047 48.3593 48.8772 48.5117 49.5129 48.3198C50.1486 48.128 50.6217 47.6305 50.7769 46.9889L50.7769 46.9888L53.1054 37.3539L57.4207 40.915C57.421 40.9153 57.4214 40.9156 57.4217 40.9159C57.9086 41.3346 58.5868 41.4738 59.2025 41.2793L59.2026 41.2793L62.7254 40.164L58.8985 54.1243ZM42.8493 13.3382L42.8493 13.3382L39.1149 29.6106L31.9954 23.1092C31.5069 22.663 30.8344 22.5106 30.1987 22.7025C29.5629 22.8944 29.0898 23.3918 28.9346 24.0335L28.9346 24.0335L26.6062 33.6678L22.2909 30.1067C22.2906 30.1065 22.2902 30.1062 22.2899 30.1059C21.8031 29.6871 21.1242 29.5479 20.509 29.7424L20.509 29.7424L17.6896 30.6353L17.6895 30.6353C17.3164 30.7536 16.9375 30.4773 16.9375 30.0927V21.073C16.9375 21.073 16.9375 21.073 16.9375 21.073C16.9387 18.4142 18.1599 15.941 20.3412 14.2813C21.8314 13.1474 23.6698 12.5526 25.5513 12.5526H42.2153C42.634 12.5526 42.9414 12.9372 42.8493 13.3382ZM41.3481 31.373L45.4434 13.5264L45.4434 13.5263C45.5736 12.9574 46.085 12.5526 46.6755 12.5526H50.5145C52.2212 12.5526 53.8755 12.8831 55.4309 13.5352L55.4792 13.42L55.4309 13.5352C56.9346 14.1654 58.2856 15.0684 59.4467 16.2188C60.6077 17.3691 61.519 18.7076 62.1549 20.1971C62.8124 21.7379 63.1464 23.3758 63.1464 25.0669V36.7157C63.1464 37.0955 62.8986 37.4327 62.5315 37.5487L62.5315 37.5487L58.7934 38.7324L53.894 34.6891C53.8936 34.6887 53.8932 34.6884 53.8929 34.6881C53.4043 34.2663 52.7451 34.129 52.1253 34.32C51.4955 34.5139 51.0258 35.0106 50.8719 35.6477L48.5593 45.2182L41.4277 38.7063L41.4277 38.7062C40.9428 38.2636 40.2506 38.1088 39.621 38.3028C38.9913 38.4969 38.509 39.0127 38.3623 39.651L38.3623 39.6511L34.2763 57.4564L34.2763 57.4564C34.1678 57.9302 33.7139 58.2495 33.2268 58.1889L33.2267 58.1889C31.5387 57.9796 29.8966 57.5432 28.3219 56.8835C26.104 55.9517 24.11 54.6199 22.3977 52.9234C20.6848 51.2262 19.3407 49.2514 18.4023 47.0531L18.2873 47.1022L18.4023 47.0531C17.4311 44.7783 16.9387 42.3612 16.9387 39.8669V34.2232C16.9387 33.823 17.1996 33.4679 17.5861 33.3451L41.3481 31.373ZM50.5151 9.59326H25.5395C19.1424 9.59326 13.9541 14.732 13.9541 21.073V39.8669C13.9541 51.7001 23.6362 61.2913 35.5768 61.2913H48.3412C58.1651 61.2913 66.131 53.4005 66.131 43.6643V25.0663C66.131 16.5202 59.1386 9.59326 50.5151 9.59326Z"
              fill="white" stroke="#4E4E4E" stroke-width="0.25"/>
    </g>
    <defs>
        <filter id="filter0_dd_9_906" x="0" y="0.942383" width="182" height="77" filterUnits="userSpaceOnUse"
                color-interpolation-filters="sRGB">
            <feFlood flood-opacity="0" result="BackgroundImageFix"/>
            <feColorMatrix in="SourceAlpha" type="matrix" values="0 0 0 0 0 0 0 0 0 0 0 0 0 0 0 0 0 0 127 0"
                           result="hardAlpha"/>
            <feOffset dy="4"/>
            <feGaussianBlur stdDeviation="2"/>
            <feComposite in2="hardAlpha" operator="out"/>
            <feColorMatrix type="matrix" values="0 0 0 0 0 0 0 0 0 0 0 0 0 0 0 0 0 0 0.25 0"/>
            <feBlend mode="normal" in2="BackgroundImageFix" result="effect1_dropShadow_9_906"/>
            <feColorMatrix in="SourceAlpha" type="matrix" values="0 0 0 0 0 0 0 0 0 0 0 0 0 0 0 0 0 0 127 0"
                           result="hardAlpha"/>
            <feOffset dy="4"/>
            <feGaussianBlur stdDeviation="2"/>
            <feComposite in2="hardAlpha" operator="out"/>
            <feColorMatrix type="matrix" values="0 0 0 0 0 0 0 0 0 0 0 0 0 0 0 0 0 0 0.25 0"/>
            <feBlend mode="normal" in2="effect1_dropShadow_9_906" result="effect2_dropShadow_9_906"/>
            <feBlend mode="normal" in="SourceGraphic" in2="effect2_dropShadow_9_906" result="shape"/>
        </filter>
    </defs>
</svg>
