<svg width="317" height="149" viewBox="0 0 317 149" fill="none" xmlns="http://www.w3.org/2000/svg">
<g filter="url(#filter0_i_59_122)">
<path d="M278.957 129.24H59.3753C34.2501 129.24 13.8833 109.017 13.8833 84.071V33.5262C13.8822 19.8757 25.0269 8.81128 38.7738 8.81128H286.544C303.322 8.81128 316.924 22.3161 316.924 38.9753V91.5443C316.923 112.363 299.925 129.24 278.957 129.24Z" fill="#768AAB"/>
<path d="M194.398 48.7606L187.555 67.123L180.756 48.7606H177.248L170.319 67.0364L163.649 48.7606H159.708L168.24 71.7136H172.224L178.937 54.304L185.563 71.7136H189.547L198.122 48.7606H194.398ZM204.42 44.3433C206.065 44.3433 207.235 43.1307 207.235 41.5716C207.235 40.0991 206.022 38.9298 204.42 38.9298C202.817 38.9298 201.605 40.1424 201.605 41.6582C201.605 43.174 202.817 44.3433 204.42 44.3433ZM202.341 71.7136H206.498V48.7606H202.341V71.7136ZM221.019 71.9735C227.126 71.9735 230.937 69.3317 230.937 65.1742C230.937 56.2528 216.385 60.6702 216.385 55.2568C216.385 53.4379 218.161 52.0953 221.799 52.0953C224.051 52.0953 226.346 52.5717 228.425 53.9142L230.2 50.6229C228.208 49.3236 224.83 48.5441 221.842 48.5441C215.952 48.5441 212.271 51.3158 212.271 55.43C212.271 64.5679 226.779 60.1072 226.779 65.2608C226.779 67.2096 225.177 68.3789 221.322 68.3789C218.334 68.3789 215.216 67.3829 213.267 65.997L211.535 69.2884C213.44 70.8042 217.208 71.9735 221.019 71.9735ZM256.877 60.3671C256.877 53.3079 252.156 48.5441 245.53 48.5441C238.904 48.5441 234.01 53.4379 234.01 60.2371C234.01 67.0797 238.948 71.9735 246.353 71.9735C250.164 71.9735 253.326 70.6742 255.404 68.249L253.109 65.564C251.42 67.4262 249.168 68.3356 246.483 68.3356C241.936 68.3356 238.688 65.6506 238.168 61.623H256.79C256.834 61.2332 256.877 60.7135 256.877 60.3671ZM245.53 52.052C249.558 52.052 252.459 54.7804 252.893 58.6348H238.168C238.601 54.7371 241.546 52.052 245.53 52.052ZM266.634 52.615V48.7606H262.65V71.7136H266.807V60.2804C266.807 55.2568 269.579 52.5284 274.04 52.5284C274.343 52.5284 274.646 52.5284 274.993 52.5717V48.5441C270.965 48.5441 268.107 49.9299 266.634 52.615Z" fill="#3F3F3F"/>
<g clip-path="url(#clip0_59_122)">
<path d="M172.772 75.3179C171.196 75.3179 170.009 76.0983 169.479 77.2845C169.042 75.989 167.965 75.3179 166.498 75.3179C165.015 75.3179 163.907 75.989 163.376 77.1284V75.3803H162.627V83.5275H163.407V79.1886C163.407 77.2533 164.547 76.0203 166.389 76.0203C167.98 76.0203 168.933 76.9879 168.933 78.8296V83.5275H169.713V79.1886C169.713 77.2533 170.852 76.0203 172.694 76.0203C174.286 76.0203 175.238 76.9879 175.238 78.8296V83.5275H176.018V78.7672C176.018 76.4885 174.739 75.3179 172.772 75.3179ZM181.988 75.3179C180.723 75.3179 179.537 75.7549 178.726 76.4729L179.116 77.0348C179.787 76.4261 180.801 76.0047 181.925 76.0047C183.517 76.0047 184.344 76.8162 184.344 78.3302V78.9857H181.551C179.288 78.9857 178.507 80.0314 178.507 81.2644C178.507 82.6535 179.615 83.59 181.441 83.59C182.862 83.59 183.861 83.0125 184.376 82.076V83.5275H185.125V78.3614C185.125 76.348 184.001 75.3179 181.988 75.3179ZM181.551 82.9501C180.115 82.9501 179.288 82.2945 179.288 81.2332C179.288 80.2968 179.881 79.5944 181.566 79.5944H184.344V81.124C183.876 82.2945 182.924 82.9501 181.551 82.9501ZM192.32 75.3179C190.775 75.3179 189.636 76.0047 189.089 77.144V75.3803H188.34V83.5275H189.12V79.1886C189.12 77.2533 190.291 76.0203 192.211 76.0203C193.865 76.0203 194.848 76.9879 194.848 78.8296V83.5275H195.629V78.7672C195.629 76.4885 194.302 75.3179 192.32 75.3179ZM201.589 75.3179C200.324 75.3179 199.138 75.7549 198.327 76.4729L198.717 77.0348C199.388 76.4261 200.402 76.0047 201.526 76.0047C203.118 76.0047 203.945 76.8162 203.945 78.3302V78.9857H201.152C198.888 78.9857 198.108 80.0314 198.108 81.2644C198.108 82.6535 199.216 83.59 201.042 83.59C202.463 83.59 203.461 83.0125 203.977 82.076V83.5275H204.726V78.3614C204.726 76.348 203.602 75.3179 201.589 75.3179ZM201.152 82.9501C199.716 82.9501 198.888 82.2945 198.888 81.2332C198.888 80.2968 199.482 79.5944 201.167 79.5944H203.945V81.124C203.477 82.2945 202.525 82.9501 201.152 82.9501ZM214.543 75.3803V77.2221C213.887 76.0047 212.623 75.3179 211.125 75.3179C208.815 75.3179 207.067 76.9411 207.067 79.2667C207.067 81.5922 208.815 83.231 211.125 83.231C212.592 83.231 213.84 82.5599 214.512 81.3737V82.7472C214.512 84.9166 213.497 85.9155 211.328 85.9155C210.017 85.9155 208.846 85.4785 208.034 84.7293L207.613 85.3224C208.44 86.1496 209.86 86.6179 211.343 86.6179C213.965 86.6179 215.292 85.3848 215.292 82.6535V75.3803H214.543ZM211.187 82.5286C209.267 82.5286 207.863 81.1864 207.863 79.2667C207.863 77.3469 209.267 76.0203 211.187 76.0203C213.122 76.0203 214.527 77.3469 214.527 79.2667C214.527 81.1864 213.122 82.5286 211.187 82.5286ZM225.494 79.4227C225.494 77.0035 223.839 75.3179 221.607 75.3179C219.375 75.3179 217.705 77.0348 217.705 79.4539C217.705 81.8731 219.438 83.59 221.904 83.59C223.137 83.59 224.261 83.1373 224.979 82.2633L224.526 81.7483C223.902 82.513 222.95 82.8876 221.92 82.8876C219.969 82.8876 218.548 81.5766 218.47 79.6412H225.478C225.478 79.5632 225.494 79.4852 225.494 79.4227ZM221.607 76.0047C223.34 76.0047 224.62 77.2689 224.729 79.0325H218.486C218.611 77.2533 219.875 76.0047 221.607 76.0047ZM238.053 75.3179C236.476 75.3179 235.29 76.0983 234.76 77.2845C234.323 75.989 233.246 75.3179 231.779 75.3179C230.296 75.3179 229.188 75.989 228.657 77.1284V75.3803H227.908V83.5275H228.688V79.1886C228.688 77.2533 229.828 76.0203 231.669 76.0203C233.261 76.0203 234.213 76.9879 234.213 78.8296V83.5275H234.994V79.1886C234.994 77.2533 236.133 76.0203 237.975 76.0203C239.567 76.0203 240.519 76.9879 240.519 78.8296V83.5275H241.299V78.7672C241.299 76.4885 240.019 75.3179 238.053 75.3179ZM251.435 79.4227C251.435 77.0035 249.781 75.3179 247.549 75.3179C245.317 75.3179 243.647 77.0348 243.647 79.4539C243.647 81.8731 245.38 83.59 247.846 83.59C249.079 83.59 250.202 83.1373 250.92 82.2633L250.468 81.7483C249.843 82.513 248.891 82.8876 247.861 82.8876C245.91 82.8876 244.49 81.5766 244.412 79.6412H251.42C251.42 79.5632 251.435 79.4852 251.435 79.4227ZM247.549 76.0047C249.281 76.0047 250.561 77.2689 250.671 79.0325H244.427C244.552 77.2533 245.817 76.0047 247.549 76.0047ZM257.829 75.3179C256.284 75.3179 255.145 76.0047 254.599 77.144V75.3803H253.849V83.5275H254.63V79.1886C254.63 77.2533 255.8 76.0203 257.72 76.0203C259.375 76.0203 260.358 76.9879 260.358 78.8296V83.5275H261.138V78.7672C261.138 76.4885 259.812 75.3179 257.829 75.3179ZM268.066 82.4662C267.738 82.7628 267.285 82.9188 266.801 82.9188C265.803 82.9188 265.287 82.3414 265.287 81.2956V76.0515H267.879V75.3803H265.287V73.6011H264.507V75.3803H263.009V76.0515H264.507V81.3737C264.507 82.7472 265.287 83.59 266.723 83.59C267.332 83.59 267.988 83.4027 268.394 83.0125L268.066 82.4662ZM272.817 83.6836C273.715 83.6836 274.457 82.9422 274.457 82.0058C274.457 81.0693 273.715 80.367 272.817 80.367C271.92 80.367 271.178 81.0693 271.178 82.0058C271.178 82.9422 271.92 83.6836 272.817 83.6836Z" fill="#3F3F3F"/>
</g>
<path d="M6.44299 41.2796C6.44299 25.0351 19.6117 11.8665 35.8561 11.8665H84.7349C105.978 11.8665 123.198 29.0871 123.198 50.3297V84.4542C123.198 108.196 103.952 127.443 80.2098 127.443H58.4816C29.7415 127.443 6.44299 104.144 6.44299 75.4041V41.2796Z" fill="#3F3F3F"/>
<g filter="url(#filter1_d_59_122)">
<path d="M89.1405 9.2771H31.1405C16.4425 9.2771 4.52649 21.0832 4.52649 35.6457V79.2901C4.52649 106.607 26.8784 128.753 54.4497 128.753H84.092C106.748 128.753 125.114 110.556 125.114 88.1088V44.9192C125.114 25.2357 109.009 9.2771 89.1405 9.2771ZM18.8929 19.6426C22.4063 16.9694 26.7379 15.569 31.168 15.569H69.8661C71.0218 15.569 71.8777 16.6322 71.6213 17.7486L62.8378 56.0223L45.937 40.5888C44.8784 39.6217 43.4229 39.2917 42.0442 39.7078C40.6655 40.1239 39.6431 41.2001 39.3071 42.589L33.7908 65.4135L23.407 56.8444C22.3527 55.9362 20.8798 55.6334 19.546 56.0553L12.9986 58.1286C11.9486 58.4615 10.8741 57.6853 10.8741 56.5919V35.6457C10.877 29.3796 13.756 23.5512 18.8929 19.6426ZM23.6402 109.817C19.6358 105.85 16.4932 101.232 14.2991 96.0924C12.0283 90.7734 10.877 85.1214 10.877 79.2901V66.184C10.877 65.1265 11.5663 64.191 12.583 63.8681L20.4686 61.3715L31.9733 70.866C32.7176 71.5102 33.646 71.8489 34.5989 71.8489C35 71.8489 35.407 71.7886 35.8053 71.6652C37.1709 71.2448 38.1861 70.1701 38.5192 68.7912L44.0051 46.0887L60.9305 61.5451C61.9805 62.5036 63.4808 62.8393 64.8451 62.4189C66.2093 61.9985 67.2535 60.8807 67.5692 59.5004L77.0797 18.0556C77.4128 16.6007 78.7191 15.569 80.2238 15.569H89.1391C93.1405 15.569 97.0203 16.3438 100.668 17.8734C104.195 19.3513 107.364 21.4692 110.086 24.1667C112.809 26.8643 114.946 30.0038 116.438 33.4977C117.98 37.1121 118.764 40.9547 118.764 44.9207V71.9723C118.764 72.9824 118.105 73.8763 117.133 74.1834L108.302 76.9799L96.7973 67.4854C95.7386 66.57 94.3107 66.2715 92.9653 66.6862C91.5996 67.1066 90.5844 68.1813 90.2513 69.5602L84.7654 92.2627L67.8415 76.8092C66.7915 75.8507 65.2911 75.515 63.9269 75.9354C62.5627 76.3558 61.5185 77.4735 61.2013 78.8539L51.7126 120.202C51.4273 121.448 50.2354 122.286 48.9566 122.127C45.0102 121.637 41.1709 120.617 37.4895 119.075C32.3049 116.897 27.6431 113.783 23.6402 109.817ZM116.043 101.479C114.296 105.568 111.797 109.243 108.609 112.4C105.423 115.556 101.714 118.034 97.5866 119.765C93.3157 121.554 88.7756 122.462 84.0934 122.462H58.7263C57.701 122.462 56.9407 121.52 57.168 120.528L65.9341 82.3291L82.8364 97.7612C83.895 98.7283 85.3505 99.0583 86.7292 98.6422C88.1079 98.2261 89.1304 97.1499 89.4664 95.7609L94.9826 72.9351L105.366 81.5041C106.421 82.4124 107.892 82.7151 109.227 82.2933L117.408 79.7033C118.08 79.491 118.767 79.9874 118.767 80.6862V88.1074C118.765 92.7492 117.849 97.2475 116.043 101.479Z" fill="#9CADCB"/>
<path d="M44.1342 46.5108L38.7376 68.8439C38.3857 70.3006 37.3122 71.4363 35.8716 71.8798C35.4518 72.0099 35.0225 72.0735 34.5989 72.0735C33.593 72.0735 32.6133 71.7162 31.8282 71.0376L20.4198 61.6225L12.651 64.0822L44.1342 46.5108ZM44.1342 46.5108L60.779 61.7109L60.7791 61.711C61.888 62.7233 63.4712 63.0774 64.9112 62.6336C66.3512 62.1898 67.4543 61.01 67.7881 59.5506L44.1342 46.5108ZM108.609 112.4L108.451 112.24C111.618 109.104 114.101 105.453 115.836 101.391C115.836 101.391 115.836 101.391 115.836 101.391L116.043 101.479C117.849 97.2475 118.765 92.7492 118.767 88.1074V80.6862L108.609 112.4ZM108.609 112.4L108.451 112.24C105.285 115.377 101.601 117.838 97.4998 119.558M108.609 112.4C105.423 115.556 101.714 118.034 97.5866 119.765M117.476 79.9175L109.295 82.5074L109.295 82.5075C107.887 82.9525 106.335 82.6339 105.222 81.676C105.221 81.6754 105.22 81.6749 105.22 81.6743L95.1166 73.3369L89.6847 95.8137L89.4664 95.7609L89.6847 95.8138C89.3298 97.2809 88.2484 98.4183 86.7941 98.8572C85.3399 99.2961 83.8022 98.9477 82.6849 97.927L66.067 82.7546L57.387 120.578C57.1925 121.427 57.8426 122.238 58.7263 122.238H84.0934C88.7461 122.238 93.2567 121.335 97.4998 119.558M117.476 79.9175L97.5866 119.765M117.476 79.9175C117.476 79.9175 117.476 79.9175 117.476 79.9175L117.476 79.9175ZM97.4998 119.558L97.5866 119.765M97.4998 119.558C97.4997 119.558 97.4997 119.558 97.4997 119.558L97.5866 119.765M71.4024 17.6983L71.6213 17.7486L71.4024 17.6983L62.705 55.5968L46.0886 40.423C46.0885 40.4229 46.0885 40.4229 46.0885 40.4229C44.9712 39.4023 43.4335 39.0539 41.9793 39.4927C40.525 39.9317 39.4436 41.069 39.0887 42.5362L39.0887 42.5362L33.6568 65.0117L23.5536 56.6742C23.553 56.6737 23.5524 56.6732 23.5518 56.6727C22.4385 55.7147 20.8854 55.396 19.4783 55.8411L19.4782 55.8411L12.9308 57.9145L12.9307 57.9145C12.0227 58.2024 11.0987 57.5304 11.0987 56.5919V35.6458C11.0987 35.6458 11.0987 35.6457 11.0987 35.6457C11.1016 29.4506 13.9472 23.688 19.0289 19.8214C22.5015 17.1792 26.7849 15.7936 31.168 15.7936H69.8661C70.88 15.7936 71.6258 16.7252 71.4024 17.6983ZM67.7882 59.5505L77.2986 18.1059L77.2987 18.1058C77.608 16.7544 78.8223 15.7936 80.2238 15.7936H89.1391C93.1111 15.7936 96.9613 16.5627 100.582 18.0806L100.668 17.8734L100.582 18.0806C104.081 19.5473 107.226 21.649 109.928 24.3263C112.63 27.0036 114.751 30.1189 116.232 33.5859C117.762 37.1722 118.539 40.9848 118.539 44.9207V71.9723C118.539 72.8833 117.945 73.6913 117.066 73.9692L117.065 73.9692L108.351 76.7289L96.9442 67.3155C96.9436 67.3149 96.9429 67.3144 96.9422 67.3138C95.8249 66.3488 94.3173 66.0344 92.8992 66.4715C91.4585 66.915 90.3848 68.0508 90.0329 69.5075L84.6363 91.8407L67.9929 76.6433L67.8415 76.8092L67.9929 76.6433C66.884 75.631 65.3008 75.2769 63.8607 75.7207C62.4207 76.1645 61.3177 77.3443 60.9824 78.8036L61.2013 78.8539L60.9824 78.8036L51.4936 120.152L51.4936 120.152C51.2341 121.285 50.1489 122.049 48.9844 121.904L48.9842 121.904C45.0582 121.417 41.2388 120.402 37.5764 118.868C32.4183 116.701 27.7807 113.603 23.7983 109.657C19.8144 105.71 16.6883 101.117 14.5057 96.0042L14.2991 96.0924L14.5057 96.0042C12.2469 90.7133 11.1016 85.0913 11.1016 79.2901V66.184C11.1016 65.2257 11.7263 64.3759 12.6508 64.0823L67.7882 59.5505ZM89.1405 9.05246H31.1405C16.3204 9.05246 4.30185 20.9572 4.30185 35.6457V79.2901C4.30185 106.733 26.7563 128.978 54.4497 128.978H84.092C106.87 128.978 125.339 110.682 125.339 88.1088V44.9192C125.339 25.1097 109.131 9.05246 89.1405 9.05246Z" stroke="#9CADCB" stroke-width="0.449275"/>
</g>
</g>
<path opacity="0.8" d="M41.7866 146H43.6807V137.816H41.7866V146ZM55.3504 137.816V142.785L51.2817 137.816H49.715V146H51.5857V141.031L55.6661 146H57.2211V137.816H55.3504ZM63.2496 146H66.9675C69.6449 146 71.4805 144.387 71.4805 141.908C71.4805 139.429 69.6449 137.816 66.9675 137.816H63.2496V146ZM65.1436 144.445V139.371H66.874C68.4991 139.371 69.5631 140.341 69.5631 141.908C69.5631 143.475 68.4991 144.445 66.874 144.445H65.1436ZM80.6371 146.14C82.9638 146.14 84.3434 144.807 84.3434 142.399V137.816H82.4727V142.329C82.4727 143.884 81.8063 144.527 80.6488 144.527C79.503 144.527 78.8249 143.884 78.8249 142.329V137.816H76.9308V142.399C76.9308 144.807 78.3105 146.14 80.6371 146.14ZM92.9962 146.14C95.3346 146.14 96.4687 144.971 96.4687 143.603C96.4687 140.598 91.7101 141.639 91.7101 140.131C91.7101 139.616 92.1427 139.195 93.2651 139.195C93.99 139.195 94.7734 139.406 95.5333 139.838L96.1179 138.4C95.358 137.921 94.3057 137.676 93.2768 137.676C90.9502 137.676 89.8278 138.833 89.8278 140.224C89.8278 143.264 94.5863 142.212 94.5863 143.744C94.5863 144.246 94.1303 144.62 93.0079 144.62C92.0258 144.62 90.997 144.27 90.3071 143.767L89.6641 145.193C90.389 145.754 91.6985 146.14 92.9962 146.14ZM103.436 146H105.33V139.359H107.949V137.816H100.817V139.359H103.436V146ZM120.309 146L118.474 143.369C119.537 142.913 120.157 142.013 120.157 140.786C120.157 138.95 118.789 137.816 116.603 137.816H113.06V146H114.954V143.72H116.603H116.696L118.275 146H120.309ZM118.24 140.786C118.24 141.674 117.655 142.212 116.498 142.212H114.954V139.359H116.498C117.655 139.359 118.24 139.885 118.24 140.786ZM132.744 137.816H130.885L128.699 141.452L126.513 137.816H124.502L127.67 143.077V146H129.564V143.1L132.744 137.816ZM152.012 142.738H150.679V141.206H148.89V142.738H146.692L150.27 137.816H148.282L144.424 143.007V144.281H148.832V146H150.679V144.281H152.012V142.738ZM157.975 146.094C158.606 146.094 159.109 145.614 159.109 144.948C159.109 144.27 158.606 143.825 157.975 143.825C157.343 143.825 156.84 144.27 156.84 144.948C156.84 145.614 157.343 146.094 157.975 146.094ZM167.41 146.14C169.433 146.14 170.918 144.609 170.918 141.908C170.918 139.207 169.433 137.676 167.41 137.676C165.399 137.676 163.903 139.207 163.903 141.908C163.903 144.609 165.399 146.14 167.41 146.14ZM167.41 144.539C166.475 144.539 165.82 143.767 165.82 141.908C165.82 140.049 166.475 139.277 167.41 139.277C168.357 139.277 169.012 140.049 169.012 141.908C169.012 143.767 168.357 144.539 167.41 144.539ZM187.39 137.816H183.848V146H185.742V143.744H187.39C189.576 143.744 190.944 142.609 190.944 140.786C190.944 138.95 189.576 137.816 187.39 137.816ZM187.285 142.2H185.742V139.359H187.285C188.442 139.359 189.027 139.885 189.027 140.786C189.027 141.674 188.442 142.2 187.285 142.2ZM196.389 146H202.387V144.457H198.283V137.816H196.389V146ZM213.72 146H215.708L212.048 137.816H210.178L206.53 146H208.471L209.195 144.246H212.995L213.72 146ZM209.803 142.808L211.101 139.675L212.399 142.808H209.803ZM221.933 146H223.827V139.359H226.446V137.816H219.314V139.359H221.933V146ZM237.742 139.336V137.816H231.557V146H233.451V143.019H237.24V141.499H233.451V139.336H237.742ZM247 146.14C249.572 146.14 251.478 144.351 251.478 141.908C251.478 139.464 249.572 137.676 247 137.676C244.416 137.676 242.522 139.476 242.522 141.908C242.522 144.34 244.416 146.14 247 146.14ZM247 144.527C245.539 144.527 244.44 143.463 244.44 141.908C244.44 140.353 245.539 139.289 247 139.289C248.462 139.289 249.561 140.353 249.561 141.908C249.561 143.463 248.462 144.527 247 144.527ZM264.243 146L262.407 143.369C263.471 142.913 264.091 142.013 264.091 140.786C264.091 138.95 262.723 137.816 260.536 137.816H256.994V146H258.888V143.72H260.536H260.63L262.208 146H264.243ZM262.173 140.786C262.173 141.674 261.589 142.212 260.431 142.212H258.888V139.359H260.431C261.589 139.359 262.173 139.885 262.173 140.786ZM278.908 146L278.885 137.816H277.33L274.313 142.902L271.25 137.816H269.683V146H271.46V141.195L273.857 145.135H274.711L277.119 141.089L277.131 146H278.908Z" fill="#9CADCB"/>
<defs>
<filter id="filter0_i_59_122" x="4" y="7" width="312.924" height="126" filterUnits="userSpaceOnUse" color-interpolation-filters="sRGB">
<feFlood flood-opacity="0" result="BackgroundImageFix"/>
<feBlend mode="normal" in="SourceGraphic" in2="BackgroundImageFix" result="shape"/>
<feColorMatrix in="SourceAlpha" type="matrix" values="0 0 0 0 0 0 0 0 0 0 0 0 0 0 0 0 0 0 127 0" result="hardAlpha"/>
<feOffset dy="2"/>
<feGaussianBlur stdDeviation="9.5"/>
<feComposite in2="hardAlpha" operator="arithmetic" k2="-1" k3="1"/>
<feColorMatrix type="matrix" values="0 0 0 0 0 0 0 0 0 0 0 0 0 0 0 0 0 0 0.25 0"/>
<feBlend mode="normal" in2="shape" result="effect1_innerShadow_59_122"/>
</filter>
<filter id="filter1_d_59_122" x="0.0772705" y="0.827881" width="137.486" height="136.374" filterUnits="userSpaceOnUse" color-interpolation-filters="sRGB">
<feFlood flood-opacity="0" result="BackgroundImageFix"/>
<feColorMatrix in="SourceAlpha" type="matrix" values="0 0 0 0 0 0 0 0 0 0 0 0 0 0 0 0 0 0 127 0" result="hardAlpha"/>
<feOffset dx="4"/>
<feGaussianBlur stdDeviation="4"/>
<feComposite in2="hardAlpha" operator="out"/>
<feColorMatrix type="matrix" values="0 0 0 0 0 0 0 0 0 0 0 0 0 0 0 0 0 0 0.25 0"/>
<feBlend mode="normal" in2="BackgroundImageFix" result="effect1_dropShadow_59_122"/>
<feBlend mode="normal" in="SourceGraphic" in2="effect1_dropShadow_59_122" result="shape"/>
</filter>
<clipPath id="clip0_59_122">
<rect width="113" height="14.3818" fill="white" transform="translate(162 73.2546)"/>
</clipPath>
</defs>
</svg>
