<svg width="30" height="31" viewBox="0 0 30 31" fill="none" xmlns="http://www.w3.org/2000/svg">
    <rect y="0.5" width="30" height="30" rx="9" fill="#C4C4C4"/>
    <path d="M11.375 15.375C11.375 15.2092 11.4408 15.0503 11.5581 14.9331C11.6753 14.8158 11.8342 14.75 12 14.75H17.625V10.6875C17.625 9.4375 16.3051 8.5 15.125 8.5H9.1875C8.60753 8.50062 8.05149 8.73129 7.64139 9.14139C7.23129 9.55149 7.00062 10.1075 7 10.6875V20.0625C7.00062 20.6425 7.23129 21.1985 7.64139 21.6086C8.05149 22.0187 8.60753 22.2494 9.1875 22.25H15.4375C16.0175 22.2494 16.5735 22.0187 16.9836 21.6086C17.3937 21.1985 17.6244 20.6425 17.625 20.0625V16H12C11.8342 16 11.6753 15.9342 11.5581 15.8169C11.4408 15.6997 11.375 15.5408 11.375 15.375ZM23.0668 14.9332L19.9418 11.8082C19.8236 11.6959 19.6663 11.6343 19.5033 11.6364C19.3403 11.6385 19.1846 11.7041 19.0694 11.8194C18.9541 11.9346 18.8885 12.0903 18.8864 12.2533C18.8843 12.4163 18.9459 12.5736 19.0582 12.6918L21.116 14.75H17.625V16H21.116L19.0582 18.0582C18.9977 18.1157 18.9494 18.1846 18.916 18.2611C18.8826 18.3375 18.8648 18.4199 18.8637 18.5033C18.8627 18.5867 18.8783 18.6695 18.9097 18.7468C18.9412 18.8241 18.9878 18.8943 19.0467 18.9533C19.1057 19.0122 19.1759 19.0588 19.2532 19.0903C19.3305 19.1217 19.4133 19.1373 19.4967 19.1363C19.5801 19.1352 19.6625 19.1174 19.7389 19.084C19.8154 19.0506 19.8843 19.0023 19.9418 18.9418L23.0668 15.8168C23.1839 15.6996 23.2497 15.5407 23.2497 15.375C23.2497 15.2093 23.1839 15.0504 23.0668 14.9332Z"
          fill="#4E4E4E"/>
</svg>
