<svg width="318" height="149" viewBox="0 0 318 149" fill="none" xmlns="http://www.w3.org/2000/svg">
    <g filter="url(#filter0_i_449_38801)">
        <path d="M279.61 128.74H60.0274C34.9022 128.74 14.5354 108.517 14.5354 83.571V33.0262C14.5343 19.3757 25.679 8.31128 39.4259 8.31128H287.196C303.974 8.31128 317.576 21.8161 317.576 38.4753V91.0443C317.575 111.863 300.577 128.74 279.61 128.74Z"
              fill="#5FA8A3"/>
        <path d="M168.892 71.2135L160.36 48.2605H164.301L171.88 69.0481H170.018L177.9 48.2605H181.408L189.117 69.0481H187.298L195.05 48.2605H198.774L190.199 71.2135H186.215L178.983 52.2448H180.195L172.876 71.2135H168.892ZM202.993 71.2135V48.2605H207.15V71.2135H202.993ZM205.072 43.8432C204.263 43.8432 203.585 43.5833 203.036 43.0636C202.517 42.5439 202.257 41.9088 202.257 41.1581C202.257 40.3786 202.517 39.7289 203.036 39.2092C203.585 38.6896 204.263 38.4297 205.072 38.4297C205.88 38.4297 206.544 38.6896 207.064 39.2092C207.612 39.7001 207.887 40.3208 207.887 41.0715C207.887 41.851 207.627 42.5151 207.107 43.0636C206.587 43.5833 205.909 43.8432 205.072 43.8432ZM221.671 71.4733C219.766 71.4733 217.947 71.2135 216.215 70.6938C214.511 70.1741 213.169 69.5389 212.187 68.7883L213.919 65.4969C214.901 66.161 216.114 66.724 217.557 67.1859C219.001 67.6478 220.473 67.8788 221.975 67.8788C223.909 67.8788 225.295 67.6045 226.132 67.056C226.998 66.5074 227.431 65.7423 227.431 64.7607C227.431 64.0389 227.171 63.4759 226.652 63.0717C226.132 62.6675 225.439 62.3643 224.573 62.1622C223.736 61.9601 222.797 61.7869 221.758 61.6425C220.719 61.4693 219.679 61.2672 218.64 61.0362C217.6 60.7764 216.648 60.4299 215.782 59.9969C214.915 59.5349 214.222 58.9142 213.703 58.1346C213.183 57.3262 212.923 56.258 212.923 54.9299C212.923 53.544 213.313 52.3314 214.093 51.292C214.872 50.2527 215.969 49.4587 217.384 48.9101C218.827 48.3327 220.531 48.044 222.494 48.044C223.996 48.044 225.511 48.2316 227.041 48.607C228.601 48.9534 229.871 49.4587 230.853 50.1227L229.077 53.4141C228.038 52.7212 226.955 52.2448 225.829 51.985C224.703 51.7251 223.577 51.5952 222.451 51.5952C220.632 51.5952 219.275 51.8984 218.38 52.5047C217.485 53.0821 217.037 53.8328 217.037 54.7566C217.037 55.5362 217.297 56.1425 217.817 56.5756C218.366 56.9798 219.058 57.2974 219.896 57.5283C220.762 57.7593 221.715 57.9614 222.754 58.1346C223.793 58.279 224.833 58.4811 225.872 58.7409C226.912 58.9719 227.85 59.3039 228.687 59.737C229.553 60.1701 230.246 60.7764 230.766 61.5559C231.314 62.3355 231.589 63.3748 231.589 64.6741C231.589 66.0599 231.185 67.2581 230.376 68.2686C229.568 69.2791 228.427 70.0731 226.955 70.6505C225.482 71.1991 223.721 71.4733 221.671 71.4733ZM247.005 71.4733C244.551 71.4733 242.386 70.9681 240.509 69.9576C238.661 68.9471 237.218 67.5612 236.178 65.8001C235.168 64.0389 234.663 62.0179 234.663 59.737C234.663 57.4561 235.153 55.4351 236.135 53.674C237.146 51.9128 238.517 50.5414 240.249 49.5597C242.01 48.5492 243.988 48.044 246.182 48.044C248.406 48.044 250.369 48.5348 252.072 49.5164C253.776 50.4981 255.104 51.8839 256.056 53.674C257.038 55.4351 257.529 57.4995 257.529 59.8669C257.529 60.0402 257.515 60.2423 257.486 60.4732C257.486 60.7042 257.471 60.9207 257.442 61.1229H237.911V58.1346H255.277L253.588 59.174C253.617 57.7016 253.314 56.3879 252.679 55.233C252.043 54.0782 251.163 53.1831 250.037 52.548C248.94 51.8839 247.655 51.5519 246.182 51.5519C244.739 51.5519 243.454 51.8839 242.328 52.548C241.202 53.1831 240.321 54.0926 239.686 55.2763C239.051 56.4312 238.733 57.7593 238.733 59.2606V59.9535C238.733 61.4837 239.08 62.8552 239.773 64.0678C240.495 65.2515 241.491 66.1754 242.761 66.8394C244.031 67.5035 245.489 67.8355 247.135 67.8355C248.492 67.8355 249.719 67.6045 250.816 67.1426C251.942 66.6806 252.924 65.9877 253.761 65.0638L256.056 67.7489C255.017 68.9615 253.718 69.8854 252.159 70.5206C250.629 71.1558 248.911 71.4733 247.005 71.4733ZM263.302 71.2135V48.2605H267.286V54.4968L266.897 52.9377C267.532 51.3498 268.6 50.1372 270.101 49.2999C271.603 48.4626 273.45 48.044 275.645 48.044V52.0716C275.471 52.0427 275.298 52.0283 275.125 52.0283C274.981 52.0283 274.836 52.0283 274.692 52.0283C272.469 52.0283 270.708 52.6923 269.408 54.0204C268.109 55.3485 267.46 57.2685 267.46 59.7803V71.2135H263.302Z"
              fill="#3F3F3F"/>
        <path d="M179.501 78.0872C180.437 78.0872 181.247 78.2731 181.931 78.6447C182.63 79.0015 183.173 79.5516 183.559 80.2949C183.946 81.0234 184.139 81.9302 184.139 83.0155V89.8169H183.024V83.1047C183.024 81.7964 182.704 80.8004 182.065 80.1165C181.426 79.4327 180.534 79.0907 179.389 79.0907C178.512 79.0907 177.754 79.2766 177.115 79.6482C176.475 80.0199 175.985 80.5402 175.643 81.2092C175.301 81.8782 175.13 82.681 175.13 83.6176V89.8169H174.015V83.1047C174.015 81.7964 173.695 80.8004 173.056 80.1165C172.417 79.4327 171.525 79.0907 170.38 79.0907C169.503 79.0907 168.745 79.2766 168.106 79.6482C167.466 80.0199 166.976 80.5402 166.634 81.2092C166.292 81.8782 166.121 82.681 166.121 83.6176V89.8169H165.006V78.1764H166.076V81.3876L165.92 81.0308C166.262 80.124 166.834 79.4104 167.637 78.89C168.44 78.3548 169.406 78.0872 170.536 78.0872C171.696 78.0872 172.67 78.3846 173.457 78.9792C174.26 79.559 174.766 80.4287 174.974 81.5883L174.595 81.4322C174.907 80.4362 175.494 79.6334 176.356 79.0238C177.219 78.3994 178.267 78.0872 179.501 78.0872ZM196.079 89.8169V87.1632L196.035 86.7618V82.3911C196.035 81.3058 195.738 80.4807 195.143 79.9158C194.563 79.3509 193.708 79.0684 192.578 79.0684C191.776 79.0684 191.025 79.2097 190.326 79.4921C189.642 79.7597 189.055 80.1091 188.564 80.5402L188.007 79.7374C188.587 79.2171 189.285 78.8157 190.103 78.5332C190.921 78.2359 191.776 78.0872 192.668 78.0872C194.11 78.0872 195.217 78.4515 195.99 79.1799C196.763 79.9084 197.15 80.9936 197.15 82.4357V89.8169H196.079ZM191.887 89.9061C191.025 89.9061 190.274 89.7723 189.635 89.5047C189.01 89.2222 188.527 88.8283 188.185 88.3228C187.858 87.8174 187.695 87.2376 187.695 86.5834C187.695 85.9888 187.829 85.4536 188.096 84.9779C188.379 84.4873 188.839 84.0933 189.479 83.796C190.118 83.4838 190.973 83.3277 192.043 83.3277H196.325V84.1974H192.066C190.861 84.1974 190.014 84.4204 189.523 84.8664C189.048 85.3124 188.81 85.8698 188.81 86.5388C188.81 87.2822 189.092 87.8768 189.657 88.3228C190.222 88.7688 191.017 88.9918 192.043 88.9918C193.024 88.9918 193.849 88.7688 194.518 88.3228C195.202 87.8768 195.708 87.2301 196.035 86.3827L196.347 87.1409C196.035 87.9883 195.5 88.6647 194.741 89.1702C193.998 89.6608 193.047 89.9061 191.887 89.9061ZM206.36 89.9061C205.23 89.9061 204.219 89.6534 203.327 89.1479C202.45 88.6424 201.751 87.9437 201.231 87.0517C200.725 86.1597 200.473 85.1414 200.473 83.9967C200.473 82.8371 200.725 81.8113 201.231 80.9193C201.751 80.0273 202.45 79.336 203.327 78.8454C204.219 78.34 205.23 78.0872 206.36 78.0872C207.296 78.0872 208.144 78.2656 208.902 78.6224C209.675 78.9792 210.299 79.5144 210.775 80.228L209.95 80.8301C209.534 80.2355 209.013 79.7969 208.389 79.5144C207.765 79.232 207.088 79.0907 206.36 79.0907C205.453 79.0907 204.635 79.2989 203.907 79.7151C203.193 80.1165 202.628 80.6889 202.212 81.4322C201.811 82.1607 201.61 83.0155 201.61 83.9967C201.61 84.9779 201.811 85.8401 202.212 86.5834C202.628 87.3119 203.193 87.8843 203.907 88.3005C204.635 88.7019 205.453 88.9026 206.36 88.9026C207.088 88.9026 207.765 88.7614 208.389 88.4789C209.013 88.1964 209.534 87.7579 209.95 87.1632L210.775 87.7653C210.299 88.4789 209.675 89.0141 208.902 89.3709C208.144 89.7277 207.296 89.9061 206.36 89.9061ZM219.604 78.0872C220.555 78.0872 221.38 78.2731 222.079 78.6447C222.792 79.0015 223.342 79.5516 223.729 80.2949C224.13 81.0234 224.331 81.9302 224.331 83.0155V89.8169H223.216V83.1047C223.216 81.7964 222.882 80.8004 222.213 80.1165C221.558 79.4327 220.637 79.0907 219.447 79.0907C218.541 79.0907 217.753 79.2766 217.084 79.6482C216.415 80.0199 215.902 80.5402 215.545 81.2092C215.203 81.8782 215.032 82.681 215.032 83.6176V89.8169H213.917V73.2705H215.032V81.4099L214.831 81.0531C215.188 80.1314 215.775 79.4104 216.593 78.89C217.411 78.3548 218.414 78.0872 219.604 78.0872ZM228.922 89.8169V78.1764H230.037V89.8169H228.922ZM229.479 75.3444C229.226 75.3444 229.011 75.2552 228.832 75.0768C228.654 74.8984 228.565 74.6903 228.565 74.4524C228.565 74.1997 228.654 73.9841 228.832 73.8057C229.011 73.6273 229.226 73.5381 229.479 73.5381C229.747 73.5381 229.962 73.6273 230.126 73.8057C230.304 73.9692 230.393 74.1774 230.393 74.4301C230.393 74.6828 230.304 74.8984 230.126 75.0768C229.962 75.2552 229.747 75.3444 229.479 75.3444ZM240.422 78.0872C241.374 78.0872 242.199 78.2731 242.898 78.6447C243.611 79.0015 244.161 79.5516 244.548 80.2949C244.949 81.0234 245.15 81.9302 245.15 83.0155V89.8169H244.035V83.1047C244.035 81.7964 243.7 80.8004 243.031 80.1165C242.377 79.4327 241.456 79.0907 240.266 79.0907C239.359 79.0907 238.572 79.2766 237.903 79.6482C237.234 80.0199 236.721 80.5402 236.364 81.2092C236.022 81.8782 235.851 82.681 235.851 83.6176V89.8169H234.736V78.1764H235.806V81.4099L235.65 81.0531C236.007 80.1314 236.594 79.4104 237.412 78.89C238.23 78.3548 239.233 78.0872 240.422 78.0872ZM254.468 89.9061C253.293 89.9061 252.253 89.6534 251.346 89.1479C250.454 88.6424 249.748 87.9437 249.228 87.0517C248.722 86.1597 248.469 85.1414 248.469 83.9967C248.469 82.8371 248.707 81.8187 249.183 80.9416C249.673 80.0496 250.342 79.3509 251.19 78.8454C252.037 78.34 252.989 78.0872 254.044 78.0872C255.1 78.0872 256.044 78.3325 256.876 78.8231C257.724 79.3137 258.385 80.005 258.861 80.897C259.352 81.7741 259.597 82.7925 259.597 83.9521C259.597 83.9967 259.589 84.0487 259.575 84.1082C259.575 84.1528 259.575 84.2048 259.575 84.2643H249.294V83.3946H258.972L258.526 83.8183C258.541 82.9114 258.348 82.1012 257.947 81.3876C257.56 80.6591 257.032 80.0942 256.363 79.6928C255.694 79.2766 254.921 79.0684 254.044 79.0684C253.182 79.0684 252.409 79.2766 251.725 79.6928C251.056 80.0942 250.528 80.6591 250.142 81.3876C249.755 82.1012 249.562 82.9189 249.562 83.8406V84.0413C249.562 84.9927 249.77 85.8401 250.186 86.5834C250.618 87.3119 251.205 87.8843 251.948 88.3005C252.691 88.7019 253.539 88.9026 254.49 88.9026C255.234 88.9026 255.925 88.7688 256.564 88.5012C257.218 88.2336 257.768 87.8248 258.214 87.2747L258.861 88.0106C258.356 88.635 257.716 89.1107 256.943 89.4378C256.185 89.75 255.36 89.9061 254.468 89.9061ZM265.99 89.9061C265.023 89.9061 264.117 89.7649 263.269 89.4824C262.437 89.1999 261.79 88.8431 261.329 88.412L261.842 87.52C262.288 87.9066 262.883 88.241 263.626 88.5235C264.369 88.7911 265.172 88.9249 266.034 88.9249C267.253 88.9249 268.131 88.7242 268.666 88.3228C269.201 87.9214 269.468 87.3937 269.468 86.7395C269.468 86.2638 269.327 85.8921 269.045 85.6245C268.777 85.3421 268.413 85.1265 267.952 84.9779C267.491 84.8292 266.986 84.7103 266.436 84.6211C265.886 84.517 265.336 84.4055 264.786 84.2866C264.235 84.1676 263.73 83.9967 263.269 83.7737C262.808 83.5507 262.437 83.2459 262.154 82.8594C261.887 82.458 261.753 81.9302 261.753 81.2761C261.753 80.6814 261.916 80.1463 262.243 79.6705C262.57 79.1948 263.061 78.8157 263.715 78.5332C264.369 78.2359 265.187 78.0872 266.168 78.0872C266.897 78.0872 267.625 78.1913 268.354 78.3994C269.097 78.6076 269.699 78.8826 270.16 79.2245L269.647 80.1165C269.156 79.7449 268.606 79.4773 267.997 79.3137C267.387 79.1502 266.77 79.0684 266.146 79.0684C265.016 79.0684 264.183 79.2766 263.648 79.6928C263.128 80.1091 262.868 80.6294 262.868 81.2538C262.868 81.7444 263.002 82.1384 263.269 82.4357C263.552 82.7182 263.923 82.9412 264.384 83.1047C264.845 83.2533 265.35 83.3797 265.901 83.4838C266.451 83.573 267.001 83.677 267.551 83.796C268.101 83.9149 268.606 84.0859 269.067 84.3089C269.528 84.517 269.892 84.8143 270.16 85.2009C270.442 85.5725 270.583 86.078 270.583 86.7172C270.583 87.3565 270.405 87.914 270.048 88.3897C269.706 88.8654 269.193 89.2371 268.51 89.5047C267.826 89.7723 266.986 89.9061 265.99 89.9061ZM274.311 89.9361C273.973 89.9361 273.675 89.8169 273.417 89.5786C273.179 89.3204 273.059 89.0125 273.059 88.655C273.059 88.2975 273.179 87.9995 273.417 87.7612C273.675 87.5229 273.973 87.4037 274.311 87.4037C274.648 87.4037 274.936 87.5229 275.175 87.7612C275.433 87.9995 275.562 88.2975 275.562 88.655C275.562 89.0125 275.433 89.3204 275.175 89.5786C274.936 89.8169 274.648 89.9361 274.311 89.9361Z"
              fill="#3F3F3F"/>
        <path d="M7.09497 40.7797C7.09497 24.5353 20.2637 11.3666 36.5081 11.3666H85.3869C106.63 11.3666 123.85 28.5872 123.85 49.8299V83.9544C123.85 107.696 104.604 126.943 80.8618 126.943H59.1336C30.3935 126.943 7.09497 103.644 7.09497 74.9042V40.7797Z"
              fill="#3F3F3F"/>
        <g filter="url(#filter1_d_449_38801)">
            <path d="M89.7927 8.7771H31.7928C17.0947 8.7771 5.17871 20.5832 5.17871 35.1457V78.7901C5.17871 106.107 27.5306 128.253 55.1019 128.253H84.7442C107.4 128.253 125.767 110.056 125.767 87.6088V44.4192C125.767 24.7357 109.661 8.7771 89.7927 8.7771ZM19.5451 19.1426C23.0585 16.4694 27.3901 15.069 31.8203 15.069H70.5183C71.674 15.069 72.5299 16.1322 72.2735 17.2486L63.4901 55.5223L46.5893 40.0888C45.5306 39.1217 44.0751 38.7917 42.6964 39.2078C41.3177 39.6239 40.2953 40.7001 39.9593 42.089L34.443 64.9135L24.0592 56.3444C23.0049 55.4362 21.5321 55.1334 20.1983 55.5553L13.6508 57.6286C12.6009 57.9615 11.5263 57.1853 11.5263 56.0919V35.1457C11.5292 28.8796 14.4083 23.0512 19.5451 19.1426ZM24.2924 109.317C20.288 105.35 17.1454 100.732 14.9513 95.5924C12.6805 90.2734 11.5292 84.6214 11.5292 78.7901V65.684C11.5292 64.6265 12.2185 63.691 13.2352 63.3681L21.1208 60.8715L32.6255 70.366C33.3699 71.0102 34.2982 71.3489 35.2511 71.3489C35.6523 71.3489 36.0592 71.2886 36.4575 71.1652C37.8232 70.7448 38.8384 69.6701 39.1715 68.2912L44.6573 45.5887L61.5827 61.0451C62.6327 62.0036 64.1331 62.3393 65.4973 61.9189C66.8615 61.4985 67.9057 60.3807 68.2214 59.0004L77.7319 17.5556C78.065 16.1007 79.3713 15.069 80.876 15.069H89.7913C93.7927 15.069 97.6725 15.8438 101.321 17.3734C104.847 18.8513 108.016 20.9692 110.738 23.6667C113.461 26.3643 115.599 29.5038 117.09 32.9977C118.633 36.6121 119.416 40.4547 119.416 44.4207V71.4723C119.416 72.4824 118.757 73.3763 117.785 73.6834L108.954 76.4799L97.4495 66.9854C96.3908 66.07 94.9629 65.7715 93.6175 66.1862C92.2518 66.6066 91.2366 67.6813 90.9035 69.0602L85.4176 91.7627L68.4937 76.3092C67.4437 75.3507 65.9434 75.015 64.5791 75.4354C63.2149 75.8558 62.1707 76.9735 61.8536 78.3539L52.3648 119.702C52.0795 120.948 50.8876 121.786 49.6088 121.627C45.6624 121.137 41.8232 120.117 38.1418 118.575C32.9571 116.397 28.2953 113.283 24.2924 109.317ZM116.695 100.979C114.948 105.068 112.449 108.743 109.261 111.9C106.075 115.056 102.366 117.534 98.2388 119.265C93.968 121.054 89.4278 121.962 84.7457 121.962H59.3785C58.3532 121.962 57.5929 121.02 57.8203 120.028L66.5864 81.8291L83.4886 97.2612C84.5472 98.2283 86.0027 98.5583 87.3814 98.1422C88.7601 97.7261 89.7826 96.6499 90.1186 95.2609L95.6349 72.4351L106.019 81.0041C107.073 81.9124 108.544 82.2151 109.88 81.7933L118.061 79.2033C118.733 78.991 119.419 79.4874 119.419 80.1862V87.6074C119.418 92.2492 118.501 96.7475 116.695 100.979Z"
                  fill="#84CBC6"/>
            <path d="M44.7864 46.0108L39.3898 68.3439C39.0379 69.8006 37.9644 70.9363 36.5238 71.3798C36.104 71.5099 35.6747 71.5735 35.2511 71.5735C34.2453 71.5735 33.2655 71.2162 32.4805 70.5376L21.0721 61.1225L13.3032 63.5822L44.7864 46.0108ZM44.7864 46.0108L61.4313 61.2109L61.4313 61.211C62.5402 62.2233 64.1234 62.5774 65.5635 62.1336C67.0034 61.6898 68.1065 60.51 68.4404 59.0506L44.7864 46.0108ZM109.261 111.9L109.103 111.74C112.27 108.604 114.753 104.953 116.488 100.891C116.488 100.891 116.488 100.891 116.488 100.891L116.695 100.979C118.501 96.7475 119.418 92.2492 119.419 87.6074V80.1862L109.261 111.9ZM109.261 111.9L109.103 111.74C105.937 114.877 102.253 117.338 98.152 119.058M109.261 111.9C106.075 115.056 102.366 117.534 98.2388 119.265M118.128 79.4175L109.947 82.0074L109.947 82.0075C108.539 82.4525 106.987 82.1339 105.874 81.176C105.873 81.1754 105.873 81.1749 105.872 81.1743L95.7689 72.8369L90.3369 95.3137L90.1186 95.2609L90.3369 95.3138C89.982 96.7809 88.9006 97.9183 87.4463 98.3572C85.9921 98.7961 84.4544 98.4477 83.3371 97.427L66.7192 82.2546L58.0392 120.078C57.8447 120.927 58.4948 121.738 59.3785 121.738H84.7457C89.3983 121.738 93.9089 120.835 98.152 119.058M118.128 79.4175L98.2388 119.265M118.128 79.4175C118.128 79.4175 118.128 79.4175 118.128 79.4175L118.128 79.4175ZM98.152 119.058L98.2388 119.265M98.152 119.058C98.152 119.058 98.1519 119.058 98.1519 119.058L98.2388 119.265M72.0546 17.1983L72.2735 17.2486L72.0546 17.1983L63.3572 55.0968L46.7408 39.923C46.7408 39.9229 46.7408 39.9229 46.7407 39.9229C45.6234 38.9023 44.0857 38.5539 42.6315 38.9927C41.1773 39.4317 40.0959 40.569 39.741 42.0362L39.7409 42.0362L34.309 64.5117L24.2058 56.1742C24.2052 56.1737 24.2046 56.1732 24.204 56.1727C23.0907 55.2147 21.5377 54.896 20.1305 55.3411L20.1304 55.3411L13.583 57.4145L13.5829 57.4145C12.675 57.7024 11.7509 57.0304 11.7509 56.0919V35.1458C11.7509 35.1458 11.7509 35.1457 11.7509 35.1457C11.7538 28.9506 14.5994 23.188 19.6811 19.3214C23.1537 16.6792 27.4371 15.2936 31.8203 15.2936H70.5183C71.5322 15.2936 72.2781 16.2252 72.0546 17.1983ZM68.4404 59.0505L77.9509 17.6059L77.9509 17.6058C78.2603 16.2544 79.4745 15.2936 80.876 15.2936H89.7913C93.7633 15.2936 97.6135 16.0627 101.234 17.5806L101.321 17.3734L101.234 17.5806C104.734 19.0473 107.878 21.149 110.58 23.8263C113.283 26.5036 115.404 29.6189 116.884 33.0859C118.414 36.6722 119.192 40.4848 119.192 44.4207V71.4723C119.192 72.3833 118.597 73.1913 117.718 73.4692L117.718 73.4692L109.003 76.2289L97.5964 66.8155C97.5958 66.8149 97.5951 66.8144 97.5945 66.8138C96.4771 65.8488 94.9695 65.5344 93.5514 65.9715C92.1107 66.415 91.037 67.5508 90.6852 69.0075L85.2885 91.3407L68.6451 76.1433L68.4937 76.3092L68.6451 76.1433C67.5362 75.131 65.953 74.7769 64.513 75.2207C63.0729 75.6645 61.9699 76.8443 61.6346 78.3036L61.8536 78.3539L61.6346 78.3036L52.1458 119.652L52.1458 119.652C51.8863 120.785 50.8011 121.549 49.6366 121.404L49.6365 121.404C45.7104 120.917 41.891 119.902 38.2286 118.368C33.0705 116.201 28.4329 113.103 24.4505 109.157C20.4666 105.21 17.3405 100.617 15.1579 95.5042L14.9513 95.5924L15.1579 95.5042C12.8991 90.2133 11.7538 84.5913 11.7538 78.7901V65.684C11.7538 64.7257 12.3786 63.8759 13.303 63.5823L68.4404 59.0505ZM89.7927 8.55246H31.7928C16.9726 8.55246 4.95407 20.4572 4.95407 35.1457V78.7901C4.95407 106.233 27.4085 128.478 55.1019 128.478H84.7442C107.522 128.478 125.991 110.182 125.991 87.6088V44.4192C125.991 24.6097 109.783 8.55246 89.7927 8.55246Z"
                  stroke="#84CBC6" stroke-width="0.449275"/>
        </g>
    </g>
    <path opacity="0.8"
          d="M42.4503 145.5V137.316H44.3443V145.5H42.4503ZM50.3787 145.5V137.316H51.9454L56.774 143.208H56.0141V137.316H57.8847V145.5H56.3298L51.4894 139.607H52.2494V145.5H50.3787ZM63.9132 145.5V137.316H67.6311C68.5197 137.316 69.3031 137.487 69.9812 137.83C70.6593 138.165 71.1893 138.637 71.5712 139.245C71.9532 139.853 72.1441 140.574 72.1441 141.408C72.1441 142.234 71.9532 142.955 71.5712 143.571C71.1893 144.179 70.6593 144.654 69.9812 144.997C69.3031 145.332 68.5197 145.5 67.6311 145.5H63.9132ZM65.8072 143.945H67.5376C68.0832 143.945 68.5548 143.844 68.9523 143.641C69.3576 143.431 69.6694 143.134 69.8876 142.752C70.1137 142.371 70.2267 141.922 70.2267 141.408C70.2267 140.886 70.1137 140.437 69.8876 140.063C69.6694 139.681 69.3576 139.389 68.9523 139.186C68.5548 138.976 68.0832 138.871 67.5376 138.871H65.8072V143.945ZM81.3007 145.64C80.1394 145.64 79.2313 145.317 78.5766 144.67C77.9218 144.023 77.5945 143.099 77.5945 141.899V137.316H79.4885V141.829C79.4885 142.608 79.6483 143.169 79.9679 143.512C80.2875 143.855 80.7356 144.027 81.3124 144.027C81.8892 144.027 82.3374 143.855 82.657 143.512C82.9766 143.169 83.1363 142.608 83.1363 141.829V137.316H85.007V141.899C85.007 143.099 84.6796 144.023 84.0249 144.67C83.3702 145.317 82.4621 145.64 81.3007 145.64ZM93.6599 145.64C93.0051 145.64 92.3777 145.555 91.7775 145.383C91.1773 145.204 90.6941 144.974 90.3277 144.693L90.9708 143.267C91.3215 143.516 91.7346 143.723 92.2101 143.887C92.6934 144.042 93.1805 144.12 93.6716 144.12C94.0457 144.12 94.3458 144.085 94.5718 144.015C94.8057 143.937 94.9771 143.832 95.0863 143.699C95.1954 143.567 95.2499 143.415 95.2499 143.244C95.2499 143.025 95.1642 142.854 94.9927 142.729C94.8212 142.597 94.5952 142.491 94.3146 142.413C94.034 142.328 93.7222 142.25 93.3793 142.18C93.0441 142.102 92.705 142.008 92.3621 141.899C92.0269 141.79 91.719 141.65 91.4384 141.478C91.1578 141.307 90.9279 141.081 90.7486 140.8C90.5772 140.519 90.4914 140.161 90.4914 139.724C90.4914 139.257 90.6161 138.832 90.8656 138.45C91.1228 138.06 91.5047 137.752 92.0113 137.526C92.5258 137.292 93.1688 137.176 93.9405 137.176C94.4549 137.176 94.9615 137.238 95.4604 137.363C95.9592 137.479 96.3996 137.659 96.7815 137.9L96.197 139.338C95.815 139.12 95.4331 138.96 95.0512 138.859C94.6692 138.75 94.2951 138.695 93.9288 138.695C93.5624 138.695 93.2623 138.738 93.0285 138.824C92.7947 138.91 92.6271 139.023 92.5258 139.163C92.4244 139.296 92.3738 139.451 92.3738 139.631C92.3738 139.841 92.4595 140.013 92.631 140.145C92.8025 140.27 93.0285 140.371 93.3091 140.449C93.5897 140.527 93.8976 140.605 94.2328 140.683C94.5757 140.761 94.9148 140.851 95.2499 140.952C95.5929 141.053 95.9047 141.19 96.1853 141.361C96.4659 141.533 96.6919 141.759 96.8634 142.039C97.0427 142.32 97.1323 142.675 97.1323 143.103C97.1323 143.563 97.0037 143.984 96.7465 144.366C96.4893 144.748 96.1034 145.056 95.589 145.29C95.0824 145.523 94.4393 145.64 93.6599 145.64ZM104.1 145.5V138.859H101.481V137.316H108.613V138.859H105.994V145.5H104.1ZM113.724 145.5V137.316H117.266C117.999 137.316 118.631 137.437 119.161 137.678C119.691 137.912 120.1 138.251 120.388 138.695C120.677 139.14 120.821 139.67 120.821 140.286C120.821 140.893 120.677 141.42 120.388 141.864C120.1 142.3 119.691 142.636 119.161 142.869C118.631 143.103 117.999 143.22 117.266 143.22H114.776L115.618 142.39V145.5H113.724ZM118.927 145.5L116.881 142.53H118.903L120.973 145.5H118.927ZM115.618 142.6L114.776 141.712H117.161C117.746 141.712 118.182 141.587 118.471 141.338C118.759 141.081 118.903 140.73 118.903 140.286C118.903 139.833 118.759 139.483 118.471 139.233C118.182 138.984 117.746 138.859 117.161 138.859H114.776L115.618 137.959V142.6ZM128.334 145.5V142.156L128.766 143.302L125.165 137.316H127.176L129.935 141.911H128.778L131.549 137.316H133.408L129.807 143.302L130.228 142.156V145.5H128.334ZM145.088 143.781V142.507L148.946 137.316H150.934L147.157 142.507L146.233 142.238H152.676V143.781H145.088ZM149.495 145.5V143.781L149.554 142.238V140.706H151.343V145.5H149.495ZM158.638 145.594C158.326 145.594 158.057 145.488 157.831 145.278C157.613 145.06 157.504 144.783 157.504 144.448C157.504 144.113 157.613 143.844 157.831 143.641C158.057 143.431 158.326 143.325 158.638 143.325C158.958 143.325 159.227 143.431 159.445 143.641C159.663 143.844 159.772 144.113 159.772 144.448C159.772 144.783 159.663 145.06 159.445 145.278C159.227 145.488 158.958 145.594 158.638 145.594ZM168.074 145.64C167.403 145.64 166.803 145.477 166.273 145.149C165.743 144.814 165.326 144.331 165.022 143.699C164.718 143.068 164.566 142.304 164.566 141.408C164.566 140.512 164.718 139.748 165.022 139.116C165.326 138.485 165.743 138.006 166.273 137.678C166.803 137.343 167.403 137.176 168.074 137.176C168.752 137.176 169.352 137.343 169.874 137.678C170.404 138.006 170.821 138.485 171.125 139.116C171.429 139.748 171.581 140.512 171.581 141.408C171.581 142.304 171.429 143.068 171.125 143.699C170.821 144.331 170.404 144.814 169.874 145.149C169.352 145.477 168.752 145.64 168.074 145.64ZM168.074 144.039C168.393 144.039 168.67 143.949 168.904 143.77C169.145 143.59 169.332 143.306 169.465 142.916C169.605 142.526 169.675 142.024 169.675 141.408C169.675 140.792 169.605 140.289 169.465 139.9C169.332 139.51 169.145 139.225 168.904 139.046C168.67 138.867 168.393 138.777 168.074 138.777C167.762 138.777 167.485 138.867 167.244 139.046C167.01 139.225 166.823 139.51 166.682 139.9C166.55 140.289 166.484 140.792 166.484 141.408C166.484 142.024 166.55 142.526 166.682 142.916C166.823 143.306 167.01 143.59 167.244 143.77C167.485 143.949 167.762 144.039 168.074 144.039ZM184.511 145.5V137.316H188.054C188.786 137.316 189.418 137.437 189.948 137.678C190.478 137.912 190.887 138.251 191.175 138.695C191.464 139.14 191.608 139.67 191.608 140.286C191.608 140.893 191.464 141.42 191.175 141.864C190.887 142.308 190.478 142.651 189.948 142.893C189.418 143.127 188.786 143.244 188.054 143.244H185.563L186.405 142.39V145.5H184.511ZM186.405 142.6L185.563 141.7H187.949C188.533 141.7 188.97 141.575 189.258 141.326C189.546 141.077 189.691 140.73 189.691 140.286C189.691 139.833 189.546 139.483 189.258 139.233C188.97 138.984 188.533 138.859 187.949 138.859H185.563L186.405 137.959V142.6ZM197.052 145.5V137.316H198.946V143.957H203.05V145.5H197.052ZM207.171 145.5L210.818 137.316H212.689L216.349 145.5H214.361L211.368 138.275H212.116L209.111 145.5H207.171ZM208.994 143.746L209.497 142.308H213.706L214.221 143.746H208.994ZM222.574 145.5V138.859H219.955V137.316H227.087V138.859H224.468V145.5H222.574ZM233.952 140.999H237.88V142.519H233.952V140.999ZM234.092 145.5H232.198V137.316H238.383V138.836H234.092V145.5ZM247.653 145.64C247.006 145.64 246.406 145.535 245.852 145.325C245.307 145.114 244.831 144.818 244.426 144.436C244.028 144.054 243.717 143.606 243.49 143.092C243.272 142.577 243.163 142.016 243.163 141.408C243.163 140.8 243.272 140.239 243.49 139.724C243.717 139.21 244.032 138.762 244.437 138.38C244.843 137.998 245.318 137.702 245.864 137.491C246.409 137.281 247.002 137.176 247.641 137.176C248.288 137.176 248.88 137.281 249.418 137.491C249.964 137.702 250.435 137.998 250.833 138.38C251.238 138.762 251.554 139.21 251.78 139.724C252.006 140.231 252.119 140.792 252.119 141.408C252.119 142.016 252.006 142.581 251.78 143.103C251.554 143.618 251.238 144.066 250.833 144.448C250.435 144.822 249.964 145.114 249.418 145.325C248.88 145.535 248.292 145.64 247.653 145.64ZM247.641 144.027C248.007 144.027 248.343 143.964 248.647 143.84C248.958 143.715 249.231 143.536 249.465 143.302C249.699 143.068 249.878 142.791 250.003 142.472C250.135 142.152 250.201 141.798 250.201 141.408C250.201 141.018 250.135 140.664 250.003 140.344C249.878 140.024 249.699 139.748 249.465 139.514C249.239 139.28 248.97 139.101 248.658 138.976C248.346 138.851 248.007 138.789 247.641 138.789C247.275 138.789 246.936 138.851 246.624 138.976C246.32 139.101 246.051 139.28 245.817 139.514C245.583 139.748 245.4 140.024 245.268 140.344C245.143 140.664 245.081 141.018 245.081 141.408C245.081 141.79 245.143 142.144 245.268 142.472C245.4 142.791 245.579 143.068 245.805 143.302C246.039 143.536 246.312 143.715 246.624 143.84C246.936 143.964 247.275 144.027 247.641 144.027ZM257.634 145.5V137.316H261.177C261.91 137.316 262.541 137.437 263.071 137.678C263.601 137.912 264.01 138.251 264.299 138.695C264.587 139.14 264.731 139.67 264.731 140.286C264.731 140.893 264.587 141.42 264.299 141.864C264.01 142.3 263.601 142.636 263.071 142.869C262.541 143.103 261.91 143.22 261.177 143.22H258.687L259.529 142.39V145.5H257.634ZM262.837 145.5L260.791 142.53H262.814L264.883 145.5H262.837ZM259.529 142.6L258.687 141.712H261.072C261.656 141.712 262.093 141.587 262.381 141.338C262.67 141.081 262.814 140.73 262.814 140.286C262.814 139.833 262.67 139.483 262.381 139.233C262.093 138.984 261.656 138.859 261.072 138.859H258.687L259.529 137.959V142.6ZM270.324 145.5V137.316H271.891L275.375 143.092H274.545L277.97 137.316H279.525L279.549 145.5H277.772L277.76 140.04H278.087L275.352 144.635H274.498L271.704 140.04H272.101V145.5H270.324Z"
          fill="#5FA8A3"/>
    <defs>
        <filter id="filter0_i_449_38801" x="4.6521" y="6.5" width="312.924" height="126" filterUnits="userSpaceOnUse"
                color-interpolation-filters="sRGB">
            <feFlood flood-opacity="0" result="BackgroundImageFix"/>
            <feBlend mode="normal" in="SourceGraphic" in2="BackgroundImageFix" result="shape"/>
            <feColorMatrix in="SourceAlpha" type="matrix" values="0 0 0 0 0 0 0 0 0 0 0 0 0 0 0 0 0 0 127 0"
                           result="hardAlpha"/>
            <feOffset dy="2"/>
            <feGaussianBlur stdDeviation="9.5"/>
            <feComposite in2="hardAlpha" operator="arithmetic" k2="-1" k3="1"/>
            <feColorMatrix type="matrix" values="0 0 0 0 0 0 0 0 0 0 0 0 0 0 0 0 0 0 0.25 0"/>
            <feBlend mode="normal" in2="shape" result="effect1_innerShadow_449_38801"/>
        </filter>
        <filter id="filter1_d_449_38801" x="0.729492" y="0.327881" width="137.486" height="136.374"
                filterUnits="userSpaceOnUse" color-interpolation-filters="sRGB">
            <feFlood flood-opacity="0" result="BackgroundImageFix"/>
            <feColorMatrix in="SourceAlpha" type="matrix" values="0 0 0 0 0 0 0 0 0 0 0 0 0 0 0 0 0 0 127 0"
                           result="hardAlpha"/>
            <feOffset dx="4"/>
            <feGaussianBlur stdDeviation="4"/>
            <feComposite in2="hardAlpha" operator="out"/>
            <feColorMatrix type="matrix" values="0 0 0 0 0 0 0 0 0 0 0 0 0 0 0 0 0 0 0.25 0"/>
            <feBlend mode="normal" in2="BackgroundImageFix" result="effect1_dropShadow_449_38801"/>
            <feBlend mode="normal" in="SourceGraphic" in2="effect1_dropShadow_449_38801" result="shape"/>
        </filter>
    </defs>
</svg>
