<svg width="182" height="77" viewBox="0 0 182 77" fill="none" xmlns="http://www.w3.org/2000/svg">
    <g filter="url(#filter0_dd_281_3713)">
        <path d="M156.201 69H30.1206C15.6943 69 4 57.413 4 43.1203V14.1605C3.99938 6.3394 10.3984 0 18.2917 0H160.557C170.19 0 178 7.73765 178 17.2826V47.4022C177.999 59.3303 168.24 69 156.201 69Z"
              fill="#4E4E4E"/>
        <path d="M105.196 21.9914L100.603 34.3182L96.0382 21.9914H93.6833L89.0316 34.26L84.5544 21.9914H81.9088L87.6361 37.3999H90.3108L94.8171 25.7127L99.2652 37.3999H101.94L107.696 21.9914H105.196ZM111.924 19.0259C113.029 19.0259 113.814 18.2119 113.814 17.1653C113.814 16.1768 113 15.3918 111.924 15.3918C110.848 15.3918 110.034 16.2059 110.034 17.2234C110.034 18.241 110.848 19.0259 111.924 19.0259ZM110.528 37.3999H113.319V21.9914H110.528V37.3999ZM123.067 37.5743C127.167 37.5743 129.725 35.8009 129.725 33.0099C129.725 27.0209 119.957 29.9864 119.957 26.3523C119.957 25.1312 121.149 24.23 123.591 24.23C125.102 24.23 126.643 24.5498 128.039 25.451L129.231 23.2415C127.893 22.3693 125.626 21.846 123.62 21.846C119.666 21.846 117.195 23.7066 117.195 26.4686C117.195 32.6029 126.934 29.6084 126.934 33.0681C126.934 34.3763 125.858 35.1613 123.271 35.1613C121.265 35.1613 119.172 34.4926 117.863 33.5623L116.7 35.7718C117.98 36.7894 120.509 37.5743 123.067 37.5743ZM147.139 29.7828C147.139 25.044 143.97 21.846 139.522 21.846C135.074 21.846 131.789 25.1312 131.789 29.6956C131.789 34.2891 135.103 37.5743 140.074 37.5743C142.633 37.5743 144.755 36.7022 146.15 35.0741L144.61 33.2716C143.476 34.5217 141.964 35.1322 140.161 35.1322C137.109 35.1322 134.928 33.3297 134.58 30.626H147.081C147.11 30.3643 147.139 30.0154 147.139 29.7828ZM139.522 24.2009C142.226 24.2009 144.174 26.0325 144.464 28.6199H134.58C134.87 26.0034 136.847 24.2009 139.522 24.2009ZM153.689 24.5788V21.9914H151.014V37.3999H153.805V29.7247C153.805 26.3523 155.666 24.5207 158.661 24.5207C158.864 24.5207 159.068 24.5207 159.3 24.5498V21.846C156.596 21.846 154.678 22.7763 153.689 24.5788Z"
              fill="white"/>
        <path d="M94.7568 41.741C93.2448 41.741 92.1071 42.4895 91.5981 43.6272C91.1789 42.3847 90.146 41.741 88.7388 41.741C87.3167 41.741 86.2538 42.3847 85.7448 43.4775V41.8009H85.0263V49.6152H85.7748V45.4536C85.7748 43.5973 86.8676 42.4147 88.634 42.4147C90.161 42.4147 91.0742 43.3428 91.0742 45.1093V49.6152H91.8227V45.4536C91.8227 43.5973 92.9155 42.4147 94.6819 42.4147C96.2089 42.4147 97.122 43.3428 97.122 45.1093V49.6152H97.8705V45.0494C97.8705 42.8638 96.643 41.741 94.7568 41.741ZM103.596 41.741C102.383 41.741 101.246 42.1602 100.467 42.8488L100.841 43.3877C101.485 42.8039 102.458 42.3997 103.536 42.3997C105.063 42.3997 105.856 43.1781 105.856 44.6302V45.259H103.177C101.006 45.259 100.258 46.262 100.258 47.4446C100.258 48.7769 101.32 49.6751 103.072 49.6751C104.434 49.6751 105.392 49.1212 105.886 48.223V49.6152H106.605V44.6602C106.605 42.729 105.527 41.741 103.596 41.741ZM103.177 49.0613C101.799 49.0613 101.006 48.4326 101.006 47.4146C101.006 46.5164 101.575 45.8428 103.192 45.8428H105.856V47.3099C105.407 48.4326 104.494 49.0613 103.177 49.0613ZM112.802 49.6751C114.045 49.6751 115.123 49.1811 115.766 48.238L115.212 47.8338C114.643 48.6272 113.775 49.0015 112.802 49.0015C110.961 49.0015 109.614 47.6841 109.614 45.7081C109.614 43.732 110.961 42.4147 112.802 42.4147C113.775 42.4147 114.643 42.7889 115.212 43.5823L115.766 43.1781C115.123 42.2201 114.045 41.741 112.802 41.741C110.512 41.741 108.85 43.3727 108.85 45.7081C108.85 48.0284 110.512 49.6751 112.802 49.6751ZM121.693 41.741C120.241 41.741 119.163 42.3698 118.624 43.4326V38.5075H117.875V49.6152H118.624V45.4536C118.624 43.5973 119.747 42.4147 121.588 42.4147C123.175 42.4147 124.118 43.3428 124.118 45.1093V49.6152H124.866V45.0494C124.866 42.8638 123.594 41.741 121.693 41.741ZM128.322 39.8997C128.667 39.8997 128.936 39.6302 128.936 39.2859C128.936 38.9566 128.667 38.6871 128.322 38.6871C127.978 38.6871 127.709 38.9716 127.709 39.3009C127.709 39.6302 127.978 39.8997 128.322 39.8997ZM127.948 49.6152H128.697V41.8009H127.948V49.6152ZM135.669 41.741C134.187 41.741 133.094 42.3997 132.57 43.4925V41.8009H131.851V49.6152H132.6V45.4536C132.6 43.5973 133.723 42.4147 135.564 42.4147C137.151 42.4147 138.094 43.3428 138.094 45.1093V49.6152H138.842V45.0494C138.842 42.8638 137.57 41.741 135.669 41.741ZM148.555 45.6781C148.555 43.3578 146.968 41.741 144.828 41.741C142.687 41.741 141.085 43.3877 141.085 45.7081C141.085 48.0284 142.747 49.6751 145.112 49.6751C146.295 49.6751 147.373 49.241 148.061 48.4027L147.627 47.9087C147.028 48.6422 146.115 49.0015 145.127 49.0015C143.256 49.0015 141.894 47.744 141.819 45.8877H148.54C148.54 45.8129 148.555 45.738 148.555 45.6781ZM144.828 42.3997C146.489 42.3997 147.717 43.6123 147.822 45.3039H141.834C141.954 43.5973 143.166 42.3997 144.828 42.3997ZM152.847 49.6751C154.838 49.6751 155.931 48.8069 155.931 47.5344C155.931 44.5554 150.751 46.217 150.751 43.8668C150.751 43.0284 151.425 42.3997 152.952 42.3997C153.79 42.3997 154.643 42.6242 155.302 43.1033L155.646 42.5045C155.033 42.0404 153.955 41.741 152.967 41.741C150.991 41.741 150.003 42.6991 150.003 43.8817C150.003 46.9506 155.182 45.2739 155.182 47.5494C155.182 48.4326 154.524 49.0164 152.877 49.0164C151.724 49.0164 150.661 48.5823 150.062 48.0733L149.718 48.6721C150.332 49.241 151.559 49.6751 152.847 49.6751ZM158.433 49.6952C158.893 49.6952 159.273 49.3152 159.273 48.8352C159.273 48.3552 158.893 47.9952 158.433 47.9952C157.973 47.9952 157.593 48.3552 157.593 48.8352C157.593 49.3152 157.973 49.6952 158.433 49.6952Z"
              fill="white"/>
        <path d="M31.151 24.8624L28.8384 34.4328C28.6845 35.0699 28.2149 35.5666 27.5852 35.7605C27.4017 35.8174 27.214 35.8452 27.0287 35.8452C26.5889 35.8452 26.1606 35.689 25.8174 35.3924L20.9169 31.3482L17.5862 32.4027C17.5862 32.4027 17.5861 32.4027 17.5861 32.4027C17.1996 32.5255 16.9387 32.8806 16.9387 33.2808V38.9245C16.9387 41.4188 17.4311 43.8359 18.4023 46.1107L18.2899 46.1587L18.4023 46.1107C19.3407 48.309 20.6848 50.2838 22.3977 51.981C24.11 53.6775 26.104 55.0093 28.3218 55.941C29.8965 56.6008 31.5387 57.0372 33.2267 57.2465L33.2268 57.2465C33.7139 57.3072 34.1678 56.9878 34.2763 56.5141L34.2763 56.514L38.3623 38.7087L38.3623 38.7087C38.509 38.0703 38.9913 37.5545 39.621 37.3604C40.2506 37.1664 40.9428 37.3212 41.4277 37.7639L41.4277 37.7639L48.5593 44.2758L50.8719 34.7053C51.0258 34.0682 51.4955 33.5715 52.1253 33.3776C52.7451 33.1866 53.4043 33.3239 53.8929 33.7457C53.8932 33.746 53.8936 33.7463 53.894 33.7467L58.7934 37.79L62.5315 36.6063L62.5315 36.6063C62.8986 36.4903 63.1464 36.1532 63.1464 35.7733V24.1245C63.1464 22.4335 62.8124 20.7955 62.1549 19.2547C61.519 17.7652 60.6077 16.4267 59.4467 15.2764C58.2856 14.126 56.9346 13.223 55.4309 12.5929L55.4792 12.4776L55.4309 12.5928C53.8755 11.9407 52.2212 11.6103 50.5145 11.6103H46.6755C46.085 11.6103 45.5736 12.015 45.4434 12.5839L45.4434 12.584L41.3481 30.4306L31.151 24.8624ZM31.151 24.8624L38.2832 31.3755L38.2832 31.3755C38.7682 31.8182 39.4603 31.973 40.09 31.779C40.7196 31.5849 41.202 31.0691 41.348 30.4307L31.151 24.8624ZM58.8943 53.1777L58.8106 53.0931C60.1718 51.7451 61.239 50.1762 61.9847 48.4302C62.7556 46.6237 63.147 44.7034 63.1477 42.7213V39.5257C63.1477 39.311 62.9358 39.1552 62.7254 39.2216L58.8943 53.1777ZM58.8943 53.1777L58.8106 53.0932C57.45 54.4412 55.8663 55.4993 54.1038 56.2382M58.8943 53.1777L62.7254 39.2216L59.2026 40.3369L59.2025 40.3369C58.5867 40.5314 57.9085 40.3922 57.4216 39.9734C57.4213 39.9732 57.421 39.9729 57.4207 39.9726L53.1054 36.4115L50.7769 46.0464L50.6554 46.0171L50.7769 46.0465C50.6217 46.6881 50.1486 47.1856 49.5129 47.3774C48.8772 47.5693 48.2047 47.417 47.7162 46.9707C47.7162 46.9707 47.7162 46.9707 47.7162 46.9707L40.596 40.4699L36.8692 56.7102C36.7895 57.0574 37.0556 57.3901 37.4183 57.3901H48.3418C50.3416 57.3901 52.2802 57.0022 54.1038 56.2382M54.1038 56.2382L54.1506 56.3498L54.1038 56.2382C54.1038 56.2382 54.1038 56.2382 54.1038 56.2382ZM42.8493 12.3958L42.8493 12.3959L39.1149 28.6683L31.9954 22.1669C31.9954 22.1669 31.9954 22.1669 31.9954 22.1669C31.5069 21.7206 30.8343 21.5683 30.1987 21.7601C29.5629 21.952 29.0898 22.4495 28.9346 23.0911L28.9346 23.0911L26.6062 32.7254L22.2909 29.1644C22.2906 29.1641 22.2902 29.1638 22.2899 29.1635C21.8031 28.7447 21.1242 28.6055 20.509 28.8001L20.509 28.8001L17.6896 29.6929L17.6895 29.6929C17.3164 29.8112 16.9375 29.5349 16.9375 29.1503V20.1306C16.9375 20.1306 16.9375 20.1306 16.9375 20.1306C16.9387 17.4718 18.1599 14.9986 20.3412 13.3389C21.8314 12.2051 23.6698 11.6103 25.5513 11.6103H42.2153C42.634 11.6103 42.9414 11.9948 42.8493 12.3958ZM50.5151 8.65088H25.5395C19.1424 8.65088 13.9541 13.7896 13.9541 20.1306V38.9245C13.9541 50.7577 23.6362 60.3489 35.5768 60.3489H48.3412C58.1651 60.3489 66.131 52.4581 66.131 42.722V24.1239C66.131 15.5778 59.1386 8.65088 50.5151 8.65088Z"
              fill="white" stroke="#4E4E4E" stroke-width="0.25"/>
    </g>
    <defs>
        <filter id="filter0_dd_281_3713" x="0" y="0" width="182" height="77" filterUnits="userSpaceOnUse"
                color-interpolation-filters="sRGB">
            <feFlood flood-opacity="0" result="BackgroundImageFix"/>
            <feColorMatrix in="SourceAlpha" type="matrix" values="0 0 0 0 0 0 0 0 0 0 0 0 0 0 0 0 0 0 127 0"
                           result="hardAlpha"/>
            <feOffset dy="4"/>
            <feGaussianBlur stdDeviation="2"/>
            <feComposite in2="hardAlpha" operator="out"/>
            <feColorMatrix type="matrix" values="0 0 0 0 0 0 0 0 0 0 0 0 0 0 0 0 0 0 0.25 0"/>
            <feBlend mode="normal" in2="BackgroundImageFix" result="effect1_dropShadow_281_3713"/>
            <feColorMatrix in="SourceAlpha" type="matrix" values="0 0 0 0 0 0 0 0 0 0 0 0 0 0 0 0 0 0 127 0"
                           result="hardAlpha"/>
            <feOffset dy="4"/>
            <feGaussianBlur stdDeviation="2"/>
            <feComposite in2="hardAlpha" operator="out"/>
            <feColorMatrix type="matrix" values="0 0 0 0 0 0 0 0 0 0 0 0 0 0 0 0 0 0 0.25 0"/>
            <feBlend mode="normal" in2="effect1_dropShadow_281_3713" result="effect2_dropShadow_281_3713"/>
            <feBlend mode="normal" in="SourceGraphic" in2="effect2_dropShadow_281_3713" result="shape"/>
        </filter>
    </defs>
</svg>
