<svg width="30" height="30" viewBox="0 0 30 30" fill="none" xmlns="http://www.w3.org/2000/svg">
    <rect width="30" height="30" rx="9" fill="#C4C4C4"/>
    <g clip-path="url(#clip0_346_1758)">
        <mask id="path-2-inside-1_346_1758" fill="white">
            <path fill-rule="evenodd" clip-rule="evenodd"
                  d="M10.472 7.94238C9.10675 7.94238 8 9.04913 8 10.4144V19.751C8 21.1163 9.10676 22.223 10.472 22.223H19.3519C20.7171 22.223 21.8239 21.1163 21.8239 19.751V10.4144C21.8239 9.04914 20.7171 7.94238 19.3519 7.94238H10.472ZM15.9316 15.3828V10.3828H18.9785V15.3828L17.4551 13.8594L15.9316 15.3828Z"/>
        </mask>
        <path fill-rule="evenodd" clip-rule="evenodd"
              d="M10.472 7.94238C9.10675 7.94238 8 9.04913 8 10.4144V19.751C8 21.1163 9.10676 22.223 10.472 22.223H19.3519C20.7171 22.223 21.8239 21.1163 21.8239 19.751V10.4144C21.8239 9.04914 20.7171 7.94238 19.3519 7.94238H10.472ZM15.9316 15.3828V10.3828H18.9785V15.3828L17.4551 13.8594L15.9316 15.3828Z"
              fill="#4E4E4E"/>
        <path d="M15.9316 10.3828V9.58281H15.1316V10.3828H15.9316ZM15.9316 15.3828H15.1316V17.3142L16.4973 15.9485L15.9316 15.3828ZM18.9785 10.3828H19.7785V9.58281H18.9785V10.3828ZM18.9785 15.3828L18.4128 15.9485L19.7785 17.3142V15.3828H18.9785ZM17.4551 13.8594L18.0208 13.2937L17.4551 12.728L16.8894 13.2937L17.4551 13.8594ZM8.8 10.4144C8.8 9.49096 9.54858 8.74238 10.472 8.74238V7.14238C8.66493 7.14238 7.2 8.60731 7.2 10.4144H8.8ZM8.8 19.751V10.4144H7.2V19.751H8.8ZM10.472 21.423C9.54858 21.423 8.8 20.6745 8.8 19.751H7.2C7.2 21.5581 8.66493 23.023 10.472 23.023V21.423ZM19.3519 21.423H10.472V23.023H19.3519V21.423ZM21.0239 19.751C21.0239 20.6745 20.2753 21.423 19.3519 21.423V23.023C21.159 23.023 22.6239 21.5581 22.6239 19.751H21.0239ZM21.0239 10.4144V19.751H22.6239V10.4144H21.0239ZM19.3519 8.74238C20.2753 8.74238 21.0239 9.49097 21.0239 10.4144H22.6239C22.6239 8.60731 21.159 7.14238 19.3519 7.14238V8.74238ZM10.472 8.74238H19.3519V7.14238H10.472V8.74238ZM15.1316 10.3828V15.3828H16.7316V10.3828H15.1316ZM18.9785 9.58281H15.9316V11.1828H18.9785V9.58281ZM19.7785 15.3828V10.3828H18.1785V15.3828H19.7785ZM16.8894 14.4251L18.4128 15.9485L19.5442 14.8171L18.0208 13.2937L16.8894 14.4251ZM16.4973 15.9485L18.0208 14.4251L16.8894 13.2937L15.366 14.8171L16.4973 15.9485Z"
              fill="#4E4E4E" mask="url(#path-2-inside-1_346_1758)"/>
    </g>
    <defs>
        <clipPath id="clip0_346_1758">
            <rect width="16" height="16" fill="white" transform="translate(7 6.94238)"/>
        </clipPath>
    </defs>
</svg>
