<svg class="svg-icon" style="width: 1em; height: 1em;vertical-align: middle;fill: currentColor;overflow: hidden;" viewBox="0 0 1024 1024" version="1.1" xmlns="http://www.w3.org/2000/svg"><path d="M508.8 899.2h6.4c211.2 0 380.8-169.6 380.8-380.8V512c0-211.2-169.6-380.8-380.8-380.8h-6.4C297.6 131.2 128 300.8 128 512v6.4c0 211.2 169.6 380.8 380.8 380.8zM192 512c0-176 140.8-316.8 316.8-316.8h6.4c176 0 316.8 140.8 316.8 316.8v6.4c0 73.6-25.6 140.8-67.2 195.2-19.2-70.4-76.8-128-153.6-156.8 25.6-25.6 41.6-60.8 41.6-99.2V416c0-76.8-64-140.8-140.8-140.8s-140.8 64-140.8 140.8v41.6c0 38.4 16 73.6 41.6 99.2-80 25.6-137.6 86.4-156.8 156.8-38.4-54.4-64-121.6-64-195.2V512z m92.8 230.4c9.6-76.8 73.6-140.8 163.2-163.2 19.2 9.6 41.6 16 64 16s44.8-6.4 64-16c86.4 22.4 153.6 86.4 160 163.2-57.6 57.6-134.4 92.8-224 92.8h-6.4c-83.2 0-163.2-35.2-220.8-92.8z m121.6-284.8V416c0-60.8 48-108.8 108.8-108.8s108.8 48 108.8 108.8v41.6c0 60.8-48 108.8-108.8 108.8s-108.8-48-108.8-108.8z" fill="#707070" /></svg>