<svg width="12" height="16" viewBox="0 0 12 16" fill="none" xmlns="http://www.w3.org/2000/svg">
    <path d="M2 0C1.46957 0 0.960859 0.210714 0.585786 0.585786C0.210714 0.960859 0 1.46957 0 2V14C0 14.5304 0.210714 15.0391 0.585786 15.4142C0.960859 15.7893 1.46957 16 2 16H10C10.5304 16 11.0391 15.7893 11.4142 15.4142C11.7893 15.0391 12 14.5304 12 14V2C12 1.46957 11.7893 0.960859 11.4142 0.585786C11.0391 0.210714 10.5304 0 10 0L2 0ZM2 1.5C2 1.63261 1.94732 1.75979 1.85355 1.85355C1.75979 1.94732 1.63261 2 1.5 2C1.36739 2 1.24021 1.94732 1.14645 1.85355C1.05268 1.75979 1 1.63261 1 1.5C1 1.36739 1.05268 1.24021 1.14645 1.14645C1.24021 1.05268 1.36739 1 1.5 1C1.63261 1 1.75979 1.05268 1.85355 1.14645C1.94732 1.24021 2 1.36739 2 1.5ZM11 1.5C11 1.63261 10.9473 1.75979 10.8536 1.85355C10.7598 1.94732 10.6326 2 10.5 2C10.3674 2 10.2402 1.94732 10.1464 1.85355C10.0527 1.75979 10 1.63261 10 1.5C10 1.36739 10.0527 1.24021 10.1464 1.14645C10.2402 1.05268 10.3674 1 10.5 1C10.6326 1 10.7598 1.05268 10.8536 1.14645C10.9473 1.24021 11 1.36739 11 1.5ZM1.5 11C1.63261 11 1.75979 10.9473 1.85355 10.8536C1.94732 10.7598 2 10.6326 2 10.5C2 10.3674 1.94732 10.2402 1.85355 10.1464C1.75979 10.0527 1.63261 10 1.5 10C1.36739 10 1.24021 10.0527 1.14645 10.1464C1.05268 10.2402 1 10.3674 1 10.5C1 10.6326 1.05268 10.7598 1.14645 10.8536C1.24021 10.9473 1.36739 11 1.5 11ZM11 10.5C11 10.6326 10.9473 10.7598 10.8536 10.8536C10.7598 10.9473 10.6326 11 10.5 11C10.3674 11 10.2402 10.9473 10.1464 10.8536C10.0527 10.7598 10 10.6326 10 10.5C10 10.3674 10.0527 10.2402 10.1464 10.1464C10.2402 10.0527 10.3674 10 10.5 10C10.6326 10 10.7598 10.0527 10.8536 10.1464C10.9473 10.2402 11 10.3674 11 10.5ZM2.75 3H9.25C9.44891 3 9.63968 3.07902 9.78033 3.21967C9.92098 3.36032 10 3.55109 10 3.75V8.25C10 8.44891 9.92098 8.63968 9.78033 8.78033C9.63968 8.92098 9.44891 9 9.25 9H2.75C2.55109 9 2.36032 8.92098 2.21967 8.78033C2.07902 8.63968 2 8.44891 2 8.25V3.75C2 3.55109 2.07902 3.36032 2.21967 3.21967C2.36032 3.07902 2.55109 3 2.75 3ZM3 12H9C9.26522 12 9.51957 12.1054 9.70711 12.2929C9.89464 12.4804 10 12.7348 10 13V15H9V13H8.25V15H7.25V13H6.5V15H5.5V13H4.75V15H3.75V13H3V15H2V13C2 12.7348 2.10536 12.4804 2.29289 12.2929C2.48043 12.1054 2.73478 12 3 12Z"
          fill="#1879B9"/>
</svg>
