<svg width="17" height="17" viewBox="0 0 17 17" fill="none" xmlns="http://www.w3.org/2000/svg">
    <path d="M10.5002 0C11.0882 0 11.6342 0.210004 12.0122 0.588011C12.3902 0.966019 12.6002 1.51203 12.6002 2.10004C12.6002 2.68805 12.2222 3.10806 12.0122 3.61207C11.9492 3.73807 11.9492 3.94808 11.9492 4.20008H16.8003V16.8003H11.9492C11.9492 16.5483 11.9702 16.3383 12.0122 16.2123C12.2222 15.7083 12.6002 15.2883 12.6002 14.7003C12.6002 14.1123 12.3902 13.5663 12.0122 13.1883C11.6342 12.8103 11.0882 12.6002 10.5002 12.6002C9.91219 12.6002 9.36618 12.8103 8.98817 13.1883C8.61016 13.5663 8.40016 14.1123 8.40016 14.7003C8.40016 15.2883 8.77817 15.7083 8.98817 16.2123C9.05117 16.3383 9.05117 16.5483 9.05117 16.8003H4.20008V11.9492C3.94807 11.9492 3.73807 11.9702 3.61207 12.0122C3.10806 12.2222 2.68805 12.6002 2.10004 12.6002C1.51203 12.6002 0.966016 12.3902 0.588009 12.0122C0.210001 11.6342 -3.8147e-06 11.0882 -3.8147e-06 10.5002C-3.8147e-06 9.91219 0.210001 9.36618 0.588009 8.98818C0.966016 8.61017 1.51203 8.40016 2.10004 8.40016C2.68805 8.40016 3.10806 8.77817 3.61207 8.98818C3.73807 9.05118 3.94807 9.05118 4.20008 9.05118V4.20008H9.05117C9.05117 3.94808 9.03017 3.73807 8.98817 3.61207C8.77817 3.10806 8.40016 2.68805 8.40016 2.10004C8.40016 1.51203 8.61016 0.966019 8.98817 0.588011C9.36618 0.210004 9.91219 0 10.5002 0Z"
          fill="#4E4E4E"/>
</svg>
