<svg width="30" height="30" viewBox="0 0 30 30" fill="none" xmlns="http://www.w3.org/2000/svg">
    <rect width="30" height="30" rx="9" fill="#4E4E4E"/>
    <path d="M16.2134 21.6668H13.7868C13.6347 21.6669 13.4872 21.6149 13.3688 21.5196C13.2503 21.4243 13.168 21.2914 13.1354 21.1428L12.8641 19.8868C12.5021 19.7282 12.1589 19.5299 11.8408 19.2955L10.6161 19.6855C10.4711 19.7317 10.3147 19.727 10.1728 19.672C10.0309 19.6171 9.91212 19.5153 9.83609 19.3835L8.62009 17.2828C8.54485 17.1509 8.51661 16.9974 8.53998 16.8473C8.56335 16.6973 8.63696 16.5596 8.74875 16.4568L9.69875 15.5902C9.65555 15.1976 9.65555 14.8014 9.69875 14.4088L8.74875 13.5442C8.6368 13.4413 8.5631 13.3035 8.53972 13.1534C8.51634 13.0032 8.54468 12.8495 8.62009 12.7175L9.83342 10.6155C9.90945 10.4837 10.0283 10.3819 10.1702 10.327C10.3121 10.272 10.4685 10.2673 10.6134 10.3135L11.8381 10.7035C12.0008 10.5835 12.1701 10.4715 12.3448 10.3702C12.5134 10.2755 12.6868 10.1895 12.8641 10.1128L13.1361 8.85816C13.1685 8.70963 13.2506 8.57662 13.369 8.4812C13.4873 8.38577 13.6347 8.33366 13.7868 8.3335H16.2134C16.3654 8.33366 16.5128 8.38577 16.6312 8.4812C16.7495 8.57662 16.8317 8.70963 16.8641 8.85816L17.1388 10.1135C17.5002 10.273 17.8434 10.4713 18.1621 10.7048L19.3874 10.3148C19.5323 10.2688 19.6885 10.2736 19.8303 10.3285C19.972 10.3835 20.0907 10.4852 20.1668 10.6168L21.3801 12.7188C21.5348 12.9902 21.4814 13.3335 21.2514 13.5448L20.3014 14.4115C20.3446 14.8041 20.3446 15.2002 20.3014 15.5928L21.2514 16.4595C21.4814 16.6715 21.5348 17.0142 21.3801 17.2855L20.1668 19.3875C20.0907 19.5193 19.9719 19.6211 19.83 19.676C19.6881 19.731 19.5317 19.7357 19.3868 19.6895L18.1621 19.2995C17.8442 19.5337 17.5012 19.7318 17.1394 19.8902L16.8641 21.1428C16.8316 21.2912 16.7493 21.4241 16.631 21.5194C16.5127 21.6147 16.3653 21.6667 16.2134 21.6668ZM14.9974 12.3335C14.2902 12.3335 13.6119 12.6144 13.1118 13.1145C12.6117 13.6146 12.3308 14.2929 12.3308 15.0002C12.3308 15.7074 12.6117 16.3857 13.1118 16.8858C13.6119 17.3859 14.2902 17.6668 14.9974 17.6668C15.7047 17.6668 16.3829 17.3859 16.883 16.8858C17.3831 16.3857 17.6641 15.7074 17.6641 15.0002C17.6641 14.2929 17.3831 13.6146 16.883 13.1145C16.3829 12.6144 15.7047 12.3335 14.9974 12.3335Z"
          fill="white"/>
</svg>
