<svg width="10" height="7" viewBox="0 0 10 7" fill="none" xmlns="http://www.w3.org/2000/svg">
    <path d="M5.30607 0.804375L9.19131 5.08143C9.64983 5.58466 9.27718 6.375 8.58131 6.375L0.810816 6.375C0.655079 6.37513 0.502604 6.33202 0.37165 6.25084C0.240697 6.16966 0.136817 6.05384 0.0724497 5.91726C0.00808244 5.78068 -0.0140428 5.62913 0.00872238 5.48075C0.0314876 5.33237 0.098179 5.19346 0.200811 5.08065L4.08605 0.805155C4.16209 0.721355 4.25586 0.65419 4.36108 0.608171C4.46629 0.562152 4.58051 0.538343 4.69606 0.538343C4.81162 0.538343 4.92583 0.562152 5.03104 0.608171C5.13626 0.65419 5.23003 0.720574 5.30607 0.804375Z"
          fill="#272727"/>
</svg>
