<svg width="69" height="62" viewBox="0 0 69 62" fill="none" xmlns="http://www.w3.org/2000/svg">
    <path d="M43.8617 18.0585C43.507 18.0585 43.1668 18.1994 42.9161 18.4502C42.6653 18.701 42.5244 19.0411 42.5244 19.3958V19.904L40.5452 17.9248C39.8463 17.2314 38.9018 16.8424 37.9174 16.8424C36.933 16.8424 35.9884 17.2314 35.2896 17.9248L34.3535 18.8609L31.037 15.5444C30.3284 14.8698 29.3875 14.4936 28.4092 14.4936C27.4309 14.4936 26.49 14.8698 25.7814 15.5444L23.8022 17.5236V10.0347C23.8022 9.68003 23.9431 9.33988 24.1939 9.08909C24.4447 8.8383 24.7848 8.6974 25.1395 8.6974H34.5006C34.8553 8.6974 35.1954 8.55651 35.4462 8.30572C35.697 8.05492 35.8379 7.71478 35.8379 7.3601C35.8379 7.00543 35.697 6.66528 35.4462 6.41449C35.1954 6.1637 34.8553 6.02281 34.5006 6.02281H25.1395C24.0755 6.02281 23.055 6.44549 22.3027 7.19786C21.5503 7.95024 21.1276 8.97068 21.1276 10.0347V26.0823C21.1276 27.1463 21.5503 28.1667 22.3027 28.9191C23.055 29.6715 24.0755 30.0942 25.1395 30.0942H41.1871C42.2511 30.0942 43.2715 29.6715 44.0239 28.9191C44.7763 28.1667 45.199 27.1463 45.199 26.0823V19.3958C45.199 19.0411 45.0581 18.701 44.8073 18.4502C44.5565 18.1994 44.2163 18.0585 43.8617 18.0585ZM25.1395 27.4196C24.7848 27.4196 24.4447 27.2787 24.1939 27.0279C23.9431 26.7771 23.8022 26.437 23.8022 26.0823V21.3081L27.6804 17.43C27.8768 17.2427 28.1378 17.1383 28.4092 17.1383C28.6806 17.1383 28.9415 17.2427 29.138 17.43L33.3772 21.6692L39.1276 27.4196H25.1395ZM42.5244 26.0823C42.5224 26.3383 42.438 26.5868 42.2837 26.7911L36.2524 20.7331L37.1886 19.797C37.2844 19.6991 37.3989 19.6214 37.5252 19.5683C37.6515 19.5152 37.7871 19.4879 37.9241 19.4879C38.0611 19.4879 38.1967 19.5152 38.323 19.5683C38.4493 19.6214 38.5637 19.6991 38.6596 19.797L42.5244 23.6885V26.0823ZM48.823 6.41062L44.8112 2.39873C44.684 2.27698 44.534 2.18154 44.3698 2.11789C44.0443 1.98414 43.6791 1.98414 43.3535 2.11789C43.1893 2.18154 43.0394 2.27698 42.9122 2.39873L38.9003 6.41062C38.6485 6.66244 38.507 7.00398 38.507 7.3601C38.507 7.71623 38.6485 8.05777 38.9003 8.30959C39.1521 8.5614 39.4937 8.70287 39.8498 8.70287C40.2059 8.70287 40.5474 8.5614 40.7993 8.30959L42.5244 6.5711V14.0466C42.5244 14.4013 42.6653 14.7414 42.9161 14.9922C43.1668 15.243 43.507 15.3839 43.8617 15.3839C44.2163 15.3839 44.5565 15.243 44.8073 14.9922C45.0581 14.7414 45.199 14.4013 45.199 14.0466V6.5711L46.9241 8.30959C47.0484 8.43493 47.1963 8.53442 47.3593 8.60231C47.5222 8.6702 47.697 8.70516 47.8736 8.70516C48.0501 8.70516 48.2249 8.6702 48.3879 8.60231C48.5508 8.53442 48.6987 8.43493 48.823 8.30959C48.9484 8.18527 49.0479 8.03736 49.1158 7.8744C49.1837 7.71144 49.2186 7.53664 49.2186 7.3601C49.2186 7.18356 49.1837 7.00877 49.1158 6.84581C49.0479 6.68285 48.9484 6.53494 48.823 6.41062Z"
          fill="#4E4E4E"/>
    <path d="M16.6304 43.8515C15.8624 43.8515 15.2597 43.6355 14.8224 43.2035C14.3904 42.7715 14.1744 42.1475 14.1744 41.3315V38.1715H15.2144V41.2915C15.2144 41.8675 15.337 42.2862 15.5824 42.5475C15.833 42.8088 16.185 42.9395 16.6384 42.9395C17.0917 42.9395 17.441 42.8088 17.6864 42.5475C17.9317 42.2862 18.0544 41.8675 18.0544 41.2915V38.1715H19.0784V41.3315C19.0784 42.1475 18.8597 42.7715 18.4224 43.2035C17.9904 43.6355 17.393 43.8515 16.6304 43.8515ZM22.8069 43.8275C22.4602 43.8275 22.1429 43.7475 21.8549 43.5875C21.5722 43.4275 21.3455 43.1875 21.1749 42.8675C21.0095 42.5422 20.9269 42.1315 20.9269 41.6355C20.9269 41.1342 21.0069 40.7235 21.1669 40.4035C21.3322 40.0835 21.5562 39.8462 21.8389 39.6915C22.1215 39.5315 22.4442 39.4515 22.8069 39.4515C23.2282 39.4515 23.5989 39.5422 23.9189 39.7235C24.2442 39.9048 24.5002 40.1582 24.6869 40.4835C24.8789 40.8088 24.9749 41.1928 24.9749 41.6355C24.9749 42.0782 24.8789 42.4648 24.6869 42.7955C24.5002 43.1208 24.2442 43.3742 23.9189 43.5555C23.5989 43.7368 23.2282 43.8275 22.8069 43.8275ZM20.4389 45.3235V39.4995H21.3909V40.5075L21.3589 41.6435L21.4389 42.7795V45.3235H20.4389ZM22.6949 42.9715C22.9349 42.9715 23.1482 42.9182 23.3349 42.8115C23.5269 42.7048 23.6789 42.5502 23.7909 42.3475C23.9029 42.1448 23.9589 41.9075 23.9589 41.6355C23.9589 41.3582 23.9029 41.1208 23.7909 40.9235C23.6789 40.7208 23.5269 40.5662 23.3349 40.4595C23.1482 40.3528 22.9349 40.2995 22.6949 40.2995C22.4549 40.2995 22.2389 40.3528 22.0469 40.4595C21.8549 40.5662 21.7029 40.7208 21.5909 40.9235C21.4789 41.1208 21.4229 41.3582 21.4229 41.6355C21.4229 41.9075 21.4789 42.1448 21.5909 42.3475C21.7029 42.5502 21.8549 42.7048 22.0469 42.8115C22.2389 42.9182 22.4549 42.9715 22.6949 42.9715ZM25.9233 43.7715V37.8355H26.9233V43.7715H25.9233ZM30.1558 43.8275C29.7184 43.8275 29.3291 43.7342 28.9878 43.5475C28.6464 43.3555 28.3771 43.0942 28.1798 42.7635C27.9824 42.4328 27.8838 42.0568 27.8838 41.6355C27.8838 41.2088 27.9824 40.8328 28.1798 40.5075C28.3771 40.1768 28.6464 39.9182 28.9878 39.7315C29.3291 39.5448 29.7184 39.4515 30.1558 39.4515C30.5984 39.4515 30.9904 39.5448 31.3318 39.7315C31.6784 39.9182 31.9478 40.1742 32.1398 40.4995C32.3371 40.8248 32.4358 41.2035 32.4358 41.6355C32.4358 42.0568 32.3371 42.4328 32.1398 42.7635C31.9478 43.0942 31.6784 43.3555 31.3318 43.5475C30.9904 43.7342 30.5984 43.8275 30.1558 43.8275ZM30.1558 42.9715C30.4011 42.9715 30.6198 42.9182 30.8118 42.8115C31.0038 42.7048 31.1531 42.5502 31.2598 42.3475C31.3718 42.1448 31.4278 41.9075 31.4278 41.6355C31.4278 41.3582 31.3718 41.1208 31.2598 40.9235C31.1531 40.7208 31.0038 40.5662 30.8118 40.4595C30.6198 40.3528 30.4038 40.2995 30.1638 40.2995C29.9184 40.2995 29.6998 40.3528 29.5078 40.4595C29.3211 40.5662 29.1718 40.7208 29.0598 40.9235C28.9478 41.1208 28.8918 41.3582 28.8918 41.6355C28.8918 41.9075 28.9478 42.1448 29.0598 42.3475C29.1718 42.5502 29.3211 42.7048 29.5078 42.8115C29.6998 42.9182 29.9158 42.9715 30.1558 42.9715ZM35.9693 43.7715V42.9075L35.9133 42.7235V41.2115C35.9133 40.9182 35.8253 40.6915 35.6493 40.5315C35.4733 40.3662 35.2066 40.2835 34.8493 40.2835C34.6093 40.2835 34.372 40.3208 34.1373 40.3955C33.908 40.4702 33.7133 40.5742 33.5533 40.7075L33.1613 39.9795C33.3906 39.8035 33.6626 39.6728 33.9773 39.5875C34.2973 39.4968 34.628 39.4515 34.9693 39.4515C35.588 39.4515 36.0653 39.6008 36.4013 39.8995C36.7426 40.1928 36.9133 40.6488 36.9133 41.2675V43.7715H35.9693ZM34.6253 43.8275C34.3053 43.8275 34.0253 43.7742 33.7853 43.6675C33.5453 43.5555 33.3586 43.4035 33.2253 43.2115C33.0973 43.0142 33.0333 42.7928 33.0333 42.5475C33.0333 42.3075 33.0893 42.0915 33.2013 41.8995C33.3186 41.7075 33.508 41.5555 33.7693 41.4435C34.0306 41.3315 34.3773 41.2755 34.8093 41.2755H36.0493V41.9395H34.8813C34.54 41.9395 34.3106 41.9955 34.1933 42.1075C34.076 42.2142 34.0173 42.3475 34.0173 42.5075C34.0173 42.6888 34.0893 42.8328 34.2333 42.9395C34.3773 43.0462 34.5773 43.0995 34.8333 43.0995C35.0786 43.0995 35.2973 43.0435 35.4893 42.9315C35.6866 42.8195 35.828 42.6542 35.9133 42.4355L36.0813 43.0355C35.9853 43.2862 35.812 43.4808 35.5613 43.6195C35.316 43.7582 35.004 43.8275 34.6253 43.8275ZM40.0125 43.8275C39.6018 43.8275 39.2312 43.7368 38.9005 43.5555C38.5752 43.3688 38.3192 43.1128 38.1325 42.7875C37.9458 42.4622 37.8525 42.0782 37.8525 41.6355C37.8525 41.1928 37.9458 40.8088 38.1325 40.4835C38.3192 40.1582 38.5752 39.9048 38.9005 39.7235C39.2312 39.5422 39.6018 39.4515 40.0125 39.4515C40.3698 39.4515 40.6898 39.5315 40.9725 39.6915C41.2552 39.8462 41.4792 40.0835 41.6445 40.4035C41.8098 40.7235 41.8925 41.1342 41.8925 41.6355C41.8925 42.1315 41.8125 42.5422 41.6525 42.8675C41.4925 43.1875 41.2712 43.4275 40.9885 43.5875C40.7058 43.7475 40.3805 43.8275 40.0125 43.8275ZM40.1325 42.9715C40.3725 42.9715 40.5858 42.9182 40.7725 42.8115C40.9645 42.7048 41.1165 42.5502 41.2285 42.3475C41.3458 42.1448 41.4045 41.9075 41.4045 41.6355C41.4045 41.3582 41.3458 41.1208 41.2285 40.9235C41.1165 40.7208 40.9645 40.5662 40.7725 40.4595C40.5858 40.3528 40.3725 40.2995 40.1325 40.2995C39.8925 40.2995 39.6765 40.3528 39.4845 40.4595C39.2978 40.5662 39.1458 40.7208 39.0285 40.9235C38.9165 41.1208 38.8605 41.3582 38.8605 41.6355C38.8605 41.9075 38.9165 42.1448 39.0285 42.3475C39.1458 42.5502 39.2978 42.7048 39.4845 42.8115C39.6765 42.9182 39.8925 42.9715 40.1325 42.9715ZM41.4285 43.7715V42.7635L41.4685 41.6275L41.3885 40.4915V37.8355H42.3805V43.7715H41.4285ZM48.5396 43.7715V42.9075L48.4836 42.7235V41.2115C48.4836 40.9182 48.3956 40.6915 48.2196 40.5315C48.0436 40.3662 47.777 40.2835 47.4196 40.2835C47.1796 40.2835 46.9423 40.3208 46.7076 40.3955C46.4783 40.4702 46.2836 40.5742 46.1236 40.7075L45.7316 39.9795C45.961 39.8035 46.233 39.6728 46.5476 39.5875C46.8676 39.4968 47.1983 39.4515 47.5396 39.4515C48.1583 39.4515 48.6356 39.6008 48.9716 39.8995C49.313 40.1928 49.4836 40.6488 49.4836 41.2675V43.7715H48.5396ZM47.1956 43.8275C46.8756 43.8275 46.5956 43.7742 46.3556 43.6675C46.1156 43.5555 45.929 43.4035 45.7956 43.2115C45.6676 43.0142 45.6036 42.7928 45.6036 42.5475C45.6036 42.3075 45.6596 42.0915 45.7716 41.8995C45.889 41.7075 46.0783 41.5555 46.3396 41.4435C46.601 41.3315 46.9476 41.2755 47.3796 41.2755H48.6196V41.9395H47.4516C47.1103 41.9395 46.881 41.9955 46.7636 42.1075C46.6463 42.2142 46.5876 42.3475 46.5876 42.5075C46.5876 42.6888 46.6596 42.8328 46.8036 42.9395C46.9476 43.0462 47.1476 43.0995 47.4036 43.0995C47.649 43.0995 47.8676 43.0435 48.0596 42.9315C48.257 42.8195 48.3983 42.6542 48.4836 42.4355L48.6516 43.0355C48.5556 43.2862 48.3823 43.4808 48.1316 43.6195C47.8863 43.7582 47.5743 43.8275 47.1956 43.8275ZM53.191 39.4515C53.5323 39.4515 53.8363 39.5182 54.103 39.6515C54.375 39.7848 54.5883 39.9902 54.743 40.2675C54.8977 40.5395 54.975 40.8915 54.975 41.3235V43.7715H53.975V41.4515C53.975 41.0728 53.8843 40.7902 53.703 40.6035C53.527 40.4168 53.279 40.3235 52.959 40.3235C52.7243 40.3235 52.5163 40.3715 52.335 40.4675C52.1537 40.5635 52.0123 40.7075 51.911 40.8995C51.815 41.0862 51.767 41.3235 51.767 41.6115V43.7715H50.767V39.4995H51.719V40.6515L51.551 40.2995C51.7003 40.0275 51.9163 39.8195 52.199 39.6755C52.487 39.5262 52.8177 39.4515 53.191 39.4515ZM22.1186 53.7715V49.4995H23.1186V53.7715H22.1186ZM22.6226 48.7955C22.4359 48.7955 22.2812 48.7368 22.1586 48.6195C22.0412 48.5022 21.9826 48.3608 21.9826 48.1955C21.9826 48.0248 22.0412 47.8835 22.1586 47.7715C22.2812 47.6542 22.4359 47.5955 22.6226 47.5955C22.8092 47.5955 22.9612 47.6515 23.0786 47.7635C23.2012 47.8702 23.2626 48.0062 23.2626 48.1715C23.2626 48.3475 23.2039 48.4968 23.0866 48.6195C22.9692 48.7368 22.8146 48.7955 22.6226 48.7955ZM29.8231 49.4515C30.1644 49.4515 30.4657 49.5182 30.7271 49.6515C30.9937 49.7848 31.2017 49.9902 31.3511 50.2675C31.5004 50.5395 31.5751 50.8915 31.5751 51.3235V53.7715H30.5751V51.4515C30.5751 51.0728 30.4924 50.7902 30.3271 50.6035C30.1617 50.4168 29.9244 50.3235 29.6151 50.3235C29.3964 50.3235 29.2017 50.3715 29.0311 50.4675C28.8657 50.5635 28.7351 50.7048 28.6391 50.8915C28.5484 51.0782 28.5031 51.3155 28.5031 51.6035V53.7715H27.5031V51.4515C27.5031 51.0728 27.4204 50.7902 27.2551 50.6035C27.0897 50.4168 26.8524 50.3235 26.5431 50.3235C26.3244 50.3235 26.1297 50.3715 25.9591 50.4675C25.7937 50.5635 25.6631 50.7048 25.5671 50.8915C25.4764 51.0782 25.4311 51.3155 25.4311 51.6035V53.7715H24.4311V49.4995H25.3831V50.6355L25.2151 50.2995C25.3591 50.0222 25.5671 49.8115 25.8391 49.6675C26.1164 49.5235 26.4311 49.4515 26.7831 49.4515C27.1831 49.4515 27.5297 49.5502 27.8231 49.7475C28.1217 49.9448 28.3191 50.2435 28.4151 50.6435L28.0231 50.5075C28.1617 50.1875 28.3911 49.9315 28.7111 49.7395C29.0311 49.5475 29.4017 49.4515 29.8231 49.4515ZM35.4849 53.7715V52.9075L35.4289 52.7235V51.2115C35.4289 50.9182 35.3409 50.6915 35.1649 50.5315C34.9889 50.3662 34.7223 50.2835 34.3649 50.2835C34.1249 50.2835 33.8876 50.3208 33.6529 50.3955C33.4236 50.4702 33.2289 50.5742 33.0689 50.7075L32.6769 49.9795C32.9063 49.8035 33.1783 49.6728 33.4929 49.5875C33.8129 49.4968 34.1436 49.4515 34.4849 49.4515C35.1036 49.4515 35.5809 49.6008 35.9169 49.8995C36.2583 50.1928 36.4289 50.6488 36.4289 51.2675V53.7715H35.4849ZM34.1409 53.8275C33.8209 53.8275 33.5409 53.7742 33.3009 53.6675C33.0609 53.5555 32.8743 53.4035 32.7409 53.2115C32.6129 53.0142 32.5489 52.7928 32.5489 52.5475C32.5489 52.3075 32.6049 52.0915 32.7169 51.8995C32.8343 51.7075 33.0236 51.5555 33.2849 51.4435C33.5463 51.3315 33.8929 51.2755 34.3249 51.2755H35.5649V51.9395H34.3969C34.0556 51.9395 33.8263 51.9955 33.7089 52.1075C33.5916 52.2142 33.5329 52.3475 33.5329 52.5075C33.5329 52.6888 33.6049 52.8328 33.7489 52.9395C33.8929 53.0462 34.0929 53.0995 34.3489 53.0995C34.5943 53.0995 34.8129 53.0435 35.0049 52.9315C35.2023 52.8195 35.3436 52.6542 35.4289 52.4355L35.5969 53.0355C35.5009 53.2862 35.3276 53.4808 35.0769 53.6195C34.8316 53.7582 34.5196 53.8275 34.1409 53.8275ZM39.6561 55.3795C39.2615 55.3795 38.8748 55.3262 38.4961 55.2195C38.1228 55.1182 37.8161 54.9688 37.5761 54.7715L38.0241 54.0195C38.2108 54.1742 38.4455 54.2968 38.7281 54.3875C39.0161 54.4835 39.3068 54.5315 39.6001 54.5315C40.0695 54.5315 40.4135 54.4222 40.6321 54.2035C40.8508 53.9902 40.9601 53.6675 40.9601 53.2355V52.4755L41.0401 51.5075L41.0081 50.5395V49.4995H41.9601V53.1235C41.9601 53.8968 41.7628 54.4648 41.3681 54.8275C40.9735 55.1955 40.4028 55.3795 39.6561 55.3795ZM39.5281 53.5795C39.1228 53.5795 38.7548 53.4942 38.4241 53.3235C38.0988 53.1475 37.8401 52.9048 37.6481 52.5955C37.4615 52.2862 37.3681 51.9235 37.3681 51.5075C37.3681 51.0968 37.4615 50.7368 37.6481 50.4275C37.8401 50.1182 38.0988 49.8782 38.4241 49.7075C38.7548 49.5368 39.1228 49.4515 39.5281 49.4515C39.8908 49.4515 40.2161 49.5235 40.5041 49.6675C40.7921 49.8115 41.0215 50.0355 41.1921 50.3395C41.3681 50.6435 41.4561 51.0328 41.4561 51.5075C41.4561 51.9822 41.3681 52.3742 41.1921 52.6835C41.0215 52.9875 40.7921 53.2142 40.5041 53.3635C40.2161 53.5075 39.8908 53.5795 39.5281 53.5795ZM39.6801 52.7315C39.9308 52.7315 40.1548 52.6808 40.3521 52.5795C40.5495 52.4728 40.7015 52.3288 40.8081 52.1475C40.9201 51.9608 40.9761 51.7475 40.9761 51.5075C40.9761 51.2675 40.9201 51.0568 40.8081 50.8755C40.7015 50.6888 40.5495 50.5475 40.3521 50.4515C40.1548 50.3502 39.9308 50.2995 39.6801 50.2995C39.4295 50.2995 39.2028 50.3502 39.0001 50.4515C38.8028 50.5475 38.6481 50.6888 38.5361 50.8755C38.4295 51.0568 38.3761 51.2675 38.3761 51.5075C38.3761 51.7475 38.4295 51.9608 38.5361 52.1475C38.6481 52.3288 38.8028 52.4728 39.0001 52.5795C39.2028 52.6808 39.4295 52.7315 39.6801 52.7315ZM45.2828 53.8275C44.8081 53.8275 44.3921 53.7342 44.0348 53.5475C43.6828 53.3555 43.4081 53.0942 43.2108 52.7635C43.0188 52.4328 42.9228 52.0568 42.9228 51.6355C42.9228 51.2088 43.0161 50.8328 43.2028 50.5075C43.3948 50.1768 43.6561 49.9182 43.9868 49.7315C44.3228 49.5448 44.7041 49.4515 45.1308 49.4515C45.5468 49.4515 45.9175 49.5422 46.2428 49.7235C46.5681 49.9048 46.8241 50.1608 47.0108 50.4915C47.1975 50.8222 47.2908 51.2115 47.2908 51.6595C47.2908 51.7022 47.2881 51.7502 47.2828 51.8035C47.2828 51.8568 47.2801 51.9075 47.2748 51.9555H43.7148V51.2915H46.7468L46.3548 51.4995C46.3601 51.2542 46.3095 51.0382 46.2028 50.8515C46.0961 50.6648 45.9495 50.5182 45.7628 50.4115C45.5815 50.3048 45.3708 50.2515 45.1308 50.2515C44.8855 50.2515 44.6695 50.3048 44.4828 50.4115C44.3015 50.5182 44.1575 50.6675 44.0508 50.8595C43.9495 51.0462 43.8988 51.2675 43.8988 51.5235V51.6835C43.8988 51.9395 43.9575 52.1662 44.0748 52.3635C44.1921 52.5608 44.3575 52.7128 44.5708 52.8195C44.7841 52.9262 45.0295 52.9795 45.3068 52.9795C45.5468 52.9795 45.7628 52.9422 45.9548 52.8675C46.1468 52.7928 46.3175 52.6755 46.4668 52.5155L47.0028 53.1315C46.8108 53.3555 46.5681 53.5288 46.2748 53.6515C45.9868 53.7688 45.6561 53.8275 45.2828 53.8275Z"
          fill="#5D5D5D"/>
</svg>
