<svg width="10" height="7" viewBox="0 0 10 7" fill="none" xmlns="http://www.w3.org/2000/svg">
<path d="M4.17732 0.847832L0.206451 5.12489C-0.262171 5.62811 0.118688 6.41846 0.829901 6.41846H8.77164C8.93081 6.41859 9.08665 6.37548 9.22049 6.2943C9.35432 6.21311 9.46049 6.0973 9.52628 5.96072C9.59207 5.82414 9.61468 5.67259 9.59141 5.52421C9.56814 5.37583 9.49998 5.23692 9.39509 5.12411L5.42422 0.848613C5.34651 0.764812 5.25067 0.697648 5.14314 0.651628C5.03561 0.605609 4.91887 0.5818 4.80077 0.5818C4.68267 0.5818 4.56594 0.605609 4.4584 0.651628C4.35087 0.697648 4.25503 0.764031 4.17732 0.847832Z" fill="#272727"/>
</svg>
