<svg width="10" height="7" viewBox="0 0 10 7" fill="none" xmlns="http://www.w3.org/2000/svg">
<path d="M4.08724 5.92853L0.201999 1.65148C-0.256518 1.14825 0.116129 0.35791 0.812005 0.35791H8.58249C8.73823 0.357782 8.89071 0.40089 9.02166 0.482072C9.15261 0.563254 9.25649 0.679069 9.32086 0.815648C9.38523 0.952227 9.40735 1.10378 9.38459 1.25216C9.36182 1.40054 9.29513 1.53945 9.1925 1.65226L5.30726 5.92775C5.23122 6.01156 5.13745 6.07872 5.03223 6.12474C4.92702 6.17076 4.8128 6.19457 4.69725 6.19457C4.5817 6.19457 4.46748 6.17076 4.36227 6.12474C4.25705 6.07872 4.16328 6.01234 4.08724 5.92853Z" fill="#272727"/>
</svg>
