<svg width="173" height="75" viewBox="0 0 173 75" fill="none" xmlns="http://www.w3.org/2000/svg">
<path fill-rule="evenodd" clip-rule="evenodd" d="M43.8545 70.1909H151.693C163.139 70.1909 172.418 61.0636 172.419 49.8046V21.3746C172.419 12.3651 164.994 5.06152 155.835 5.06152H46.3154C58.2862 5.06152 67.9903 14.7657 67.9903 26.7364V45.9662C67.9903 59.3155 57.1926 70.1429 43.8545 70.1909ZM105.533 25.5838L101.798 35.6076L98.087 25.5838H96.1721L92.3895 35.5603L88.7488 25.5838H86.5975L91.2548 38.1135H93.4297L97.0941 28.6098L100.711 38.1135H102.886L107.566 25.5838H105.533ZM111.004 23.1724C111.903 23.1724 112.541 22.5105 112.541 21.6594C112.541 20.8556 111.879 20.2173 111.004 20.2173C110.129 20.2173 109.468 20.8792 109.468 21.7067C109.468 22.5341 110.129 23.1724 111.004 23.1724ZM112.139 38.1135V25.5838H109.869V38.1135H112.139ZM120.066 38.2553C123.399 38.2553 125.479 36.8133 125.479 34.5437C125.479 31.8062 122.97 31.3694 120.772 30.9869C119.059 30.6889 117.536 30.4239 117.536 29.1299C117.536 28.137 118.505 27.4041 120.491 27.4041C121.721 27.4041 122.974 27.6642 124.108 28.397L125.078 26.6003C123.99 25.8911 122.146 25.4656 120.515 25.4656C117.3 25.4656 115.29 26.9786 115.29 29.2245C115.29 32.0733 117.874 32.501 120.09 32.8678C121.754 33.1432 123.21 33.3844 123.21 34.591C123.21 35.6548 122.335 36.2932 120.231 36.2932C118.6 36.2932 116.898 35.7494 115.834 34.9929L114.888 36.7896C115.929 37.617 117.985 38.2553 120.066 38.2553ZM139.64 31.9196C139.64 28.0661 137.063 25.4656 133.446 25.4656C129.829 25.4656 127.157 28.137 127.157 31.8487C127.157 35.5839 129.852 38.2553 133.895 38.2553C135.975 38.2553 137.701 37.5461 138.836 36.2222L137.583 34.7565C136.661 35.7731 135.432 36.2695 133.966 36.2695C131.484 36.2695 129.711 34.8038 129.427 32.6052H139.593C139.616 32.3924 139.64 32.1087 139.64 31.9196ZM133.446 27.3805C135.644 27.3805 137.228 28.8699 137.465 30.974H129.427C129.663 28.8462 131.271 27.3805 133.446 27.3805ZM144.966 27.6878V25.5838H142.791V38.1135H145.061V31.8723C145.061 29.1299 146.574 27.6405 149.009 27.6405C149.174 27.6405 149.34 27.6405 149.529 27.6642V25.4656C147.33 25.4656 145.77 26.2221 144.966 27.6878ZM94.4776 43.4956C94.8915 42.5705 95.8167 41.9618 97.0462 41.9618C98.58 41.9618 99.5785 42.8748 99.5785 44.6521V48.3649H98.9695V44.7008C98.9695 43.2644 98.2269 42.5096 96.9853 42.5096C95.5489 42.5096 94.6602 43.4713 94.6602 44.9808V48.3649H94.0516V44.7008C94.0516 43.2644 93.309 42.5096 92.0674 42.5096C90.6309 42.5096 89.7423 43.4713 89.7423 44.9808V48.3649H89.1337V42.0105H89.718V43.3739C90.1318 42.4853 90.9961 41.9618 92.1526 41.9618C93.2968 41.9618 94.1368 42.4853 94.4776 43.4956ZM101.689 42.8626C102.322 42.3027 103.247 41.9618 104.233 41.9618C105.804 41.9618 106.68 42.7653 106.68 44.3356V48.3649H106.096V47.2328C105.694 47.9632 104.915 48.4136 103.807 48.4136C102.383 48.4136 101.519 47.6832 101.519 46.5998C101.519 45.6381 102.127 44.8225 103.892 44.8225H106.071V44.3112C106.071 43.1304 105.426 42.4974 104.185 42.4974C103.308 42.4974 102.517 42.8261 101.993 43.3009L101.689 42.8626ZM102.127 46.5754C102.127 47.4032 102.772 47.9145 103.892 47.9145C104.964 47.9145 105.706 47.4032 106.071 46.4902V45.2973H103.905C102.59 45.2973 102.127 45.845 102.127 46.5754ZM114.13 47.2449C113.606 48.0118 112.73 48.4136 111.719 48.4136C109.857 48.4136 108.506 47.0745 108.506 45.1877C108.506 43.2887 109.857 41.9618 111.719 41.9618C112.73 41.9618 113.606 42.3514 114.13 43.1304L113.679 43.4591C113.217 42.8139 112.511 42.5096 111.719 42.5096C110.222 42.5096 109.127 43.5809 109.127 45.1877C109.127 46.7945 110.222 47.8658 111.719 47.8658C112.511 47.8658 113.217 47.5614 113.679 46.9163L114.13 47.2449ZM116.454 43.3374C116.892 42.4731 117.768 41.9618 118.949 41.9618C120.495 41.9618 121.53 42.8748 121.53 44.6521V48.3649H120.921V44.7008C120.921 43.2644 120.154 42.5096 118.864 42.5096C117.367 42.5096 116.454 43.4713 116.454 44.9808V48.3649H115.845V39.3325H116.454V43.3374ZM124.839 39.9655C124.839 40.2454 124.62 40.4645 124.34 40.4645C124.06 40.4645 123.841 40.2454 123.841 39.9776C123.841 39.7098 124.06 39.4785 124.34 39.4785C124.62 39.4785 124.839 39.6976 124.839 39.9655ZM124.644 48.3649H124.036V42.0105H124.644V48.3649ZM127.794 43.3861C128.22 42.4974 129.109 41.9618 130.314 41.9618C131.86 41.9618 132.894 42.8748 132.894 44.6521V48.3649H132.286V44.7008C132.286 43.2644 131.519 42.5096 130.229 42.5096C128.731 42.5096 127.818 43.4713 127.818 44.9808V48.3649H127.21V42.0105H127.794V43.3861ZM137.762 41.9618C139.502 41.9618 140.793 43.2765 140.793 45.1633C140.793 45.1863 140.791 45.212 140.788 45.2392C140.784 45.2695 140.78 45.3017 140.78 45.3338H135.315C135.376 46.8432 136.483 47.8658 138.005 47.8658C138.808 47.8658 139.551 47.5736 140.038 46.9771L140.391 47.3788C139.831 48.0605 138.954 48.4136 137.993 48.4136C136.069 48.4136 134.718 47.0745 134.718 45.1877C134.718 43.3009 136.021 41.9618 137.762 41.9618ZM140.196 44.859C140.111 43.4835 139.113 42.4974 137.762 42.4974C136.41 42.4974 135.424 43.4713 135.327 44.859H140.196ZM146.79 46.6728C146.79 47.7075 145.901 48.4136 144.282 48.4136C143.236 48.4136 142.237 48.0605 141.738 47.598L142.018 47.111C142.505 47.5249 143.369 47.8779 144.307 47.8779C145.646 47.8779 146.181 47.4032 146.181 46.685C146.181 45.8289 145.28 45.6608 144.311 45.4801C143.186 45.2703 141.97 45.0435 141.97 43.7026C141.97 42.7409 142.773 41.9618 144.38 41.9618C145.183 41.9618 146.06 42.2053 146.559 42.5827L146.279 43.0696C145.743 42.68 145.049 42.4974 144.368 42.4974C143.126 42.4974 142.578 43.0087 142.578 43.6904C142.578 44.5895 143.51 44.7666 144.498 44.9542C145.609 45.1654 146.79 45.3899 146.79 46.6728ZM149.508 47.7306C149.508 48.1209 149.199 48.4299 148.825 48.4299C148.451 48.4299 148.142 48.1209 148.142 47.7306C148.142 47.3403 148.451 47.0475 148.825 47.0475C149.199 47.0475 149.508 47.3403 149.508 47.7306Z" fill="#4E4E4E"/>
<g filter="url(#filter0_d_740_15548)">
<path d="M49.1895 5H17.5282C9.50476 5 3 11.4347 3 19.3716V43.1591C3 58.0478 15.2016 70.1179 30.2523 70.1179H46.4336C58.8011 70.1179 68.8271 60.2 68.8271 47.9656V24.426C68.8271 13.6979 60.0352 5 49.1895 5ZM10.8424 10.6495C12.7603 9.19255 15.1249 8.42928 17.5432 8.42928H38.6679C39.2987 8.42928 39.766 9.00877 39.626 9.6172L34.8313 30.4775L25.6054 22.0658C25.0275 21.5387 24.233 21.3588 23.4803 21.5857C22.7277 21.8124 22.1696 22.399 21.9862 23.156L18.9749 35.596L13.3066 30.9256C12.7311 30.4306 11.9271 30.2656 11.1989 30.4955L7.6248 31.6255C7.05164 31.807 6.46504 31.3839 6.46504 30.788V19.3716C6.46662 15.9565 8.03826 12.7798 10.8424 10.6495ZM13.4339 59.7973C11.248 57.6349 9.53243 55.1183 8.33472 52.317C7.09512 49.4179 6.46662 46.3375 6.46662 43.1591V36.0159C6.46662 35.4396 6.84293 34.9297 7.3979 34.7537L11.7025 33.393L17.9828 38.5678C18.3891 38.9189 18.8959 39.1035 19.4161 39.1035C19.635 39.1035 19.8572 39.0707 20.0746 39.0034C20.8201 38.7742 21.3743 38.1885 21.5561 37.4369L24.5508 25.0634L33.7901 33.4876C34.3632 34.01 35.1823 34.193 35.927 33.9639C36.6717 33.7347 37.2417 33.1256 37.414 32.3732L42.6057 9.78456C42.7875 8.99156 43.5006 8.42928 44.322 8.42928H49.1887C51.373 8.42928 53.4909 8.85158 55.4824 9.68524C57.4074 10.4907 59.1371 11.645 60.6234 13.1153C62.1097 14.5855 63.2765 16.2966 64.0908 18.201C64.9328 20.171 65.3604 22.2653 65.3604 24.4268V39.1708C65.3604 39.7213 65.0007 40.2086 64.4703 40.3759L59.6494 41.9001L53.3692 36.7253C52.7913 36.2263 52.0118 36.0637 51.2773 36.2897C50.5318 36.5189 49.9777 37.1045 49.7958 37.8562L46.8012 50.2297L37.5627 41.8071C36.9895 41.2846 36.1705 41.1017 35.4258 41.3308C34.6811 41.56 34.1111 42.1691 33.9379 42.9214L28.7581 65.4577C28.6024 66.1365 27.9518 66.5932 27.2537 66.5065C25.0994 66.2398 23.0036 65.6838 20.994 64.843C18.1638 63.6558 15.619 61.9588 13.4339 59.7973ZM63.875 55.2528C62.9216 57.4816 61.557 59.4845 59.817 61.205C58.0778 62.9255 56.0531 64.2761 53.8 65.2192C51.4687 66.1944 48.9903 66.6894 46.4344 66.6894H32.5868C32.0271 66.6894 31.6121 66.1756 31.7362 65.6352L36.5215 44.8156L45.7481 53.2265C46.3261 53.7535 47.1206 53.9335 47.8732 53.7066C48.6258 53.4799 49.1839 52.8933 49.3674 52.1363L52.3786 39.6955L58.0469 44.3659C58.6225 44.861 59.4257 45.0259 60.1546 44.796L64.6205 43.3844C64.9873 43.2687 65.362 43.5393 65.362 43.9202V47.9649C65.3612 50.4948 64.8608 52.9465 63.875 55.2528Z" fill="#4E4E4E"/>
</g>
<defs>
<filter id="filter0_d_740_15548" x="0.81646" y="0.63292" width="74.5613" height="73.8518" filterUnits="userSpaceOnUse" color-interpolation-filters="sRGB">
<feFlood flood-opacity="0" result="BackgroundImageFix"/>
<feColorMatrix in="SourceAlpha" type="matrix" values="0 0 0 0 0 0 0 0 0 0 0 0 0 0 0 0 0 0 127 0" result="hardAlpha"/>
<feOffset dx="2.18354"/>
<feGaussianBlur stdDeviation="2.18354"/>
<feColorMatrix type="matrix" values="0 0 0 0 0 0 0 0 0 0 0 0 0 0 0 0 0 0 0.25 0"/>
<feBlend mode="normal" in2="BackgroundImageFix" result="effect1_dropShadow_740_15548"/>
<feBlend mode="normal" in="SourceGraphic" in2="effect1_dropShadow_740_15548" result="shape"/>
</filter>
</defs>
</svg>
