<svg width="173" height="75" viewBox="0 0 173 75" fill="none" xmlns="http://www.w3.org/2000/svg">
<path fill-rule="evenodd" clip-rule="evenodd" d="M43.8545 70.0952H151.693C163.139 70.0952 172.418 60.9679 172.419 49.7089V21.2789C172.419 12.2694 164.994 4.96582 155.835 4.96582H46.3154C58.2862 4.96582 67.9903 14.67 67.9903 26.6407V45.8705C67.9903 59.2198 57.1926 70.0472 43.8545 70.0952ZM105.533 25.4881L101.798 35.5119L98.087 25.4881H96.1721L92.3895 35.4646L88.7488 25.4881H86.5975L91.2548 38.0178H93.4297L97.0941 28.5141L100.711 38.0178H102.886L107.566 25.4881H105.533ZM111.004 23.0767C111.903 23.0767 112.541 22.4148 112.541 21.5637C112.541 20.7599 111.879 20.1216 111.004 20.1216C110.129 20.1216 109.468 20.7835 109.468 21.611C109.468 22.4384 110.129 23.0767 111.004 23.0767ZM112.139 38.0178V25.4881H109.869V38.0178H112.139ZM120.066 38.1596C123.399 38.1596 125.479 36.7176 125.479 34.448C125.479 31.7105 122.97 31.2737 120.772 30.8912C119.059 30.5932 117.536 30.3282 117.536 29.0342C117.536 28.0413 118.505 27.3084 120.491 27.3084C121.721 27.3084 122.974 27.5685 124.108 28.3013L125.078 26.5046C123.99 25.7954 122.146 25.3699 120.515 25.3699C117.3 25.3699 115.29 26.8829 115.29 29.1288C115.29 31.9776 117.874 32.4052 120.09 32.772C121.754 33.0475 123.21 33.2887 123.21 34.4953C123.21 35.5591 122.335 36.1975 120.231 36.1975C118.6 36.1975 116.898 35.6537 115.834 34.8972L114.888 36.6939C115.929 37.5213 117.985 38.1596 120.066 38.1596ZM139.64 31.8239C139.64 27.9704 137.063 25.3699 133.446 25.3699C129.829 25.3699 127.157 28.0413 127.157 31.753C127.157 35.4882 129.852 38.1596 133.895 38.1596C135.975 38.1596 137.701 37.4504 138.836 36.1265L137.583 34.6608C136.661 35.6774 135.432 36.1738 133.966 36.1738C131.484 36.1738 129.711 34.7081 129.427 32.5095H139.593C139.616 32.2967 139.64 32.013 139.64 31.8239ZM133.446 27.2848C135.644 27.2848 137.228 28.7742 137.465 30.8783H129.427C129.663 28.7505 131.271 27.2848 133.446 27.2848ZM144.966 27.5921V25.4881H142.791V38.0178H145.061V31.7766C145.061 29.0342 146.574 27.5448 149.009 27.5448C149.174 27.5448 149.34 27.5448 149.529 27.5685V25.3699C147.33 25.3699 145.77 26.1264 144.966 27.5921ZM94.4776 43.3999C94.8915 42.4748 95.8167 41.8661 97.0462 41.8661C98.58 41.8661 99.5785 42.7791 99.5785 44.5564V48.2692H98.9695V44.6051C98.9695 43.1687 98.2269 42.4139 96.9853 42.4139C95.5489 42.4139 94.6602 43.3756 94.6602 44.8851V48.2692H94.0516V44.6051C94.0516 43.1687 93.309 42.4139 92.0674 42.4139C90.6309 42.4139 89.7423 43.3756 89.7423 44.8851V48.2692H89.1337V41.9148H89.718V43.2782C90.1318 42.3896 90.9961 41.8661 92.1526 41.8661C93.2968 41.8661 94.1368 42.3896 94.4776 43.3999ZM101.689 42.7669C102.322 42.207 103.247 41.8661 104.233 41.8661C105.804 41.8661 106.68 42.6696 106.68 44.2399V48.2692H106.096V47.1371C105.694 47.8675 104.915 48.3179 103.807 48.3179C102.383 48.3179 101.519 47.5875 101.519 46.5041C101.519 45.5424 102.127 44.7268 103.892 44.7268H106.071V44.2155C106.071 43.0347 105.426 42.4017 104.185 42.4017C103.308 42.4017 102.517 42.7304 101.993 43.2052L101.689 42.7669ZM102.127 46.4797C102.127 47.3075 102.772 47.8188 103.892 47.8188C104.964 47.8188 105.706 47.3075 106.071 46.3945V45.2016H103.905C102.59 45.2016 102.127 45.7493 102.127 46.4797ZM114.13 47.1492C113.606 47.9161 112.73 48.3179 111.719 48.3179C109.857 48.3179 108.506 46.9788 108.506 45.092C108.506 43.193 109.857 41.8661 111.719 41.8661C112.73 41.8661 113.606 42.2557 114.13 43.0347L113.679 43.3634C113.217 42.7182 112.511 42.4139 111.719 42.4139C110.222 42.4139 109.127 43.4852 109.127 45.092C109.127 46.6988 110.222 47.7701 111.719 47.7701C112.511 47.7701 113.217 47.4657 113.679 46.8206L114.13 47.1492ZM116.454 43.2417C116.892 42.3774 117.768 41.8661 118.949 41.8661C120.495 41.8661 121.53 42.7791 121.53 44.5564V48.2692H120.921V44.6051C120.921 43.1687 120.154 42.4139 118.864 42.4139C117.367 42.4139 116.454 43.3756 116.454 44.8851V48.2692H115.845V39.2368H116.454V43.2417ZM124.839 39.8698C124.839 40.1497 124.62 40.3688 124.34 40.3688C124.06 40.3688 123.841 40.1497 123.841 39.8819C123.841 39.6141 124.06 39.3828 124.34 39.3828C124.62 39.3828 124.839 39.6019 124.839 39.8698ZM124.644 48.2692H124.036V41.9148H124.644V48.2692ZM127.794 43.2904C128.22 42.4017 129.109 41.8661 130.314 41.8661C131.86 41.8661 132.894 42.7791 132.894 44.5564V48.2692H132.286V44.6051C132.286 43.1687 131.519 42.4139 130.229 42.4139C128.731 42.4139 127.818 43.3756 127.818 44.8851V48.2692H127.21V41.9148H127.794V43.2904ZM137.762 41.8661C139.502 41.8661 140.793 43.1808 140.793 45.0676C140.793 45.0906 140.791 45.1163 140.788 45.1435C140.784 45.1738 140.78 45.206 140.78 45.2381H135.315C135.376 46.7475 136.483 47.7701 138.005 47.7701C138.808 47.7701 139.551 47.4779 140.038 46.8814L140.391 47.2831C139.831 47.9648 138.954 48.3179 137.993 48.3179C136.069 48.3179 134.718 46.9788 134.718 45.092C134.718 43.2052 136.021 41.8661 137.762 41.8661ZM140.196 44.7633C140.111 43.3878 139.113 42.4017 137.762 42.4017C136.41 42.4017 135.424 43.3756 135.327 44.7633H140.196ZM146.79 46.5771C146.79 47.6118 145.901 48.3179 144.282 48.3179C143.236 48.3179 142.237 47.9648 141.738 47.5023L142.018 47.0153C142.505 47.4292 143.369 47.7822 144.307 47.7822C145.646 47.7822 146.181 47.3075 146.181 46.5893C146.181 45.7332 145.28 45.5651 144.311 45.3844C143.186 45.1746 141.97 44.9478 141.97 43.6069C141.97 42.6452 142.773 41.8661 144.38 41.8661C145.183 41.8661 146.06 42.1096 146.559 42.487L146.279 42.9739C145.743 42.5843 145.049 42.4017 144.368 42.4017C143.126 42.4017 142.578 42.913 142.578 43.5947C142.578 44.4938 143.51 44.6709 144.498 44.8585C145.609 45.0697 146.79 45.2942 146.79 46.5771ZM149.508 47.6349C149.508 48.0252 149.199 48.3342 148.825 48.3342C148.451 48.3342 148.142 48.0252 148.142 47.6349C148.142 47.2446 148.451 46.9518 148.825 46.9518C149.199 46.9518 149.508 47.2446 149.508 47.6349Z" fill="#4E4E4E"/>
<g filter="url(#filter0_d_1547_21230)">
<path d="M49.1895 4.9043H17.5282C9.50476 4.9043 3 11.339 3 19.2759V43.0634C3 57.9521 15.2016 70.0222 30.2523 70.0222H46.4336C58.8011 70.0222 68.8271 60.1043 68.8271 47.8699V24.3303C68.8271 13.6022 60.0352 4.9043 49.1895 4.9043ZM10.8424 10.5538C12.7603 9.09685 15.1249 8.33358 17.5432 8.33358H38.6679C39.2987 8.33358 39.766 8.91307 39.626 9.5215L34.8313 30.3818L25.6054 21.9701C25.0275 21.443 24.233 21.2631 23.4803 21.49C22.7277 21.7167 22.1696 22.3033 21.9862 23.0603L18.9749 35.5003L13.3066 30.8299C12.7311 30.3349 11.9271 30.1699 11.1989 30.3998L7.6248 31.5298C7.05164 31.7113 6.46504 31.2882 6.46504 30.6923V19.2759C6.46662 15.8608 8.03826 12.6841 10.8424 10.5538ZM13.4339 59.7016C11.248 57.5392 9.53243 55.0226 8.33472 52.2213C7.09512 49.3222 6.46662 46.2418 6.46662 43.0634V35.9202C6.46662 35.3439 6.84293 34.834 7.3979 34.658L11.7025 33.2973L17.9828 38.4721C18.3891 38.8232 18.8959 39.0078 19.4161 39.0078C19.635 39.0078 19.8572 38.975 20.0746 38.9077C20.8201 38.6785 21.3743 38.0928 21.5561 37.3412L24.5508 24.9677L33.7901 33.3919C34.3632 33.9143 35.1823 34.0973 35.927 33.8682C36.6717 33.639 37.2417 33.0299 37.414 32.2775L42.6057 9.68886C42.7875 8.89586 43.5006 8.33358 44.322 8.33358H49.1887C51.373 8.33358 53.4909 8.75588 55.4824 9.58954C57.4074 10.395 59.1371 11.5493 60.6234 13.0196C62.1097 14.4898 63.2765 16.2009 64.0908 18.1053C64.9328 20.0753 65.3604 22.1696 65.3604 24.3311V39.0751C65.3604 39.6256 65.0007 40.1129 64.4703 40.2802L59.6494 41.8044L53.3692 36.6296C52.7913 36.1306 52.0118 35.968 51.2773 36.194C50.5318 36.4232 49.9777 37.0088 49.7958 37.7605L46.8012 50.134L37.5627 41.7114C36.9895 41.1889 36.1705 41.006 35.4258 41.2351C34.6811 41.4643 34.1111 42.0734 33.9379 42.8257L28.7581 65.362C28.6024 66.0408 27.9518 66.4975 27.2537 66.4108C25.0994 66.1441 23.0036 65.5881 20.994 64.7473C18.1638 63.5601 15.619 61.8631 13.4339 59.7016ZM63.875 55.1571C62.9216 57.3859 61.557 59.3888 59.817 61.1093C58.0778 62.8298 56.0531 64.1804 53.8 65.1235C51.4687 66.0987 48.9903 66.5937 46.4344 66.5937H32.5868C32.0271 66.5937 31.6121 66.0799 31.7362 65.5395L36.5215 44.7199L45.7481 53.1308C46.3261 53.6578 47.1206 53.8378 47.8732 53.6109C48.6258 53.3842 49.1839 52.7976 49.3674 52.0406L52.3786 39.5998L58.0469 44.2702C58.6225 44.7653 59.4257 44.9302 60.1546 44.7003L64.6205 43.2887C64.9873 43.173 65.362 43.4436 65.362 43.8245V47.8692C65.3612 50.3991 64.8608 52.8508 63.875 55.1571Z" fill="#4E4E4E"/>
</g>
<defs>
<filter id="filter0_d_1547_21230" x="0.81646" y="0.537217" width="74.5613" height="73.8518" filterUnits="userSpaceOnUse" color-interpolation-filters="sRGB">
<feFlood flood-opacity="0" result="BackgroundImageFix"/>
<feColorMatrix in="SourceAlpha" type="matrix" values="0 0 0 0 0 0 0 0 0 0 0 0 0 0 0 0 0 0 127 0" result="hardAlpha"/>
<feOffset dx="2.18354"/>
<feGaussianBlur stdDeviation="2.18354"/>
<feColorMatrix type="matrix" values="0 0 0 0 0 0 0 0 0 0 0 0 0 0 0 0 0 0 0.25 0"/>
<feBlend mode="normal" in2="BackgroundImageFix" result="effect1_dropShadow_1547_21230"/>
<feBlend mode="normal" in="SourceGraphic" in2="effect1_dropShadow_1547_21230" result="shape"/>
</filter>
</defs>
</svg>